<svg xmlns="http://www.w3.org/2000/svg" width="832.392" height="152.968"><path fill="#fff" d="M68.112 58.968a78.544 78.544 0 0 1-5.976.216 97.265 97.265 0 0 1-13.536-.936 48.243 48.243 0 0 0 11.088-7.92v-5.612H28.656c1.008-.792 1.872-1.584 2.736-2.3h29.88v-29.88H33.84c.36-.936.648-1.944.936-2.88h32.112V1.88H1.296v7.776h23.4a12.036 12.036 0 0 1-1.152 2.88H6.84v29.88h14.328c-4.824 2.8-12.096 4.96-19.728 6.04l5.328 8.712a47.382 47.382 0 0 0 7.344-2.952 99.427 99.427 0 0 0 9.72 3.744 115.519 115.519 0 0 1-16.704 1.156q-3.564 0-7.128-.216l3.312 9.068c12.244-.576 22.968-2.16 33.552-5.688 9.36 3.024 19.8 5.472 27.072 5.688ZM52.056 36.216h-36v-3.024h36Zm0-7.632h-36v-2.808h36Zm0-7.416h-36v-2.736h36Zm-3.384 29.88a64.9 64.9 0 0 1-11.808 4.32 92.981 92.981 0 0 1-14.108-4.32Zm84.816-9.432V18.288H92.52v23.328h15.836v12.96c0 3.744-.144 3.888-7.128 3.888h-1.512l3.744 9.576c13.464-.432 14.328-2.664 14.328-12.96V41.616Zm4.248-27.648V5.256H117.72V0h-10.224v5.256H89.64v3.24A96 96 0 0 0 78.696.504l-6.048 7.412a134.408 134.408 0 0 1 12.024 9.288l4.968-5.976v2.736ZM78.048 65.592c4.824-6.336 9.072-16.92 11.592-23.832l-7.56-5.328c-2.592 6.984-7.344 17.352-12.096 23.112Zm14.256-1.368a47.7 47.7 0 0 0 12.96-15.552l-7.992-5.04a33.421 33.421 0 0 1-11.664 13.464Zm45.72-5.184a78.3 78.3 0 0 1-10.3-15.336l-7.92 4.1c2.812 5.836 7.132 12.964 10.588 16.852Zm-13.32-25.848h-23.4V26.64h23.4Zm-36.148-7.704a103.755 103.755 0 0 0-12.816-8.424l-5.684 7.704a89.425 89.425 0 0 1 12.456 8.712Zm109.368 8.064c-1.44 3.312-10.512 22.752-28.3 22.752-6.192 0-9.216-3.384-9.216-11.16 0-13.968.432-27.936 1.152-41.832l-10.944-.36c0 14.688-.288 29.3-.288 43.992 0 15.12 8.712 19.512 18.432 19.512 16.344 0 29.16-9.36 37.3-24.624Zm66.388 26.352c-10.44-8.136-30.312-19.368-37.584-24.48-1.3-.936-1.944-1.656-1.944-2.448 0-1.8 4.68-4.608 15.48-10.872 7.344-4.248 15.7-8.928 22.248-13.248L254.156.648a219.045 219.045 0 0 1-19.3 13.392c-7.2 4.608-14.04 8.712-17.928 11.664a8.552 8.552 0 0 0-3.672 6.984 9.817 9.817 0 0 0 4.1 7.7c7.7 5.832 27.576 17.856 37.512 27.288Zm37.152.792a70.849 70.849 0 0 0-17.928-17.064l-7.272 7.272c6.48 4.392 11.088 8.928 16.776 17.64Zm113.328-29.088a87.044 87.044 0 0 1-24.7-4.968 49.81 49.81 0 0 0 13.824-14.04V4.536h-25.124c1.008-1.08 1.872-2.16 2.736-3.24l-10.44-1.3c-4.968 5.472-12.672 9.864-24.048 12.816l5.112 9.072a48.956 48.956 0 0 0 9.288-3.888 67.543 67.543 0 0 0 10.656 8.72 101.082 101.082 0 0 1-27.648 5.688l3.24 10.08a131.376 131.376 0 0 0 24.12-6.408l-5.252 7.268a145.476 145.476 0 0 1 25.052 11.088l5.256-8.064a192.627 192.627 0 0 0-24.192-10.584c3.1-1.224 5.9-2.448 8.5-3.744a97.384 97.384 0 0 0 30.384 9.648Zm-11.88 27.864a352.207 352.207 0 0 0-41.76-9.288l-4.464 8.712a307.262 307.262 0 0 1 41.616 9.22Zm-10.656-46.224a39 39 0 0 1-11.16 9.216 49.152 49.152 0 0 1-11.952-9.216Zm91.44 46.8a51.307 51.307 0 0 1-11.664-2.808 39.386 39.386 0 0 0 7.488-9.5v-5.976h-24.264l.936-3.384 26.5-.072v-7.776h-24.988c.216-1.008.36-2.088.5-3.168h23.184v-7.56h-6.12a53.136 53.136 0 0 0 4.32-8.568l-6.48-1.008c3.528-.36 6.984-.864 10.08-1.44l-3.812-7.492c-7.848 1.728-23.688 2.232-35.568 2.232h-4.392l1.94 7.988h6.768l-6.188 2.74a26.55 26.55 0 0 1 3.888 5.544h-4.176v7.56h7.92l-.36 3.168h-9.144v7.848h7.492a55.74 55.74 0 0 1-8.784 18.288V4.248H417.24v60.7h8.784v-5.76h10.656a28.681 28.681 0 0 1-2.524 2.588l6.264 6.048a59.955 59.955 0 0 0 5.476-6.552l2.88 6.48a51.972 51.972 0 0 0 16.344-5.544 53.7 53.7 0 0 0 14.688 6.192Zm-53.28-9.576h-4.752V34.56h4.752Zm0-23.9h-4.752V12.96h4.752Zm28.152 30.524a43.373 43.373 0 0 1-11.232 2.02 57.711 57.711 0 0 0 5.112-9.576 38.576 38.576 0 0 0 6.12 7.556Zm-4.248-40.32a53.818 53.818 0 0 0-3.672-5.328c3.168-.072 6.48-.144 9.936-.288l-5.4 2.16a34.153 34.153 0 0 1 4.392 6.48h-11.232Zm12.96-.864c-.936-1.3-2.664-3.528-3.816-4.9 2.592-.216 5.184-.36 7.776-.648a37.964 37.964 0 0 1-3.888 9.432h-6.624Zm3.384 32.976a20.807 20.807 0 0 1-5.328 4.968 27.177 27.177 0 0 1-5.4-4.968Zm36.936 15.7c2.664.216 6.048.648 8.856.648 16.272 0 17.784-19.008 17.784-31.1 0-7.2 0-18.72-11.664-18.72-2.664 0-5.328 0-7.992.072A104.618 104.618 0 0 0 516.6 2.096L506.156 1.08a98.166 98.166 0 0 1-2.088 14.9l-15.84.936.792 9.36c4.032-.36 8.5-.72 12.744-1.008-3.456 12.6-8.784 26.208-15.12 36.792l9.792 3.312c5.616-9 11.952-25.416 15.984-40.824 2.664-.144 5.256-.216 7.92-.216 3.816 0 4.176 3.456 4.176 10.368 0 17.136-4.176 20.592-7.992 20.592a74.135 74.135 0 0 1-12.6-1.368Zm46.656-24.916a57.6 57.6 0 0 0-14.328-30.816l-8.784 3.312c7.7 8.424 11.808 19.224 13.464 31.9Zm31.176-.648c-4.032 10.292-5.544 13.392-8.64 13.392-5.688 0-7.992-12.24-7.992-26.784a133.632 133.632 0 0 1 1.08-17.352l-10.656-.36c-.216 4.464-.36 8.928-.36 13.392 0 16.056 1.728 31.032 6.7 37.008a13.356 13.356 0 0 0 10.512 5.4c7.2 0 12.456-6.336 16.272-14.472Zm36.432 13.608c0-13.824-6.624-34.632-16.488-44.568l-9.144 3.816c10.656 11.016 15.264 32.04 15.336 45Zm70.992 6.624c-4.248-3.6-7.56-7.7-11.16-13.824 4.9-8.856 6.84-19.224 7.56-26.136h2.88v-8.712h-17.064a70.924 70.924 0 0 0 2.52-9.216L668.376.144a71.294 71.294 0 0 1-8.784 22.68v-4.68h-2.52a69.106 69.106 0 0 0 6.768-11.088l-7.056-4.032a49.345 49.345 0 0 1-4.392 9.216V5.328h-7.272V0h-8.64v5.328h-8.5v7.776h8.5v5.04h-10.724v7.7h14.9a63.12 63.12 0 0 1-16.128 8.928l4.9 8.208a59.989 59.989 0 0 0 9.5-5.976h8.208a17.459 17.459 0 0 1-3.24 3.384h-3.6v5.9c-5.184.5-10.3.936-14.976 1.08l1.44 8.712a247.07 247.07 0 0 0 13.536-1.3v.144c0 4.248 0 4.32-7.632 4.32h-.864l3.456 8.796c12.528-.432 13.392-1.152 13.392-13.176v-1.148c4.464-.576 8.856-1.3 12.888-2.016v-8.712c-4.032.864-8.424 1.584-12.888 2.232a84.749 84.749 0 0 0 8.64-9.864v-5.688H647.28l3.744-3.816h6.912l4.68 9.648c1.152-1.728 2.3-3.528 3.384-5.4a87.376 87.376 0 0 0 5.328 15.264c-4.608 6.84-9.792 10.8-14.9 13.032l5.472 9.648a48.494 48.494 0 0 0 14.684-13.828 54.513 54.513 0 0 0 10.584 13.824Zm-12.312-39.96a71.729 71.729 0 0 1-4.032 17.856 105.155 105.155 0 0 1-4.968-17.712l.072-.144Zm-28.656-6.192a57.254 57.254 0 0 1-3.744 5.04h-3.024v-5.04Zm110.088 53.424v-8.64h-28.584v-5.472h22.964v-8.424h-22.964v-5.256c5.328-.36 10.512-.792 15.192-1.368a128.891 128.891 0 0 1 4.392 5.04l7.128-5.9a134.7 134.7 0 0 0-13.1-12.168h6.984v-6.048h7.056V4.176h-27.22v-4.1h-10.152v4.1h-27v14.112h6.624v6.048h10.152a50.494 50.494 0 0 1-4.392 6.84c-4.32 0-8.352-.144-11.52-.288l2.3 8.64h4.824c5.832 0 12.528-.072 19.368-.36v4.824h-23.252v8.424h23.256v5.472h-28.3v8.64Zm-10.008-50.04h-46.224V12.24h46.224Zm-10.3 13.608c-5.976.576-13.824.936-21.672 1.08a48.388 48.388 0 0 0 3.744-6.84h21.316l-5.976 3.312Zm82.876 25.56a97.009 97.009 0 0 1-19.872 2.088c-3.24 0-14.4-.072-14.4-4.968 0-4.68 7.7-7.992 11.088-9.72-.072 3.168-.36 6.48-.432 9.072l9.72-.648c.072-2.52.216-5.04.216-7.632 0-1.44-.072-2.88-.144-4.392a184.549 184.549 0 0 1 21.672-5.616l-3.744-9.072c-3.888 1.152-11.376 3.1-19.224 5.9-1.656-5.688-5.112-8.352-10.944-8.352-3.384 0-6.192 1.368-9 3.168a103.067 103.067 0 0 0 5.688-8.28h26.208V8.78h-22.032a85.196 85.196 0 0 0 2.664-5.832l-10.584-1.652a72.628 72.628 0 0 1-2.952 7.56h-20.088v8.424h16.272a104.708 104.708 0 0 1-17.928 23.112l7.848 5.976c1.872-2.448 4.032-4.824 5.832-6.768 6.84-7.416 11.52-9.936 15.768-9.936 2.664 0 4.032 1.656 4.68 4.392-6.984 3.168-19.8 9.5-19.8 18.936 0 12.312 14.832 13.68 22.824 13.68a127.736 127.736 0 0 0 20.3-1.368Zm-756.432 66.86v-9.58h-27.5v-2.16a108.813 108.813 0 0 0 20.66-15.984v-8.064h-54v9.5h39.744a84.22 84.22 0 0 1-11.52 7.348h-4.608v9.36H0v9.58h30.888v15.26c0 4.536-.432 5.112-5.544 5.112h-9.36l3.888 10.08c20.592 0 20.736-1.728 20.736-16.488v-13.964Zm62.784 15.26a145.4 145.4 0 0 1-24.912 2.52c-7.488 0-19.3-.5-19.3-8.568 0-13.536 34.128-16.344 42.912-17.064l-2.952-10.3a163.1 163.1 0 0 0-21.24 3.96 53.932 53.932 0 0 1-2.448-16.7c0-1.44.072-2.88.144-4.248H91.944c.144 6.12.432 16.344 3.528 24.264-9.144 3.676-18.864 9.792-18.864 20.952 0 16.128 19.512 17.568 30.528 17.568a180.6 180.6 0 0 0 23.328-1.656Zm-1.584-38.448c-1.656-4.032-6.48-10.224-8.28-12.528l-5.544 2.736a70.86 70.86 0 0 1 8.208 12.888Zm10.152-3.6c-1.872-3.888-6.192-9.5-8.424-12.024l-5.328 2.736a71.208 71.208 0 0 1 8.424 12.6Zm45.648 32.544-.072-8.784h-19.512l.576-9.144h18.432v-8.784h-17.78c.36-5.328.792-10.08 1.08-13.392l-10.008-.5-.936 13.9h-11.596l.072 8.784h10.944c-.216 3.1-.432 6.192-.576 9.144h-11.592v8.784h11.16c-.144 2.664-.144 4.9-.144 6.408.36 13.824 11.448 17.712 23.184 17.712 22.032 0 25.92-13.1 25.92-19.944 0-7.776-4.032-14.616-9-20.3l-9.936 2.36c3.6 4.1 8.712 13.032 8.712 18.576 0 9.576-11.808 10.44-15.984 10.44-5.9 0-13.176-1.728-13.176-9 0-2.088.144-4.176.216-6.264Zm32.616 22.824c5.184-12.168 10.44-30.528 14.544-47.232l19.512-.072v-8.856l-18 .072c.648-2.88 1.368-5.688 1.872-8.28l-10.584-.864c-.432 2.592-1.08 5.688-1.8 9.144h-15.048v8.856h13.68c-3.456 14.256-8.568 31.68-14.4 44.856Zm52.488-11.448a67 67 0 0 1-14.184 1.656c-11.16 0-13.392-2.736-13.392-4.968a4.789 4.789 0 0 1 1.944-3.384l-9-1.584a9.5 9.5 0 0 0-2.232 6.192c0 12.528 15.84 13.32 24.984 13.32a69.952 69.952 0 0 0 12.456-1.08Zm.36-30.528a124.836 124.836 0 0 0-14.832-.864 129.067 129.067 0 0 0-16.416 1.08l.792 9a52.916 52.916 0 0 1 12.312-1.3 109.159 109.159 0 0 1 17.136 1.584Zm61.128-4.604V95.44l-26.064.072c1.152-2.736 2.232-5.4 3.1-7.848l-10.8-1.08a96.62 96.62 0 0 1-2.88 8.928l-18.144.072v9l15.552-.072a114.957 114.957 0 0 1-12.82 23.184l8.928 3.96c6.12-5.832 14.976-8.064 23.184-8.064 4.752 0 13.392.648 13.392 7.272 0 4.536-4.032 10.368-22.32 10.368a96.038 96.038 0 0 1-18.5-1.944l1.944 10.368a123.073 123.073 0 0 0 15.912 1.224c17.136 0 33.624-5.184 33.624-20.232 0-14.76-17.208-15.984-23.184-15.984a43.219 43.219 0 0 0-17.784 3.888 131.2 131.2 0 0 0 7.632-14.04Zm27.36 45.072a98.036 98.036 0 0 1-1.728-20.092 217.372 217.372 0 0 1 3.888-39.38l-10.584-1.224c-1.728 11.88-3.528 26.568-3.528 41.112a134.721 134.721 0 0 0 1.44 20.448Zm48.168-14.256a92.329 92.329 0 0 1-18.504 2.084c-8.928 0-13.68-1.872-13.68-5.328a7.109 7.109 0 0 1 1.8-4.248l-9.072-2.232a13.744 13.744 0 0 0-2.376 7.344c0 6.912 6.408 12.024 13.392 13.32a69.088 69.088 0 0 0 12.168.936 99.131 99.131 0 0 0 16.2-1.3Zm-3.024-39.528a113.816 113.816 0 0 0-16.632-1.152 182.682 182.682 0 0 0-19.368 1.08l.072 9.648a105.4 105.4 0 0 1 17.64-1.3 92.07 92.07 0 0 1 18.072 1.512Z" data-name="パス 3352"/></svg>