<svg xmlns="http://www.w3.org/2000/svg" width="278.28" height="157.76"><path fill="#fff" d="M38.48 32.76c-1.04.08-2.16.12-3.32.12a54.036 54.036 0 0 1-7.52-.52 26.8 26.8 0 0 0 6.16-4.4v-3.12H16.56c.56-.44 1.04-.88 1.52-1.28h16.6V6.96H19.44c.2-.52.36-1.08.52-1.6H37.8V1.04H1.36v4.32h13a6.687 6.687 0 0 1-.64 1.6H4.44v16.6h7.96a31.917 31.917 0 0 1-10.96 3.36l2.96 4.84a26.323 26.323 0 0 0 4.08-1.64 55.237 55.237 0 0 0 5.4 2.08 64.177 64.177 0 0 1-9.28.64q-1.98 0-3.96-.12l1.84 5.04a67.577 67.577 0 0 0 18.64-3.16c5.2 1.68 11 3.04 15.04 3.16Zm-8.92-12.64h-20v-1.68h20Zm0-4.24h-20v-1.56h20Zm0-4.12h-20v-1.52h20Zm-1.88 16.6a36.055 36.055 0 0 1-6.56 2.4 51.656 51.656 0 0 1-7.84-2.4ZM76 23.12V10.16H53.24v12.96h8.8v7.2c0 2.08-.08 2.16-3.96 2.16h-.84l2.08 5.32c7.48-.24 7.96-1.48 7.96-7.2v-7.48Zm2.36-15.36V2.92H67.24V0h-5.68v2.92h-9.92v1.8A53.336 53.336 0 0 0 45.56.28L42.2 4.4a74.671 74.671 0 0 1 6.68 5.16l2.76-3.32v1.52ZM45.2 36.44c2.68-3.52 5.04-9.4 6.44-13.24l-4.2-2.96c-1.44 3.88-4.08 9.64-6.72 12.84Zm7.92-.76a26.5 26.5 0 0 0 7.2-8.64l-4.44-2.8a18.567 18.567 0 0 1-6.48 7.48Zm25.4-2.88a43.5 43.5 0 0 1-5.72-8.52l-4.4 2.28a46.371 46.371 0 0 0 5.88 9.36Zm-7.4-14.36h-13V14.8h13Zm-20.08-4.28a57.641 57.641 0 0 0-7.12-4.68l-3.16 4.28a49.681 49.681 0 0 1 6.92 4.84ZM113 18.64c-.8 1.84-5.84 12.64-15.72 12.64-3.44 0-5.12-1.88-5.12-6.2 0-7.76.24-15.52.64-23.24l-6.08-.2c0 8.16-.16 16.28-.16 24.44 0 8.4 4.84 10.84 10.24 10.84 9.08 0 16.2-5.2 20.72-13.68Zm38.08 14.64c-5.8-4.52-16.84-10.76-20.88-13.6-.72-.52-1.08-.92-1.08-1.36 0-1 2.6-2.56 8.6-6.04 4.08-2.36 8.72-4.96 12.36-7.36L145.44.36a121.691 121.691 0 0 1-10.72 7.44c-4 2.56-7.8 4.84-9.96 6.48a4.751 4.751 0 0 0-2.04 3.88 5.454 5.454 0 0 0 2.28 4.28c4.28 3.24 15.32 9.92 20.84 15.16Zm21.84.44a39.36 39.36 0 0 0-9.96-9.48l-4.04 4.04a31.083 31.083 0 0 1 9.32 9.8ZM39.08 77.56a48.358 48.358 0 0 1-13.72-2.76 27.672 27.672 0 0 0 7.68-7.8v-4.48H19.08c.56-.6 1.04-1.2 1.52-1.8L14.8 60c-2.76 3.04-7.04 5.48-13.36 7.12l2.84 5.04A27.2 27.2 0 0 0 9.44 70a37.524 37.524 0 0 0 5.92 4.84A56.157 56.157 0 0 1 0 78l1.8 5.6a72.986 72.986 0 0 0 13.4-3.56l-2.92 4.04a80.82 80.82 0 0 1 13.92 6.16l2.92-4.48a107.013 107.013 0 0 0-13.44-5.88 59.27 59.27 0 0 0 4.72-2.08 54.1 54.1 0 0 0 16.88 5.36Zm-6.6 15.48a195.671 195.671 0 0 0-23.2-5.16L6.8 92.72a170.7 170.7 0 0 1 23.12 5.12Zm-5.92-25.68a21.669 21.669 0 0 1-6.2 5.12 27.307 27.307 0 0 1-6.64-5.12Zm52 26a28.5 28.5 0 0 1-6.48-1.56 21.882 21.882 0 0 0 4.16-5.28V83.2H62.76l.52-1.88L78 81.28v-4.32H64.12c.12-.56.2-1.16.28-1.76h12.88V71h-3.4a29.519 29.519 0 0 0 2.4-4.76l-3.6-.56c1.96-.2 3.88-.48 5.6-.8l-2.12-4.16c-4.36.96-13.16 1.24-19.76 1.24h-2.44l1.08 4.44h3.76l-3.44 1.52A14.75 14.75 0 0 1 57.52 71H55.2v4.2h4.4l-.2 1.76h-5.08v4.36h4.16a30.967 30.967 0 0 1-4.88 10.16V62.36H41.64v33.72h4.88v-3.2h5.92a15.936 15.936 0 0 1-1.4 1.44l3.48 3.36a33.308 33.308 0 0 0 3.04-3.64l1.6 3.6a28.874 28.874 0 0 0 9.08-3.08A29.835 29.835 0 0 0 76.4 98Zm-29.6-5.32h-2.64V79.2h2.64Zm0-13.28h-2.64V67.2h2.64ZM64.6 91.72a24.1 24.1 0 0 1-6.24 1.12 32.061 32.061 0 0 0 2.84-5.32 21.431 21.431 0 0 0 3.4 4.2Zm-2.36-22.4a29.9 29.9 0 0 0-2.04-2.96c1.76-.04 3.6-.08 5.52-.16l-3 1.2a18.975 18.975 0 0 1 2.44 3.6h-6.24Zm7.2-.48a56.57 56.57 0 0 0-2.12-2.72c1.44-.12 2.88-.2 4.32-.36A21.091 21.091 0 0 1 69.48 71H65.8Zm1.88 18.32a11.559 11.559 0 0 1-2.96 2.76 15.1 15.1 0 0 1-3-2.76Zm21.72 8.72c1.48.12 3.36.36 4.92.36 9.04 0 9.88-10.56 9.88-17.28 0-4 0-10.4-6.48-10.4-1.48 0-2.96 0-4.44.04a58.118 58.118 0 0 0 1.12-7.44l-5.8-.56a54.536 54.536 0 0 1-1.16 8.28l-8.8.52.44 5.2c2.24-.2 4.72-.4 7.08-.56a85.762 85.762 0 0 1-8.4 20.44l5.44 1.84c3.12-5 6.64-14.12 8.88-22.68 1.48-.08 2.92-.12 4.4-.12 2.12 0 2.32 1.92 2.32 5.76 0 9.52-2.32 11.44-4.44 11.44a41.186 41.186 0 0 1-7-.76Zm25.92-13.84A32 32 0 0 0 111 64.92l-4.88 1.84c4.28 4.68 6.56 10.68 7.48 17.72Zm18.52-.36c-2.24 5.72-3.08 7.44-4.8 7.44-3.16 0-4.44-6.8-4.44-14.88a74.238 74.238 0 0 1 .6-9.64l-5.92-.2c-.12 2.48-.2 4.96-.2 7.44 0 8.92.96 17.24 3.72 20.56a7.42 7.42 0 0 0 5.84 3c4 0 6.92-3.52 9.04-8.04Zm20.24 7.56c0-7.68-3.68-19.24-9.16-24.76l-5.08 2.12c5.92 6.12 8.48 17.8 8.52 25Zm40.64 3.68a28.105 28.105 0 0 1-6.2-7.68 39.581 39.581 0 0 0 4.2-14.52h1.6v-4.84h-9.48a39.4 39.4 0 0 0 1.4-5.12l-5.12-.68a39.608 39.608 0 0 1-4.88 12.6v-2.6h-1.4a38.394 38.394 0 0 0 3.76-6.16l-3.92-2.24a27.416 27.416 0 0 1-2.44 5.12v-3.84h-4.04V60h-4.8v2.96h-4.72v4.32h4.72v2.8h-5.96v4.28h8.28a35.066 35.066 0 0 1-8.96 4.96l2.72 4.56a33.326 33.326 0 0 0 5.28-3.32h4.56a9.7 9.7 0 0 1-1.8 1.88h-2v3.28c-2.88.28-5.72.52-8.32.6l.8 4.84c2.36-.16 4.92-.4 7.52-.72v.08c0 2.36 0 2.4-4.24 2.4h-.48l1.92 4.88c6.96-.24 7.44-.64 7.44-7.32v-.64c2.48-.32 4.92-.72 7.16-1.12v-4.84c-2.24.48-4.68.88-7.16 1.24a47.086 47.086 0 0 0 4.8-5.48v-3.16h-5.56l2.08-2.12h3.84l2.6 5.36c.64-.96 1.28-1.96 1.88-3a48.545 48.545 0 0 0 2.96 8.48 19.309 19.309 0 0 1-8.28 7.24l3.04 5.36a26.941 26.941 0 0 0 8.16-7.68 30.285 30.285 0 0 0 5.88 7.68Zm-6.84-22.2a39.849 39.849 0 0 1-2.24 9.92 58.42 58.42 0 0 1-2.76-9.84l.04-.08Zm-15.92-3.44a31.811 31.811 0 0 1-2.08 2.8h-1.68v-2.8Zm62.36 29.68v-4.8h-15.88v-3.04h12.76v-4.68h-12.76v-2.92c2.96-.2 5.84-.44 8.44-.76.88.96 1.68 1.88 2.44 2.8l3.96-3.28a74.836 74.836 0 0 0-7.28-6.76h3.88v-3.36h3.92v-7.84h-15.12v-2.28h-5.64v2.28h-15v7.84h3.68v3.36H211a28.051 28.051 0 0 1-2.44 3.8c-2.4 0-4.64-.08-6.4-.16l1.28 4.8h2.68c3.24 0 6.96-.04 10.76-.2v2.68h-12.92v4.68h12.92v3.04h-15.72v4.8Zm-5.56-27.8h-25.68V66.8h25.68Zm-5.72 7.56c-3.32.32-7.68.52-12.04.6a26.885 26.885 0 0 0 2.08-3.8h11.84l-3.32 1.84Zm47.24 14.2a53.893 53.893 0 0 1-11.04 1.16c-1.8 0-8-.04-8-2.76 0-2.6 4.28-4.44 6.16-5.4-.04 1.76-.2 3.6-.24 5.04l5.4-.36c.04-1.4.12-2.8.12-4.24 0-.8-.04-1.6-.08-2.44a102.528 102.528 0 0 1 12.04-3.12l-2.08-5.04c-2.16.64-6.32 1.72-10.68 3.28-.92-3.16-2.84-4.64-6.08-4.64a9.121 9.121 0 0 0-5 1.76 57.26 57.26 0 0 0 3.16-4.6h14.56v-4.68h-12.24c.52-1.04 1.04-2.16 1.48-3.24l-5.88-.92a40.349 40.349 0 0 1-1.64 4.2h-11.16v4.68h9.04a58.172 58.172 0 0 1-9.96 12.84l4.36 3.32c1.04-1.36 2.24-2.68 3.24-3.76 3.8-4.12 6.4-5.52 8.76-5.52 1.48 0 2.24.92 2.6 2.44-3.88 1.76-11 5.28-11 10.52 0 6.84 8.24 7.6 12.68 7.6a70.965 70.965 0 0 0 11.28-.76ZM38.48 140.84v-5.32H23.2v-1.2a60.451 60.451 0 0 0 11.48-8.88v-4.48h-30v5.28h22.08a46.788 46.788 0 0 1-6.4 4.08H17.8v5.2H.64v5.32H17.8v8.48c0 2.52-.24 2.84-3.08 2.84h-5.2l2.16 5.6c11.44 0 11.52-.96 11.52-9.16v-7.76Zm36.08 8.48a80.78 80.78 0 0 1-13.84 1.4c-4.16 0-10.72-.28-10.72-4.76 0-7.52 18.96-9.08 23.84-9.48l-1.64-5.72a90.61 90.61 0 0 0-11.8 2.2 29.962 29.962 0 0 1-1.36-9.28c0-.8.04-1.6.08-2.36h-6.2c.08 3.4.24 9.08 1.96 13.48-5.08 2.04-10.48 5.44-10.48 11.64 0 8.96 10.84 9.76 16.96 9.76a100.331 100.331 0 0 0 12.96-.92Zm-.88-21.36c-.92-2.24-3.6-5.68-4.6-6.96L66 122.52a39.367 39.367 0 0 1 4.56 7.16Zm5.64-2a37 37 0 0 0-4.68-6.68l-2.96 1.52a39.56 39.56 0 0 1 4.68 7Zm26.56 18.08-.04-4.88H95l.32-5.08h10.24v-4.88h-9.88c.2-2.96.44-5.6.6-7.44l-5.56-.28-.52 7.72h-6.44l.04 4.88h6.08c-.12 1.72-.24 3.44-.32 5.08h-6.44v4.88h6.2c-.08 1.48-.08 2.72-.08 3.56.2 7.68 6.36 9.84 12.88 9.84 12.24 0 14.4-7.28 14.4-11.08 0-4.32-2.24-8.12-5-11.28L106 136.4c2 2.28 4.84 7.24 4.84 10.32 0 5.32-6.56 5.8-8.88 5.8-3.28 0-7.32-.96-7.32-5 0-1.16.08-2.32.12-3.48Zm19.32 12.68c2.88-6.76 5.8-16.96 8.08-26.24l10.84-.04v-4.92l-10 .04c.36-1.6.76-3.16 1.04-4.6l-5.88-.48c-.24 1.44-.6 3.16-1 5.08h-8.36v4.92h7.6a158.808 158.808 0 0 1-8 24.92Zm29.16-6.36a37.224 37.224 0 0 1-7.88.92c-6.2 0-7.44-1.52-7.44-2.76a2.661 2.661 0 0 1 1.08-1.88l-5-.88a5.276 5.276 0 0 0-1.24 3.44c0 6.96 8.8 7.4 13.88 7.4a38.862 38.862 0 0 0 6.92-.6Zm.2-16.96a69.353 69.353 0 0 0-8.24-.48 71.7 71.7 0 0 0-9.12.6l.44 5a29.4 29.4 0 0 1 6.84-.72 60.644 60.644 0 0 1 9.52.88Zm35.16-2.56v-5.04l-14.48.04c.64-1.52 1.24-3 1.72-4.36l-6-.6c-.4 1.48-.92 3.16-1.6 4.96l-10.08.04v5l8.64-.04a63.867 63.867 0 0 1-7.12 12.88l4.96 2.2c3.4-3.24 8.32-4.48 12.88-4.48 2.64 0 7.44.36 7.44 4.04 0 2.52-2.24 5.76-12.4 5.76a53.355 53.355 0 0 1-10.28-1.08l1.08 5.76a68.375 68.375 0 0 0 8.84.68c9.52 0 18.68-2.88 18.68-11.24 0-8.2-9.56-8.88-12.88-8.88a24.01 24.01 0 0 0-9.88 2.16 72.892 72.892 0 0 0 4.24-7.8Zm16.4 25.04a54.465 54.465 0 0 1-.96-11.16 120.761 120.761 0 0 1 2.16-21.88l-5.88-.68a161.608 161.608 0 0 0-1.96 22.84 74.845 74.845 0 0 0 .8 11.36Zm26.76-7.92a51.294 51.294 0 0 1-10.28 1.16c-4.96 0-7.6-1.04-7.6-2.96a3.949 3.949 0 0 1 1-2.36l-5.04-1.24a7.635 7.635 0 0 0-1.32 4.08c0 3.84 3.56 6.68 7.44 7.4a38.382 38.382 0 0 0 6.76.52 55.072 55.072 0 0 0 9-.72ZM231.2 126a63.231 63.231 0 0 0-9.24-.64 101.492 101.492 0 0 0-10.76.6l.04 5.36a58.556 58.556 0 0 1 9.8-.72 51.15 51.15 0 0 1 10.04.84Z" data-name="パス 3353"/></svg>