<?xml version="1.0" encoding="utf-8"?>
<!-- Generator: Adobe Illustrator 25.2.1, SVG Export Plug-In . SVG Version: 6.00 Build 0)  -->
<svg version="1.1" xmlns="http://www.w3.org/2000/svg" xmlns:xlink="http://www.w3.org/1999/xlink" x="0px" y="0px"
	 viewBox="0 0 1000 1000" style="enable-background:new 0 0 1000 1000;" xml:space="preserve">
<style type="text/css">
	.st0{display:none;}
	.st1{display:inline;fill:#C0DC96;}
	.st2{fill:#80D8E6;}
	.st3{fill:#FFFFFF;}
	.st4{fill:#231815;}
	.st5{fill:none;stroke:#FFFFFF;stroke-width:5.6693;stroke-miterlimit:10;}
	.st6{fill:#80D8E6;stroke:#FFFFFF;stroke-width:5.6693;stroke-miterlimit:10;}
	.st7{fill:#F2F22C;}
</style>
<g id="レイヤー_11" class="st0">
	<path class="st1" d="M476.93,562.27c-0.31,0.22-0.86,0.33-1.23,0.25l-0.26-0.06c-0.37-0.08-0.96-0.03-1.31,0.11l-0.82,0.32
		c-0.35,0.14-0.48,0.38-0.29,0.54c0.19,0.16,0.65,0.3,1.03,0.32l2.94,0.17c0.38,0.02,0.94-0.14,1.25-0.36l1.52-1.08
		c0.31-0.22,0.3-0.57-0.01-0.77l-0.03-0.02c-0.32-0.21-0.77-0.38-1-0.38s-0.68,0.18-0.99,0.4L476.93,562.27z"/>
	<path class="st1" d="M481.26,560.5c-0.06-0.32-0.41-0.59-0.79-0.59h-0.01c-0.38,0-0.79,0.05-0.91,0.1
		c-0.12,0.06,0.01,0.3,0.29,0.55l0.51,0.44c0.29,0.25,0.63,0.37,0.76,0.27C481.26,561.17,481.32,560.82,481.26,560.5z"/>
	<path class="st1" d="M486.61,563.23c-0.32-0.21-0.63-0.13-0.69,0.18c-0.07,0.31,0.08,0.79,0.33,1.08l0.69,0.81
		c0.24,0.29,0.69,0.42,0.99,0.28c0.3-0.13,0.51-0.46,0.45-0.74c-0.05-0.28-0.35-0.67-0.67-0.88L486.61,563.23z"/>
	<path class="st1" d="M495.78,570.96c-0.22-0.24-0.15-0.5,0.16-0.59l0.03-0.01c0.31-0.09,0.77,0,1.03,0.2l0.23,0.18
		c0.25,0.2,0.23,0.5-0.05,0.66l-0.14,0.08c-0.28,0.16-0.69,0.1-0.91-0.14L495.78,570.96z"/>
	<path class="st1" d="M505.56,595.12c-0.09-0.27,0.05-0.35,0.32-0.16l5.58,3.88c0.27,0.19,0.22,0.37-0.1,0.41l-0.16,0.02
		c-0.32,0.04-0.82-0.05-1.11-0.2l-2.27-1.19c-0.29-0.15-0.69-0.48-0.89-0.74l-0.84-1.06C505.89,595.83,505.66,595.39,505.56,595.12z
		"/>
	<path class="st1" d="M511.74,582.6c-0.3-0.13-0.58,0.03-0.62,0.35s0.08,0.79,0.29,1.04l0.33,0.41c0.2,0.25,0.57,0.28,0.81,0.06
		l0.13-0.11c0.24-0.22,0.28-0.62,0.1-0.88l-0.07-0.11c-0.18-0.27-0.58-0.59-0.88-0.72L511.74,582.6z"/>
	<path class="st1" d="M534,588.55c-0.24-0.21-0.66-0.23-0.92-0.04l-1.11,0.8c-0.26,0.19-0.28,0.52-0.03,0.72l0.18,0.15
		c0.25,0.21,0.71,0.36,1.04,0.33l0.9-0.07c0.32-0.03,0.64-0.29,0.71-0.59c0.07-0.3-0.08-0.71-0.32-0.93L534,588.55z"/>
	<path class="st1" d="M534.4,586.22c-0.28,0.16-0.34,0.49-0.13,0.74l0.15,0.18c0.21,0.25,0.6,0.38,0.88,0.28s0.67-0.37,0.88-0.62
		l0.15-0.18c0.21-0.25,0.25-0.65,0.09-0.91c-0.16-0.25-0.52-0.33-0.8-0.17L534.4,586.22z"/>
	<path class="st1" d="M548.36,596.11c-0.17-0.27-0.54-0.42-0.81-0.33c-0.27,0.09-0.46,0.39-0.41,0.66c0.05,0.27,0.28,0.64,0.51,0.82
		c0.24,0.18,0.6,0.16,0.81-0.03c0.21-0.2,0.24-0.58,0.07-0.86L548.36,596.11z"/>
	<path class="st1" d="M534.18,569.18c0-0.14,0.2-0.42,0.45-0.63c0.25-0.2,0.65-0.19,0.9,0.02l0.36,0.31
		c0.25,0.21,0.27,0.58,0.06,0.82c-0.21,0.24-0.63,0.31-0.92,0.17l-0.33-0.17C534.42,569.56,534.18,569.33,534.18,569.18z"/>
	<path class="st1" d="M552.54,579.51c-0.32-0.02-0.56,0.12-0.52,0.31c0.04,0.19,0.28,0.42,0.54,0.52s0.7,0.1,0.97,0.02
		c0.27-0.08,0.5-0.29,0.5-0.45c0-0.17-0.26-0.32-0.59-0.34L552.54,579.51z"/>
	<path class="st1" d="M272.82,596.43c-0.07-0.26-0.31-0.36-0.54-0.22l-0.15,0.09c-0.23,0.14-0.31,0.46-0.19,0.7l0.04,0.07
		c0.12,0.24,0.32,0.49,0.44,0.57c0.12,0.07,0.3-0.01,0.4-0.18s0.13-0.53,0.06-0.79L272.82,596.43z"/>
	<path class="st1" d="M276.79,594.72c-0.23-0.05-0.56,0.01-0.73,0.13c-0.17,0.12-0.24,0.33-0.15,0.45c0.08,0.12,0.36,0.31,0.61,0.41
		l0.01,0c0.25,0.1,0.54,0.07,0.64-0.06c0.1-0.13,0.15-0.38,0.11-0.54C277.25,594.95,277.02,594.77,276.79,594.72z"/>
	<path class="st1" d="M246.16,575.47c-0.16-0.06-0.44,0.02-0.62,0.17c-0.18,0.15-0.18,0.44,0,0.64l0.15,0.17
		c0.18,0.2,0.5,0.35,0.71,0.32s0.42-0.18,0.47-0.36c0.05-0.18-0.02-0.44-0.16-0.58C246.57,575.69,246.32,575.52,246.16,575.47z"/>
	<path class="st1" d="M271.84,559.05c-0.18,0.03-0.32,0.27-0.3,0.53c0.02,0.26,0.19,0.57,0.38,0.69c0.19,0.12,0.51,0.17,0.7,0.12
		c0.19-0.06,0.35-0.25,0.35-0.41c0-0.17-0.17-0.45-0.37-0.62l-0.05-0.04C272.34,559.14,272.02,559.02,271.84,559.05z"/>
	<path class="st1" d="M521.44,415.72c-0.1-0.15-0.39-0.31-0.63-0.37s-0.52-0.04-0.61,0.04c-0.09,0.08,0,0.29,0.2,0.48l0.34,0.32
		c0.2,0.18,0.48,0.21,0.63,0.07C521.51,416.11,521.54,415.87,521.44,415.72z"/>
	<path class="st1" d="M309.73,542.03c-0.16,0.05-0.4,0.19-0.53,0.33c-0.13,0.13-0.13,0.41,0,0.6c0.13,0.2,0.42,0.36,0.63,0.36
		c0.21,0,0.47-0.16,0.57-0.35c0.1-0.19,0.06-0.5-0.1-0.69C310.15,542.1,309.89,541.98,309.73,542.03z"/>
	<path class="st1" d="M478.77,436.29c-0.06-0.06-0.24-0.05-0.38,0.02c-0.15,0.08-0.3,0.25-0.35,0.39c-0.04,0.14-0.01,0.33,0.08,0.43
		c0.08,0.1,0.29,0.07,0.46-0.06c0.17-0.13,0.31-0.33,0.31-0.45C478.89,436.5,478.84,436.36,478.77,436.29z"/>
	<path class="st1" d="M475.52,439.75c0.05-0.19-0.01-0.42-0.15-0.51c-0.13-0.1-0.48,0.03-0.76,0.28c-0.17,0.15-0.32,0.31-0.45,0.49
		c-0.11,0.15-0.18,0.33-0.32,0.45c-0.03,0.03-0.07,0.07-0.08,0.11c-0.01,0.04,0,0.07,0.01,0.11c0.03,0.08,0.07,0.16,0.12,0.23
		c0.01,0.01,0.02,0.02,0.03,0.02c0.01,0.01,0.03,0.01,0.04,0.01c0.14,0,0.25,0.01,0.39-0.04c0.17-0.07,0.32-0.17,0.46-0.29
		l0.01-0.01C475.15,440.32,475.47,439.94,475.52,439.75z"/>
	<path class="st1" d="M471.95,442.3c0.28-0.26,0.44-0.54,0.36-0.63s-0.36-0.03-0.62,0.12c-0.26,0.15-0.83,0.3-1.11,0.32
		c-0.27,0.03-0.72,0.32-0.99,0.66l-0.16,0.2c-0.18,0.22-0.34,0.46-0.49,0.7c-0.06,0.09-0.12,0.19-0.16,0.29
		c-0.05,0.13-0.07,0.26-0.14,0.38c-0.03,0.05-0.06,0.09-0.08,0.14c-0.01,0.02-0.01,0.05,0,0.07c0.01,0.02,0.03,0.02,0.06,0.02
		c0.15,0.02,0.29-0.06,0.43-0.14c0.16-0.09,0.32-0.19,0.48-0.29l0.41-0.27c0.36-0.24,0.81-0.58,1.01-0.77
		C471.14,442.93,471.67,442.56,471.95,442.3z"/>
	<path class="st1" d="M468.26,446.5c0.08-0.13,0.05-0.3-0.05-0.38c-0.11-0.08-0.28-0.07-0.4,0.02c-0.11,0.09-0.27,0.25-0.35,0.35
		c-0.08,0.1-0.1,0.26-0.04,0.36c0.06,0.1,0.24,0.11,0.41,0.02C467.99,446.8,468.18,446.63,468.26,446.5z"/>
	<path class="st1" d="M466.61,445.43c0.07-0.14,0.08-0.34,0.02-0.43c-0.06-0.09-0.23-0.14-0.38-0.11c-0.15,0.03-0.47,0.34-0.7,0.67
		c-0.05,0.08-0.12,0.16-0.16,0.25c-0.03,0.07-0.02,0.14-0.02,0.21c0,0.11-0.05,0.21-0.05,0.32c0,0.01,0,0.02,0.01,0.04
		c0.01,0.01,0.02,0.02,0.04,0.03c0.29,0.09,0.6-0.22,0.78-0.4C466.34,445.83,466.54,445.57,466.61,445.43z"/>
	<path class="st1" d="M508.98,407.7c-0.13-0.24-0.44-0.34-0.69-0.23l-0.78,0.34c-0.25,0.11-0.31,0.37-0.14,0.58l1.23,1.55
		c0.17,0.21,0.39,0.26,0.49,0.1c0.1-0.15,0.18-0.5,0.18-0.77v-0.57c0-0.27-0.11-0.68-0.24-0.92L508.98,407.7z"/>
	<path class="st1" d="M512.44,409.85c-0.06-0.13-0.32-0.29-0.58-0.34l-0.43-0.08c-0.27-0.05-0.48,0.02-0.48,0.16
		c0,0.14,0.19,0.36,0.43,0.49l0.28,0.15c0.24,0.13,0.53,0.15,0.66,0.05C512.45,410.18,512.5,409.99,512.44,409.85z"/>
	<path class="st1" d="M487.81,424.96c0-0.25-0.29-0.27-0.65-0.06l-1.09,0.66c-0.36,0.21-0.47,0.62-0.26,0.91
		c0.21,0.28,0.63,0.28,0.92-0.01l0.54-0.52C487.57,425.64,487.81,425.21,487.81,424.96z"/>
	<path class="st1" d="M728.9,552.76c0.21-0.17,0.24-0.46,0.05-0.66l-0.87-0.94c-0.18-0.2-0.51-0.32-0.73-0.27
		c-0.22,0.05-0.28,0.28-0.14,0.51l0.12,0.18c0.14,0.23,0.13,0.59-0.04,0.8l-0.19,0.24c-0.17,0.21-0.13,0.53,0.08,0.7l0.1,0.08
		c0.21,0.17,0.55,0.18,0.77,0.01L728.9,552.76z"/>
	<path class="st1" d="M571.54,409.39c0.05-0.19-0.06-0.54-0.26-0.8c-0.19-0.25-0.62-0.32-0.96-0.14l-0.73,0.38
		c-0.33,0.18-0.7,0.49-0.82,0.7c-0.12,0.21-0.1,0.5,0.03,0.65c0.13,0.15,0.54,0.19,0.9,0.07l1.08-0.33
		C571.15,409.82,571.49,409.58,571.54,409.39z"/>
	<path class="st1" d="M565.43,413.09c0-0.22-0.14-0.51-0.31-0.65c-0.17-0.14-0.5-0.15-0.75-0.03c-0.24,0.12-0.55,0.5-0.7,0.83
		c-0.14,0.33-0.16,0.7-0.04,0.83c0.12,0.12,0.49,0.09,0.83-0.09l0.35-0.18C565.16,413.63,565.43,413.31,565.43,413.09z"/>
	<path class="st1" d="M561.38,414.21c0.28-0.17,0.63-0.15,0.78,0.04c0.15,0.19,0.05,0.57-0.22,0.84l-0.45,0.45
		c-0.27,0.27-0.64,0.49-0.83,0.49c-0.19,0-0.43-0.09-0.52-0.19c-0.1-0.11,0.02-0.44,0.26-0.73l0.04-0.05
		C560.68,414.76,561.1,414.38,561.38,414.21z"/>
	<path class="st1" d="M547.51,418.63c-0.04-0.13,0.19-0.41,0.52-0.6l0.28-0.17c0.32-0.2,0.76-0.16,0.97,0.08
		c0.21,0.24,0.13,0.57-0.17,0.74c-0.3,0.16-0.77,0.27-1.03,0.25C547.8,418.89,547.55,418.76,547.51,418.63z"/>
	<path class="st1" d="M545.51,420.12c-0.04-0.26-0.18-0.49-0.3-0.52c-0.12-0.03-0.37,0.22-0.56,0.55l-0.14,0.24
		c-0.19,0.33-0.29,0.8-0.22,1.05c0.07,0.25,0.24,0.45,0.39,0.45c0.15,0,0.4-0.28,0.57-0.62l0.03-0.06
		C545.46,420.87,545.56,420.38,545.51,420.12z"/>
	<path class="st1" d="M591.4,506.87c-0.12-0.27,0.01-0.57,0.28-0.67c0.27-0.1,0.69-0.01,0.94,0.19l0.63,0.53
		c0.25,0.21,0.29,0.59,0.09,0.84l-0.87,1.1c-0.2,0.25-0.57,0.32-0.82,0.16c-0.25-0.17-0.38-0.56-0.28-0.87l0.07-0.23
		C591.53,507.62,591.52,507.14,591.4,506.87z"/>
	<path class="st1" d="M774.98,744.62c-0.22-0.12-0.64-0.09-0.92,0.08c-0.28,0.17-0.48,0.56-0.45,0.88c0.03,0.31-0.1,0.66-0.31,0.78
		s-0.13,0.4,0.16,0.65l0.59,0.5c0.29,0.24,0.71,0.21,0.93-0.09c0.23-0.29,0.41-0.84,0.41-1.22v-0.67
		C775.39,745.15,775.2,744.74,774.98,744.62z"/>
	<path class="st1" d="M788.43,756.33c-0.13-0.35-0.49-0.71-0.79-0.79c-0.3-0.08-0.64,0.06-0.74,0.31c-0.1,0.25-0.04,0.73,0.13,1.06
		l0.32,0.62c0.17,0.34,0.34,0.92,0.38,1.3l0.03,0.27c0.04,0.38,0.2,0.91,0.35,1.2c0.16,0.28,0.41,0.42,0.55,0.31
		c0.15-0.11,0.27-0.51,0.27-0.89v-1.37c0-0.38-0.11-0.98-0.24-1.33L788.43,756.33z"/>
	<path class="st1" d="M800.36,734.95c-0.3-0.22-0.78-0.36-1.06-0.31c-0.28,0.06-0.56,0.29-0.61,0.51c-0.06,0.22,0.11,0.63,0.37,0.91
		l0.89,0.93c0.26,0.27,0.75,0.35,1.08,0.17l0.01-0.01c0.33-0.18,0.58-0.55,0.54-0.83c-0.03-0.28-0.31-0.69-0.61-0.92L800.36,734.95z
		"/>
	<path class="st1" d="M806.02,730.44c-0.27-0.22-0.7-0.29-0.96-0.15c-0.26,0.14-0.36,0.42-0.24,0.63c0.13,0.21,0.41,0.46,0.61,0.55
		c0.21,0.09,0.53,0.14,0.73,0.1s0.35-0.21,0.35-0.4S806.29,730.66,806.02,730.44z"/>
	<path class="st1" d="M795.96,725.62c-0.29-0.22-0.77-0.41-1.06-0.41c-0.29,0-0.53,0.22-0.53,0.49s0.17,0.64,0.37,0.82
		c0.2,0.18,0.63,0.17,0.96-0.02l0.21-0.12C796.23,726.19,796.25,725.85,795.96,725.62z"/>
	<path class="st1" d="M805.49,720.08c-0.09-0.3-0.39-0.44-0.67-0.31c-0.28,0.14-0.68,0.34-0.88,0.45s-0.37,0.33-0.37,0.49
		s0.31,0.33,0.68,0.39l0.03,0c0.37,0.05,0.84-0.03,1.03-0.19C805.5,720.76,805.58,720.38,805.49,720.08z"/>
	<path class="st1" d="M796.49,678.37c-0.16-0.13-0.46-0.1-0.67,0.06l-0.12,0.1c-0.21,0.17-0.59,0.22-0.84,0.13
		c-0.25-0.1-0.62-0.07-0.82,0.06c-0.2,0.13-0.24,0.4-0.08,0.6c0.16,0.2,0.19,0.57,0.07,0.81l-0.26,0.51c-0.12,0.24,0,0.44,0.27,0.44
		h0.35c0.27,0,0.63-0.17,0.79-0.39l0.77-1c0.16-0.21,0.42-0.55,0.57-0.74S796.65,678.5,796.49,678.37z"/>
	<path class="st1" d="M798.56,678.8c-0.21-0.17-0.54-0.23-0.74-0.15s-0.37,0.37-0.4,0.64l-0.03,0.29c-0.03,0.27-0.2,0.65-0.39,0.84
		l-0.59,0.62c-0.19,0.2-0.17,0.5,0.04,0.67c0,0,0.42,0.34,0.48,0.32s0.93-1.16,0.93-1.16c0.16-0.21,0.46-0.54,0.66-0.72l0.46-0.41
		c0.2-0.18,0.19-0.46-0.02-0.63L798.56,678.8z"/>
	<path class="st1" d="M688.58,611.05c0.25,0,0.46-0.15,0.46-0.34c0-0.19-0.18-0.42-0.4-0.52c-0.22-0.1-0.52-0.07-0.67,0.08
		c-0.15,0.14-0.18,0.38-0.06,0.52C688.03,610.93,688.33,611.05,688.58,611.05z"/>
	<path class="st1" d="M756.33,496.63c-0.08,0.03-0.32,0.03-0.54,0c-0.22-0.03-0.47-0.25-0.57-0.48c-0.09-0.23-0.06-0.56,0.08-0.74
		c0.14-0.18,0.39-0.31,0.57-0.29c0.27,0.03,0.4,0.32,0.54,0.51c0.11,0.15,0.24,0.15,0.19,0.36
		C756.53,496.31,756.41,496.59,756.33,496.63z"/>
	<path class="st1" d="M756.87,497.24c-0.08-0.1-0.24-0.16-0.35-0.13c-0.11,0.03-0.29,0.14-0.4,0.25c-0.11,0.1-0.14,0.28-0.06,0.4
		c0.08,0.12,0.28,0.21,0.44,0.21c0.17,0,0.36-0.12,0.41-0.27C756.97,497.55,756.95,497.35,756.87,497.24z"/>
	<path class="st1" d="M758.6,511.49c0.12-0.18-0.03-0.4-0.34-0.5l-1.57-0.48c-0.31-0.09-0.82-0.1-1.13-0.02c0,0-0.33,0.09-0.17,0.09
		c0.16,0,1.08,0.83,1.08,0.83c0.24,0.22,0.7,0.4,1.02,0.4h0.29C758.11,511.82,758.47,511.67,758.6,511.49z"/>
	<path class="st1" d="M781.82,510.45c-0.32-0.05-0.84-0.02-1.15,0.06l-0.46,0.13c-0.31,0.09-0.51,0.39-0.44,0.67s0.38,0.47,0.7,0.41
		l1.29-0.22c0.32-0.05,0.66-0.28,0.77-0.51c0.1-0.22-0.08-0.45-0.4-0.51L781.82,510.45z"/>
	<path class="st1" d="M784.36,477.5c-0.12-0.11-0.4-0.07-0.62,0.08l-0.17,0.12c-0.22,0.15-0.29,0.43-0.16,0.62
		c0.13,0.19,0.45,0.24,0.69,0.13l0.03-0.01c0.24-0.11,0.44-0.32,0.44-0.47C784.57,477.82,784.47,477.61,784.36,477.5z"/>
	<path class="st1" d="M545.04,653.85c0.07-0.17-0.05-0.45-0.26-0.62l-0.1-0.08c-0.21-0.17-0.56-0.18-0.78-0.03l-0.18,0.13
		c-0.22,0.16-0.25,0.45-0.07,0.65l0.08,0.09c0.18,0.2,0.52,0.32,0.76,0.26C544.73,654.2,544.98,654.02,545.04,653.85z"/>
	<path class="st1" d="M166.9,551.28c0.14-0.21,0.2-0.55,0.15-0.76c-0.06-0.21-0.23-0.36-0.38-0.32c-0.15,0.04-0.44,0.23-0.63,0.44
		l-0.01,0.01c-0.19,0.21-0.27,0.5-0.18,0.65c0.09,0.15,0.31,0.29,0.49,0.32C166.51,551.64,166.76,551.49,166.9,551.28z"/>
	<path class="st1" d="M100.4,519.26c-0.06,0.15-0.04,0.45,0.05,0.66c0.09,0.21,0.36,0.36,0.61,0.32c0.25-0.04,0.45-0.24,0.44-0.44
		c0-0.2-0.1-0.47-0.22-0.59c-0.12-0.12-0.34-0.22-0.49-0.22C100.63,518.99,100.46,519.11,100.4,519.26z"/>
	<path class="st1" d="M171.66,449.03c-0.15-0.07-0.45,0.05-0.68,0.28l-0.95,0.95c-0.23,0.23-0.42,0.68-0.42,1.01v0.33
		c0,0.32,0.15,0.81,0.33,1.07l0.22,0.32c0.18,0.27,0.54,0.32,0.8,0.12l0.27-0.22c0.25-0.2,0.48-0.63,0.5-0.95l0.15-2.18
		C171.91,449.42,171.81,449.1,171.66,449.03z"/>
	<path class="st1" d="M171.99,454.4c-0.12-0.12-0.41-0.02-0.63,0.21l-1.6,1.68c-0.22,0.23-0.39,0.69-0.38,1.02l0.09,1.95
		c0.01,0.32,0.21,0.7,0.43,0.84c0.22,0.14,0.61,0.09,0.86-0.11l0.99-0.77c0.26-0.2,0.47-0.63,0.47-0.95v-3.08
		C172.22,454.88,172.11,454.52,171.99,454.4z"/>
	<path class="st1" d="M184.34,466.32c0.02-0.06-0.12-1.72-0.12-1.72c-0.03-0.32,0-0.79,0.06-1.04c0.06-0.25-0.09-0.5-0.33-0.55
		c-0.24-0.06-0.69-0.01-0.99,0.1l-0.33,0.12c-0.3,0.11-0.81,0.15-1.13,0.08l-1.77-0.38c-0.32-0.07-0.81,0-1.1,0.15l-0.12,0.06
		c-0.29,0.15-0.39,0.42-0.22,0.6c0.16,0.18,0.54,0.43,0.84,0.55l1.69,0.68c0.3,0.12,0.77,0.36,1.04,0.54l1.17,0.74
		c0.27,0.17,0.75,0.24,1.06,0.14L184.34,466.32z"/>
	<path class="st1" d="M183.4,468.8c0-0.16-0.13-0.43-0.3-0.59c-0.16-0.16-0.47-0.19-0.69-0.06c-0.21,0.13-0.32,0.39-0.25,0.57
		c0.08,0.19,0.27,0.39,0.43,0.46c0.16,0.07,0.4,0.08,0.54,0.02C183.29,469.15,183.4,468.97,183.4,468.8z"/>
	<path class="st1" d="M208.17,470.39c-0.16-0.1-0.55-0.25-0.86-0.35l-2.03-0.64c-0.31-0.1-0.82-0.15-1.15-0.11l-0.89,0.11
		c-0.32,0.04-0.64,0.13-0.7,0.2c-0.06,0.07-0.04,0.23,0.05,0.36c0.09,0.13,0.43,0.25,0.76,0.27l1.45,0.08
		c0.32,0.02,0.85,0.08,1.17,0.14l1.55,0.27c0.32,0.06,0.66,0.05,0.76-0.02C208.39,470.62,208.33,470.48,208.17,470.39z"/>
	<path class="st1" d="M221.4,470.68c-0.05,0.3,0.29,0.55,0.75,0.55c0.88,0,1.94,0.19,2.66-0.43c0.42-0.36,0.79-0.45,0.91-0.99
		c0.11-0.45-0.17-0.72-0.62-0.6l-0.44,0.12c-0.45,0.12-1.18,0.31-1.63,0.42l-0.73,0.17C221.86,470.04,221.45,470.37,221.4,470.68z"
		/>
	<path class="st1" d="M195.29,243.64c-0.1-0.1-0.44-0.26-0.76-0.35c-0.31-0.09-0.65,0.05-0.74,0.31c-0.09,0.26,0.04,0.56,0.29,0.67
		c0.25,0.11,0.5,0.31,0.55,0.43c0.06,0.12,0.3,0.23,0.53,0.23c0.24,0,0.4-0.25,0.37-0.55C195.5,244.08,195.39,243.74,195.29,243.64z
		"/>
	<path class="st1" d="M210.46,250.56c-0.21-0.28-0.67-0.39-1.02-0.25l-0.12,0.05c-0.35,0.14-0.53,0.46-0.41,0.71
		c0.12,0.25,0.46,0.5,0.76,0.55c0.29,0.06,0.68-0.05,0.86-0.22C210.7,251.21,210.67,250.84,210.46,250.56z"/>
	<path class="st1" d="M219.74,250.15c-0.1-0.17-0.41-0.17-0.7,0c-0.28,0.17-0.65,0.55-0.82,0.84c-0.17,0.29-0.1,0.58,0.16,0.63
		c0.26,0.06,0.74-0.05,1.07-0.23l0.11-0.06c0.33-0.19,0.54-0.46,0.48-0.6C219.98,250.57,219.85,250.32,219.74,250.15z"/>
	<path class="st1" d="M277.58,334.04c-0.18,0-0.44,0.33-0.59,0.74l-0.15,0.42c-0.15,0.41-0.02,0.99,0.28,1.3l0.88,0.9
		c0.3,0.31,0.67,0.75,0.81,0.99c0.14,0.24,0.53,0.38,0.86,0.32c0.33-0.06,0.68-0.27,0.77-0.47c0.09-0.2,0.12-0.62,0.06-0.92
		c-0.06-0.31-0.35-0.82-0.64-1.14l-1.43-1.55C278.15,334.3,277.76,334.04,277.58,334.04z"/>
	<path class="st1" d="M263.84,328.86c-0.25-0.35-0.1-0.64,0.33-0.64h0.19c0.43,0,0.84,0.35,0.9,0.78l0.08,0.55
		c0.06,0.43-0.01,0.78-0.17,0.78s-0.48-0.29-0.74-0.64L263.84,328.86z"/>
	<path class="st1" d="M255.06,342.96c0.02,0.43,0.22,0.93,0.45,1.11c0.22,0.18,0.68,0.1,1-0.18l1.4-1.19
		c0.33-0.28,0.6-0.68,0.6-0.88c0-0.21-0.26-0.61-0.58-0.9l-0.23-0.21c-0.32-0.29-0.9-0.53-1.28-0.53s-0.87,0.11-1.09,0.24
		c-0.21,0.13-0.37,0.6-0.35,1.03L255.06,342.96z"/>
	<path class="st1" d="M302.28,316.85c0.05-0.14,0.27-0.38,0.48-0.54c0.21-0.16,0.58-0.17,0.82-0.02l0.08,0.05
		c0.24,0.14,0.64,0.16,0.89,0.03l0.75-0.39c0.25-0.13,0.48-0.46,0.51-0.74l0.02-0.16c0.03-0.28-0.08-0.69-0.23-0.92l-0.85-1.23
		c-0.16-0.23-0.5-0.38-0.77-0.32c-0.26,0.05-0.63,0.27-0.81,0.48l-0.76,0.86c-0.19,0.21-0.37,0.61-0.41,0.88l-0.2,1.28
		c-0.04,0.28,0.03,0.62,0.16,0.76C302.08,316.99,302.23,316.99,302.28,316.85z"/>
	<path class="st1" d="M312.16,314.33c-0.21-0.11-0.59-0.03-0.85,0.16l-0.13,0.1c-0.26,0.19-0.44,0.57-0.41,0.83
		c0.03,0.26,0.19,0.65,0.35,0.86c0.16,0.21,0.46,0.36,0.66,0.33c0.2-0.03,0.45-0.25,0.57-0.49c0.11-0.24,0.2-0.7,0.2-1.01
		C312.54,314.78,312.37,314.43,312.16,314.33z"/>
	<path class="st1" d="M318.51,315.94c-0.08,0-0.28,0.17-0.44,0.38l-0.25,0.31c-0.17,0.21-0.23,0.59-0.15,0.85l0.02,0.05
		c0.09,0.26,0.38,0.46,0.65,0.45l0.63-0.02c0.27-0.01,0.51-0.23,0.53-0.5l0,0c0.02-0.27-0.11-0.66-0.28-0.86l-0.25-0.29
		C318.79,316.11,318.59,315.94,318.51,315.94z"/>
	<path class="st1" d="M321.82,313.2c-0.09-0.06-0.31,0.07-0.51,0.3c0,0-0.81,0.94-0.81,0.94c-0.17,0.19-0.21,0.45-0.17,0.7
		c0.04,0.26,0.19,0.4,0.43,0.53c0.24,0.13,0.66,0.16,0.93,0.05c0.27-0.11,0.47-0.43,0.44-0.72l-0.11-1.16
		C322,313.55,321.91,313.26,321.82,313.2z"/>
	<path class="st1" d="M355.4,284.68c0,0.17,0.35,0.26,0.78,0.19l1.1-0.16c0.43-0.06,0.88-0.45,1.01-0.87l0.1-0.31
		c0.13-0.41,0.11-0.84-0.05-0.95c-0.16-0.11-0.51,0.08-0.78,0.42l-0.06,0.08c-0.27,0.34-0.81,0.75-1.21,0.92l-0.17,0.07
		C355.72,284.23,355.4,284.51,355.4,284.68z"/>
	<path class="st1" d="M358.39,288.99c-0.35,0.29-1.01,0.53-1.48,0.53s-1.05,0.33-1.29,0.73s-0.05,0.69,0.42,0.64l2.17-0.22
		c0.47-0.05,1-0.41,1.18-0.82c0.17-0.4,0.16-0.88-0.02-1.07C359.18,288.61,358.74,288.69,358.39,288.99z"/>
	<path class="st1" d="M379.56,272.48c-0.16,0.13-0.12,0.37,0.1,0.53l0.3,0.21c0.22,0.16,0.62,0.24,0.88,0.2l0.18-0.03
		c0.27-0.05,0.48-0.21,0.48-0.35s-0.11-0.36-0.26-0.48s-0.48-0.23-0.74-0.26l-0.17-0.01C380.08,272.25,379.73,272.34,379.56,272.48z
		"/>
	<path class="st1" d="M452.69,309.4c0.15-0.35,0.09-0.8-0.12-1c-0.21-0.2-0.55-0.36-0.75-0.36s-0.49,0.28-0.64,0.63l-0.23,0.52
		c-0.15,0.35-0.17,0.86-0.05,1.13c0.13,0.28,0.44,0.5,0.71,0.5s0.6-0.28,0.75-0.63L452.69,309.4z"/>
	<path class="st1" d="M441.65,310.85c0.25,0.28,0.63,0.39,0.84,0.24c0.21-0.15,0.3-0.52,0.19-0.82c-0.11-0.3-0.28-0.78-0.39-1.07
		c-0.11-0.29-0.4-0.6-0.65-0.68c-0.25-0.09-0.56-0.09-0.68,0c-0.13,0.09-0.17,0.46-0.1,0.83l0.02,0.11
		c0.07,0.37,0.33,0.91,0.58,1.19L441.65,310.85z"/>
	<path class="st1" d="M390.7,306.29c0.05,0.27,0.3,0.48,0.57,0.46l1.7-0.06c0.27-0.01,0.56-0.18,0.64-0.38
		c0.08-0.2,0.06-0.56-0.06-0.8l-0.31-0.65c-0.12-0.24-0.43-0.46-0.7-0.48l-0.51-0.04c-0.27-0.02-0.63,0.13-0.81,0.34l-0.35,0.41
		c-0.17,0.21-0.28,0.59-0.23,0.86L390.7,306.29z"/>
	<path class="st1" d="M348.01,238.76c0.08-0.3-0.08-0.75-0.37-0.99l-0.11-0.1c-0.29-0.24-0.79-0.4-1.11-0.35
		c-0.32,0.05-0.79,0.27-1.04,0.49c-0.25,0.22-0.26,0.64-0.03,0.93l0.23,0.29c0.24,0.29,0.74,0.49,1.12,0.44l0.48-0.06
		C347.55,239.35,347.92,239.06,348.01,238.76z"/>
	<path class="st1" d="M137.55,396.71c0.03-0.3-0.18-0.5-0.46-0.43c-0.28,0.07-0.72,0.29-0.97,0.48l-0.57,0.44
		c-0.26,0.2-0.38,0.61-0.27,0.92l0.17,0.48c0.11,0.31,0.38,0.37,0.61,0.14l1.05-1.06C137.31,397.45,137.52,397.02,137.55,396.71z"/>
	<path class="st1" d="M176.05,406.13c-0.3,0.13-0.8,0.27-1.12,0.29l-0.26,0.02c-0.32,0.03-0.43,0.26-0.24,0.52l0.45,0.61
		c0.19,0.26,0.53,0.67,0.76,0.9l0.17,0.17c0.22,0.23,0.66,0.35,0.97,0.26l0.1-0.03c0.31-0.09,0.51-0.43,0.44-0.74
		s-0.12-0.84-0.11-1.16l0.02-0.79c0.01-0.32-0.23-0.48-0.52-0.35L176.05,406.13z"/>
	<path class="st1" d="M192.52,398.11c-0.12,0-2.23,1.25-2.23,1.25c-0.28,0.17-0.44,0.56-0.35,0.87l0.35,1.32
		c0.08,0.31,0.31,0.35,0.49,0.09l1.12-1.58c0.19-0.26,0.39-0.74,0.45-1.06L192.52,398.11z"/>
	<path class="st1" d="M200.25,396.03c0.09-0.25-0.1-0.46-0.43-0.47l-1.77-0.05c-0.32-0.01-0.56,0.25-0.53,0.57l0,0.01
		c0.03,0.32,0.27,0.74,0.54,0.93l0.11,0.08c0.26,0.19,0.69,0.2,0.96,0.01l0.46-0.32C199.87,396.63,200.16,396.27,200.25,396.03z"/>
	<path class="st1" d="M792.95,436.25c0.15,0,0.37,0.39,0.48,0.86l0.13,0.55c0.11,0.47-0.09,1.12-0.46,1.44l-0.14,0.12
		c-0.37,0.32-0.9,0.4-1.19,0.18c-0.29-0.22-0.34-0.75-0.12-1.19l0.61-1.19C792.49,436.61,792.79,436.25,792.95,436.25z"/>
	<path class="st1" d="M790.92,429.18c0.19-0.11,0-0.41-0.41-0.66l-1.3-0.8c-0.41-0.26-1.15-0.5-1.63-0.55l-1.4-0.14
		c-0.48-0.05-0.55,0.13-0.14,0.4l1.51,1.01c0.4,0.27,1.12,0.57,1.6,0.66l0.57,0.11C790.19,429.3,790.73,429.29,790.92,429.18z"/>
	<path class="st1" d="M749.48,416.37c0-0.21-0.36-0.55-0.8-0.75l-1.36-0.62c-0.44-0.2-0.96-0.37-1.16-0.37
		c-0.19,0-0.3,0.22-0.23,0.48c0.07,0.27,0.48,0.67,0.91,0.89l1.14,0.6c0.43,0.23,0.94,0.35,1.14,0.28
		C749.32,416.81,749.48,416.58,749.48,416.37z"/>
	<path class="st1" d="M632.36,398.18c-0.19-0.33-0.59-0.78-0.89-1.01l-0.33-0.24c-0.3-0.23-0.64-0.36-0.76-0.31
		c-0.11,0.06-0.05,0.37,0.13,0.7l0.88,1.55c0.19,0.33,0.49,0.87,0.66,1.2l1.39,2.59c0.18,0.33,0.35,0.3,0.39-0.08l0.08-0.84
		c0.03-0.38-0.09-0.95-0.27-1.28L632.36,398.18z"/>
	<path class="st1" d="M633.35,397.32c-0.23-0.3-0.13-0.44,0.23-0.3l0.25,0.09c0.35,0.13,0.86,0.46,1.13,0.73l0.01,0.01
		c0.27,0.27,0.52,0.78,0.56,1.13c0.04,0.35-0.07,0.79-0.25,0.97c-0.18,0.18-0.43,0.29-0.55,0.26c-0.13-0.03-0.27-0.37-0.33-0.74
		l-0.04-0.27c-0.05-0.37-0.28-0.93-0.51-1.23L633.35,397.32z"/>
	<path class="st1" d="M636.42,400.76c-0.23-0.27-0.52-0.4-0.66-0.29c-0.14,0.11-0.14,0.4,0,0.64c0.13,0.24,0.27,0.67,0.29,0.95
		c0.03,0.28,0.19,0.51,0.37,0.51s0.34-0.3,0.37-0.66C636.81,401.55,636.64,401.03,636.42,400.76z"/>
	<path class="st1" d="M636.16,403.87c0.03-0.15,0.18-0.28,0.33-0.28s0.49,0.22,0.76,0.48l1.63,1.6c0.27,0.26,0.8,0.45,1.18,0.42l0,0
		c0.38-0.03,0.77,0.09,0.88,0.28s0.02,0.6-0.18,0.91l-0.49,0.75c-0.21,0.32-0.67,0.47-1.02,0.33l-1.33-0.5
		c-0.35-0.13-0.7-0.54-0.78-0.92l-0.06-0.29c-0.07-0.37-0.26-0.96-0.42-1.3l-0.27-0.59C636.22,404.43,636.12,404.02,636.16,403.87z"
		/>
	<path class="st1" d="M640,411.59c-0.11-0.08-0.47-0.24-0.8-0.35c-0.33-0.11-0.69-0.33-0.82-0.49c-0.12-0.16-0.33-0.25-0.45-0.2
		c-0.12,0.05-0.23,0.39-0.25,0.77l-0.04,1.24c-0.01,0.38,0.1,0.97,0.25,1.32c0,0,1.32,3.05,1.44,3.05c0.12,0,0.17-0.04,0.17-0.04
		c0.29-0.25,0.53-0.76,0.55-1.13l0.12-3.33C640.19,412.04,640.11,411.67,640,411.59z"/>
	<path class="st1" d="M646.8,424.41c-0.04-0.17,0.1-0.4,0.33-0.51c0.77-0.38,2.68,0.45,3.44,0.62c0.24,0.06,0.49,0.11,0.71,0.24
		c0.21,0.13,0.37,0.32,0.53,0.5c0.42,0.49,0.85,0.99,1.27,1.48c0.64,0.74,1.29,1.04,2.06,1.56c0.49,0.33,1.62,1.18,1.72,1.8
		c0.23,1.41-2.62-0.4-3.18-0.72c-1.03-0.59-1.58-1.52-2.42-2.31c-0.48-0.45-1.08-0.75-1.72-0.87c-0.46-0.09-0.96-0.08-1.38-0.28
		C647.68,425.7,646.93,424.94,646.8,424.41z"/>
	<path class="st1" d="M564.72,386.91c-0.19,0-0.62,0.15-0.95,0.34l-0.19,0.11c-0.33,0.18-0.66,0.48-0.72,0.66
		c-0.07,0.18,0.12,0.52,0.41,0.76l0.29,0.23c0.29,0.24,0.84,0.41,1.22,0.39l0.39-0.03c0.38-0.03,0.73-0.27,0.79-0.54
		c0.06-0.27-0.07-0.75-0.29-1.06l-0.2-0.3C565.24,387.16,564.91,386.91,564.72,386.91z"/>
	<path class="st1" d="M593.36,397.4c-0.06,0.26-0.37,0.47-0.69,0.47s-0.64,0.25-0.72,0.56c-0.08,0.31-0.44,0.6-0.8,0.64
		c-0.36,0.05-0.75,0.37-0.87,0.73l-0.07,0.21c-0.12,0.36-0.12,0.94,0,1.3c0,0,0.03,0.08,0.11,0.08c0.08,0,0.44,0,0.44,0
		c0.38,0,0.74,0.29,0.81,0.65c0.07,0.36,0.22,0.65,0.35,0.65c0.12,0,0.41-0.24,0.65-0.54l0.2-0.26c0.23-0.3,0.57-0.52,0.76-0.48
		c0.19,0.03,0.42,0,0.52-0.07c0.1-0.07,0.32-0.41,0.48-0.76l0.34-0.72c0.16-0.34,0.11-0.87-0.11-1.18l-0.87-1.22
		C593.65,397.18,593.42,397.14,593.36,397.4z"/>
	<path class="st1" d="M594.31,395.98c-0.13,0.12-0.06,0.44,0.16,0.71c0.22,0.27,0.71,0.43,1.08,0.35l0.23-0.05
		c0.37-0.08,0.65-0.24,0.63-0.36c-0.02-0.12-0.33-0.33-0.69-0.45l-0.52-0.18C594.85,395.86,594.45,395.86,594.31,395.98z"/>
	<path class="st1" d="M555.56,371.69c-0.15,0.02-0.46-0.07-0.69-0.2l-0.5-0.29c-0.23-0.13-0.57-0.16-0.75-0.05
		c-0.18,0.11-0.27,0.4-0.2,0.65c0.07,0.25,0.22,0.64,0.35,0.85s0.37,0.39,0.55,0.39s0.47-0.06,0.65-0.12
		c0.18-0.07,0.42-0.13,0.53-0.14c0.11-0.01,0.34,0.15,0.5,0.37l0.38,0.49c0.17,0.21,0.52,0.42,0.79,0.45l0.33,0.04
		c0.27,0.03,0.69-0.03,0.94-0.14l0.58-0.26c0.25-0.11,0.45-0.34,0.45-0.51c0-0.17-0.15-0.47-0.33-0.67l-1.1-1.23
		c-0.18-0.2-0.47-0.37-0.65-0.37s-0.52,0.11-0.75,0.24l-0.37,0.21C556.01,371.54,555.7,371.67,555.56,371.69z"/>
	<path class="st1" d="M541.7,329.47c0.09,0.15,0.03,0.45-0.13,0.67l-0.29,0.39c-0.16,0.21-0.52,0.38-0.79,0.38l-3.28-0.09
		c-0.27-0.01-0.66-0.15-0.88-0.32l-0.55-0.43c-0.21-0.17-0.32-0.42-0.25-0.57c0.08-0.14,0.34-0.34,0.6-0.44l0.9-0.35
		c0.25-0.1,0.67-0.14,0.94-0.09l0.88,0.16c0.27,0.05,0.67,0.18,0.9,0.29c0.23,0.11,0.63,0.19,0.9,0.18l0.4-0.02
		C541.31,329.2,541.61,329.32,541.7,329.47z"/>
	<path class="st1" d="M505.14,393.84c0.23-0.15,0.29-0.45,0.13-0.67l-0.63-0.91c-0.15-0.22-0.44-0.26-0.65-0.08l0,0
		c-0.2,0.18-0.46,0.53-0.57,0.77l-0.74,1.6c-0.11,0.25-0.12,0.52-0.02,0.61c0.1,0.09,0.37,0.04,0.6-0.1L505.14,393.84z"/>
	<path class="st1" d="M513.78,337.57c0-0.27-0.22-0.45-0.48-0.4l-1.46,0.28c-0.27,0.05-0.45,0.24-0.42,0.41
		c0.03,0.18,0.17,0.51,0.31,0.75l0.49,0.84c0.14,0.23,0.39,0.36,0.57,0.29c0.18-0.08,0.41-0.34,0.52-0.59l0.28-0.64
		C513.7,338.26,513.78,337.84,513.78,337.57L513.78,337.57z"/>
	<path class="st1" d="M634.64,339.31c-0.08-0.13-0.28-0.19-0.44-0.12c-0.17,0.07-0.39,0.42-0.5,0.78l-0.05,0.18
		c-0.1,0.36,0.04,0.87,0.33,1.12l0.01,0.01c0.28,0.25,0.69,0.32,0.91,0.15c0.22-0.17,0.3-0.6,0.18-0.96l-0.09-0.26
		C634.87,339.85,634.71,339.45,634.64,339.31z"/>
	<path class="st1" d="M775.55,692.58c0.21-0.25,0.11-0.47-0.21-0.48l-1.6-0.07c-0.32-0.01-0.42,0.18-0.21,0.42l0.18,0.21
		c0.21,0.25,0.58,0.49,0.83,0.53s0.62-0.12,0.82-0.37L775.55,692.58z"/>
	<path class="st1" d="M779.68,692.53c0-0.16-0.26-0.34-0.58-0.41l-0.03-0.01c-0.32-0.07-0.79-0.09-1.05-0.06s-0.28,0.25-0.05,0.47
		l0.21,0.21c0.23,0.22,0.66,0.33,0.96,0.24S779.68,692.69,779.68,692.53z"/>
	<path class="st1" d="M427.7,492.41c0.07-0.14,0.06-0.4-0.03-0.58c-0.09-0.18-0.29-0.21-0.44-0.06l-0.75,0.73
		c-0.15,0.15-0.26,0.44-0.23,0.65c0.03,0.21,0.2,0.28,0.38,0.15l0.61-0.42C427.43,492.76,427.63,492.55,427.7,492.41z"/>
	<path class="st1" d="M428.4,489.7c-0.02,0.12,0.07,0.26,0.19,0.29c0.29,0.05,0.63-0.44,0.59-0.7c-0.02-0.11-0.11-0.15-0.21-0.09
		c0,0-0.34,0.23-0.34,0.23c-0.09,0.06-0.19,0.12-0.23,0.24C428.41,489.68,428.41,489.69,428.4,489.7z"/>
	<path class="st1" d="M425.37,558.39c0.08-0.14-0.02-0.39-0.24-0.55l-0.24-0.18c-0.22-0.16-0.61-0.26-0.88-0.22l-0.06,0.01
		c-0.27,0.04-0.38,0.24-0.26,0.44c0.13,0.2,0.33,0.46,0.44,0.57c0.12,0.11,0.41,0.2,0.64,0.2
		C425.03,558.66,425.29,558.54,425.37,558.39z"/>
	<path class="st1" d="M435.74,566.26c-0.19-0.12-0.5-0.07-0.7,0.11l-0.37,0.33c-0.2,0.18-0.35,0.49-0.32,0.69
		c0.03,0.2,0.25,0.28,0.5,0.18l0.66-0.27c0.25-0.1,0.48-0.33,0.52-0.51C436.05,566.62,435.93,566.38,435.74,566.26z"/>
</g>
<g id="レイヤー_12">
	<rect class="st2" width="1000" height="1000"/>
</g>
<g id="アジア大陸">
</g>
<g id="レイヤー_10">
</g>
<g id="文字">
	<path class="st3" d="M907.1,141.96H92.9c-27.5,0-50-22.5-50-50v0c0-27.5,22.5-50,50-50h814.2c27.5,0,50,22.5,50,50v0
		C957.1,119.46,934.6,141.96,907.1,141.96z"/>
	<g>
		<path class="st4" d="M88.41,95.11c-1.49,0-2.93-0.94-2.93-2.68v-0.2c0.1-1.94,0.15-4.27,0.15-6.75c0-3.77-0.1-7.74-0.25-10.57
			v-0.15c0-1.69,1.49-2.58,2.98-2.58c1.39,0,2.83,0.79,2.93,2.53c0.15,2.73,0.2,6.94,0.2,10.86c0,2.48,0,4.81-0.05,6.6
			C91.44,94.17,89.9,95.11,88.41,95.11z M89.8,111.73c-1.74,0-2.88-1.34-2.88-2.78c0-0.99,0.55-1.98,1.69-2.63
			c8.53-4.71,10.47-11.16,10.47-18.4c0-3.87-0.25-9.97-0.25-13.89c0-1.79,1.49-2.63,2.98-2.63c1.54,0,3.08,0.89,3.08,2.53v2.28
			c0,3.82,0.15,8.23,0.15,11.66c0,8.53-2.53,17.21-12.8,23.12C91.34,111.48,90.55,111.73,89.8,111.73z"/>
		<path class="st4" d="M151.75,81.72c2.53,0,3.57,1.24,3.57,2.53c0,1.44-1.29,2.98-3.37,2.98h-0.1c-2.88-0.1-5.9-0.15-8.93-0.15v0.6
			c0,9.57-4.02,17.51-13.1,22.72c-0.89,0.5-1.69,0.69-2.33,0.69c-1.69,0-2.73-1.24-2.73-2.58c0-0.99,0.5-1.98,1.69-2.63
			c7.54-4.12,10.81-10.22,10.81-18.01v-0.79c-2.38,0-4.76,0.05-7.09,0.1v6.94c0,1.98-1.49,2.93-2.93,2.93s-2.83-0.89-2.83-2.68v-0.2
			c0.1-1.89,0.15-4.32,0.15-6.85c-2.98,0.1-5.8,0.15-8.43,0.3h-0.25c-2.08,0-3.08-1.29-3.08-2.58c0-1.34,0.99-2.68,2.98-2.73
			c2.83-0.1,5.75-0.2,8.73-0.25c-0.05-2.13-0.1-4.12-0.2-5.7v-0.2c0-1.88,1.39-2.93,2.78-2.93c1.34,0,2.73,0.94,2.83,2.93
			c0.1,1.54,0.15,3.57,0.2,5.8l7.19-0.1c0-2.38-0.05-4.56-0.1-5.9c0-0.25-0.15-3.47,2.73-3.47c1.49,0,2.98,1.19,2.98,3.37v5.9
			c2.98-0.05,5.95-0.05,8.78-0.05H151.75z"/>
		<path class="st4" d="M173.1,107.46c0.05-3.72,0.25-11.01,0.3-16.67c-3.67,3.47-7.59,6.5-12.35,9.43
			c-1.09,0.65-2.08,0.94-2.93,0.94c-1.98,0-3.22-1.44-3.22-2.93c0-0.94,0.55-1.88,1.74-2.48c8.73-4.17,18.3-13.29,23.86-22.03
			c0.74-1.19,1.79-1.69,2.73-1.69c1.59,0,2.98,1.29,2.98,2.83c0,0.79,0,1.64-7.04,9.87c-0.1,3.27-0.15,9.77-0.15,15.28
			c0,2.93,0,5.56,0.05,7.29v0.1c0,2.18-1.59,3.37-3.13,3.37c-1.44,0-2.83-1.04-2.83-3.27V107.46z"/>
		<path class="st4" d="M194.43,94.71c-1.69,0-2.88-1.34-2.88-2.83c0-0.94,0.5-1.93,1.69-2.63c4.71-2.78,11.11-12.15,13.25-15.73
			c0.6-0.99,1.54-1.39,2.43-1.39c1.54,0,3.12,1.14,3.12,2.78c0,0.5-0.2,1.09-0.6,1.74c0.2,0,5.11-0.35,6.2-0.35
			c2.98,0,5.85,1.74,5.85,4.32c0,0.6-0.15,1.29-0.55,2.03c-6.3,11.91-12.8,21.68-26.89,27.23c-0.64,0.25-1.29,0.35-1.84,0.35
			c-1.88,0-3.12-1.34-3.12-2.78c0-1.14,0.74-2.33,2.53-2.93c15.38-5.31,22.32-20.98,22.32-21.93c0-0.6-0.4-1.14-1.14-1.14
			c-0.55,0-3.22,0.15-7.29,0.6C200.09,91.88,196.56,94.71,194.43,94.71z"/>
		<path class="st4" d="M222.75,104.53c0-1.04,0.65-2.08,2.08-2.73c6.65-2.98,11.01-9.92,11.01-18.55c0-0.45,0-0.94-0.05-1.39v-0.25
			c0-1.98,1.39-2.93,2.83-2.93s2.98,0.99,3.03,2.78v1.14c0,15.48-12.35,24.7-15.82,24.7C224.04,107.31,222.75,105.97,222.75,104.53z
			 M250.68,80.87l-0.55,16.02v0.15c0,0.5,0.15,0.69,0.45,0.69c0.65,0,6.05-2.63,11.21-12.15c0.65-1.24,1.64-1.74,2.58-1.74
			c1.54,0,3.03,1.29,3.03,2.98c0,0.5-0.15,1.04-0.45,1.59c-5.41,9.67-14.68,16.52-18.55,16.52c-2.23,0-4.07-1.49-4.07-4.46v-0.6
			c0.35-4.46,0.69-16.12,0.69-19c0-2.03,1.44-3.08,2.83-3.08c1.44,0,2.83,1.04,2.83,3.03V80.87z"/>
		<path class="st4" d="M292,78.09c0.69-0.25,1.19-0.64,1.89-0.99c0.79-0.4,1.54-0.6,2.18-0.6c1.74,0,2.78,1.34,2.78,2.78
			c0,2.08-1.29,2.63-5.46,4.32c1.04,1.74,2.13,3.42,3.12,4.96c0.79,1.14,3.77,6.15,3.77,8.68c0,2.13-1.29,3.12-2.88,3.12
			c-0.94,0-1.98-0.35-2.98-0.99c-0.6-0.4-2.28-1.49-8.68-1.49c-3.42,0-7.34,0.55-7.34,2.93c0,2.63,6.25,3.57,9.97,3.57
			c0.45,0,0.89-0.05,1.39-0.05c2.18-0.1,3.72,0.89,3.72,2.73c0,1.54-1.39,3.17-4.02,3.17c-4.91,0-16.52-1.44-16.52-9.52
			c0-3.22,2.23-6.3,6.9-7.19c2.43-0.5,4.81-0.6,6.94-0.6c2.08,0,3.87,0.1,5.11,0.15c0.45,0,0.6-0.15,0.6-0.45
			c0-0.4-0.35-1.44-0.99-2.53c-0.84-1.44-1.93-3.17-3.08-4.96c-3.72,0.74-5.46,0.89-7.09,0.89c-3.57,0-8.98-1.04-8.98-4.46
			c0-1.34,0.89-2.58,2.43-2.58c0.55,0,1.09,0.15,1.74,0.45c1.74,0.84,3.27,1.19,4.91,1.19c1.19,0,2.43-0.15,3.87-0.5
			c-2.88-4.71-3.03-5.31-3.03-6.25c0-1.64,1.39-2.58,2.78-2.58c1.29,0,2.63,0.74,3.08,2.43c0.25,0.99,1.14,2.78,2.33,4.91L292,78.09
			z"/>
		<path class="st4" d="M315.87,100.42l-1.84,3.47c-0.84,1.44-1.98,2.03-3.08,2.03c-1.24,0-2.83-0.84-2.83-2.58
			c0-0.65,0.25-1.34,0.89-2.13c0.1-0.15,0.25-0.3,0.45-0.45c0.79-1.04,5.31-7.09,7.14-10.52c0.05-0.89,0.15-1.74,0.25-2.63
			c-0.89,0.3-1.88,0.69-3.17,1.54c-0.69,0.45-1.34,0.65-1.88,0.65c-1.44,0-2.28-1.29-2.28-2.58c0-2.13,1.04-2.53,7.84-5.21
			c0.35-3.62,0.74-6.8,0.99-8.93c0.2-1.64,1.34-2.33,2.53-2.33c1.34,0,2.68,0.89,2.68,2.38c0,0.15,0,0.35-0.05,0.5
			c-0.3,1.64-0.65,3.92-0.94,6.55h0.25c1.19,0,2.38,0.99,2.38,2.68v0.4c5.46-4.56,8.33-4.96,10.17-4.96c3.08,0,5.31,2.08,5.31,7.24
			c0,0.4,0,0.79-0.05,1.24c-0.2,2.93-0.99,8.14-1.24,10.91c-0.05,0.4-0.05,0.74-0.05,1.09c0,1.84,0.55,2.63,1.44,2.63
			c0.94,0,2.28-0.94,3.72-2.43c0.69-0.74,1.49-1.04,2.13-1.04c1.49,0,2.68,1.34,2.68,2.83c0,0.69-0.25,1.39-0.79,1.98
			c-2.73,2.98-5.9,4.51-8.53,4.51c-3.47,0-6.1-2.48-6.1-7.74c0-0.6,0.05-1.19,0.1-1.84c0.25-2.58,1.14-7.94,1.29-10.91
			c0-0.3,0.05-0.6,0.05-0.89c0-1.34-0.25-2.53-1.44-2.53c-2.53,0-9.77,6.75-12.45,9.57c-0.1,2.03-0.2,4.07-0.2,6
			c0,3.17,0.2,6.05,0.6,8.38c0.05,0.2,0.05,0.4,0.05,0.6c0,1.79-1.44,2.88-2.93,2.88c-2.98,0-2.98-3.37-2.98-7.09
			c0-1.14,0-2.33,0.05-3.62L315.87,100.42z"/>
		<path class="st4" d="M371,76.41c5.95-1.74,10.22-2.88,13.79-2.88c2.63,0,3.67,1.74,3.67,3.32c0,1.79-1.09,2.88-4.27,2.88
			c-0.35,0-0.69,0-1.14-0.05h-0.69c-2.58,0-5.21,0.89-6.55,1.39c-3.22,1.14-7.94,5.8-7.94,11.91c0,5.31,3.67,10.27,10.76,10.27h0.55
			c3.27-0.1,4.61,1.74,4.61,3.27c0,1.54-1.34,3.08-4.27,3.08c-10.67,0-16.97-7.44-16.97-15.87c0-5.36,2.48-9.08,3.27-10.17
			c0.3-0.4,0.45-0.65,0.45-0.74s-0.05-0.15-0.2-0.15c-0.15,0-0.4,0.05-0.69,0.15c-2.33,0.6-3.57,1.69-5.41,2.43
			c-3.42,1.44-4.66,1.69-5.51,1.69c-2.13,0-3.32-1.64-3.32-3.27c0-1.34,0.84-2.68,2.68-3.08C355.97,80.18,363.06,78.64,371,76.41z"
			/>
		<path class="st4" d="M393.64,87.17c-0.15-2.33-0.25-3.37-0.25-4.66v-0.84c0.05-1.84,1.59-2.98,3.08-2.98
			c1.04,0,2.73,0.6,2.73,3.57c0,0.99-0.05,1.74-0.05,2.73c0,10.27,3.97,14.14,5.11,14.14c0.1,0,0.99,0,2.73-3.67
			c0.5-1.09,1.39-1.54,2.28-1.54c1.49,0,3.03,1.19,3.03,2.78c0,1.04-2.88,8.78-8.19,8.78C399.25,105.48,394.39,98.53,393.64,87.17z
			 M425.84,94.37c-0.79-3.87-2.78-7.79-5.31-9.52c-0.74-0.5-1.04-1.14-1.04-1.79c0-1.24,1.14-2.43,2.68-2.43
			c3.12,0,9.67,7.99,9.67,12.9c0,2.03-1.64,3.22-3.22,3.22C427.37,96.75,426.18,96,425.84,94.37z"/>
		<path class="st4" d="M462.24,97.44c0-4.61-4.66-5.21-6.9-5.21c-4.81,0-9.52,2.63-11.51,5.65c-0.55,0.84-1.34,1.19-2.18,1.19
			c-1.54,0-3.12-1.19-3.12-2.73c0-0.69,0.35-1.44,1.09-2.18c5.41-5.36,8.63-8.19,14.48-15.38c0.2-0.25,0.3-0.4,0.3-0.45
			c0-0.05-0.05-0.05-0.1-0.05c-0.1,0-0.35,0.15-0.55,0.25c-2.28,1.39-7.79,2.68-8.53,2.68c-1.89,0-2.88-1.39-2.88-2.73
			c0-1.14,0.74-2.28,2.38-2.48c3.27-0.4,7.64-1.64,10.62-2.53c0.6-0.15,1.14-0.25,1.69-0.25c2.58,0,4.66,1.84,4.66,3.82
			c0,1.39-0.74,2.43-6.6,7.69c-1.93,1.69-3.67,3.17-5.41,4.76c2.13-1.14,4.56-1.69,6.9-1.69c5.8,0,11.31,3.47,11.31,9.43
			c0,5.51-4.81,12.35-14.98,12.35c-5.95,0-9.77-2.93-9.77-6.55c0-2.13,1.79-5.41,6.5-5.41c3.97,0,7.64,2.38,7.89,6.5
			C459.46,103.44,462.24,100.71,462.24,97.44z M452.81,105.03c0-1.84-1.19-3.37-3.08-3.37c-1.24,0-1.93,0.6-1.93,1.34
			c0,1.59,2.53,2.13,5.01,2.13V105.03z"/>
		<path class="st4" d="M502.5,98.23c-3.17-2.68-6.15-5.51-9.82-8.28c-1.19-0.89-2.28-1.34-3.27-1.34c-0.89,0-1.74,0.35-2.53,0.99
			c-6.35,5.16-7.99,6.2-9.67,6.2c-1.79,0-3.13-1.54-3.13-3.12c0-1.14,0.69-2.28,2.38-2.98c1.19-0.45,4.02-2.08,7.39-4.46
			c1.94-1.39,3.77-1.98,5.56-1.98c2.18,0,4.27,0.89,6.2,2.33c3.97,2.93,13.49,9.92,18.7,13.34c0.89,0.6,1.29,1.39,1.29,2.23
			c0,1.74-1.59,3.52-3.52,3.52C510.83,104.68,509.34,103.99,502.5,98.23z M504.04,86.73c-3.03,0-5.46-2.43-5.46-5.46
			c0-3.03,2.43-5.51,5.46-5.51s5.51,2.48,5.51,5.51C509.54,84.3,507.06,86.73,504.04,86.73z M504.04,78.84
			c-1.34,0-2.38,1.09-2.38,2.43s1.04,2.43,2.38,2.43s2.48-1.09,2.48-2.43S505.38,78.84,504.04,78.84z"/>
		<path class="st4" d="M528.08,97.49c-0.84,0-1.69-0.45-2.23-1.54c-0.69-1.34-1.64-2.63-2.68-3.52c-0.55-0.45-0.79-0.99-0.79-1.54
			c0-1.24,1.14-2.38,2.53-2.38c2.08,0,5.85,4.66,5.85,6.45C530.75,96.4,529.42,97.49,528.08,97.49z M527.23,110.88
			c-1.59,0-2.53-1.24-2.53-2.48c0-0.94,0.5-1.88,1.64-2.33c8.14-3.37,13.29-10.27,15.28-18.4c0.35-1.44,1.39-2.03,2.48-2.03
			c1.44,0,2.98,1.04,2.98,2.68c0,0.25-2.78,15.23-18.3,22.22C528.22,110.79,527.68,110.88,527.23,110.88z M534.77,95.16
			c-0.99,0-1.93-0.6-2.38-1.89c-0.5-1.44-1.24-2.93-2.13-3.92c-0.4-0.45-0.6-0.94-0.6-1.44c0-1.19,1.19-2.28,2.53-2.28
			c0.69,0,1.44,0.35,2.08,1.09c0.89,1.09,3.17,4.12,3.17,5.9C537.45,94.12,536.11,95.16,534.77,95.16z"/>
		<path class="st4" d="M563.11,107.51c0.05,2.28-1.54,3.57-3.17,3.57c-1.49,0-2.93-1.04-2.93-3.12v-0.2
			c0.25-5.56,0.4-16.52,0.4-25.1c0-3.77-0.05-7.04-0.1-9.23c-0.05-2.03,1.54-2.88,2.93-2.88c1.49,0,2.98,0.94,2.98,2.83v0.1
			l-0.15,11.21c1.14,0,9.23,1.49,12.45,4.27c0.79,0.69,1.14,1.54,1.14,2.43c0,1.69-1.34,3.32-2.98,3.32c-0.55,0-1.14-0.2-1.74-0.64
			c-1.98-1.49-6.35-3.27-8.93-3.87C563.01,96.85,563.01,103.59,563.11,107.51z"/>
		<path class="st4" d="M582.6,101.21c0-0.84,0.35-1.69,1.29-2.28c2.33-1.49,5.06-4.66,6.2-6.6c0.55-0.94,1.34-1.29,2.18-1.29
			c1.34,0,2.63,0.99,2.63,2.43c0,0.5-0.1,0.99-0.45,1.54c-0.89,1.49-5.8,9.23-8.98,9.23C583.84,104.24,582.6,102.7,582.6,101.21z
			 M604.53,75.91c-0.05,1.44-0.05,3.57-0.1,6c1.84-0.05,3.67-0.05,5.46-0.05c1.84,0,3.62,0,5.36,0.05c2.08,0,3.08,1.34,3.08,2.63
			c0,1.39-1.04,2.73-3.08,2.73h-0.2c-3.52-0.15-7.09-0.2-10.67-0.2c0,1.39-0.05,2.83-0.05,4.27c0,2.43,0.05,4.86,0.15,6.99
			c0.05,1.59,0.05,2.33,0.05,3.72c0,3.22-1.29,6.3-6.7,6.3c-1.98,0-5.9-0.2-5.9-3.13c0-1.49,1.14-2.93,2.73-2.93
			c0.3,0,0.6,0.05,0.89,0.15c0.64,0.2,1.34,0.4,1.98,0.4c0.94,0,1.69-0.45,1.69-1.93V87.12c-3.82,0.1-7.64,0.25-11.46,0.4h-0.15
			c-1.89,0-2.88-1.34-2.88-2.68c0-1.24,0.89-2.53,2.88-2.58c3.82-0.15,7.74-0.25,11.61-0.3c0-2.43-0.05-4.46-0.1-5.8v-0.1
			c0-1.98,1.34-2.93,2.68-2.93c1.34,0,2.73,0.99,2.73,2.73V75.91z M615.24,101.66c-1.49-2.33-4.91-5.26-6.85-6.4
			c-0.84-0.5-1.19-1.19-1.19-1.93c0-1.29,1.14-2.63,2.73-2.63c2.03,0,10.42,6,10.42,9.08c0,1.69-1.49,3.12-3.03,3.12
			C616.58,102.9,615.84,102.55,615.24,101.66z M612.62,79.43c-0.4-0.79-2.43-3.22-3.17-3.82c-0.69-0.55-0.99-1.14-0.99-1.69
			c0-1.09,1.14-2.03,2.38-2.03c1.84,0,6.1,4.12,6.1,6.05c0,1.44-1.39,2.63-2.63,2.63C613.66,80.57,613.01,80.23,612.62,79.43z
			 M620.85,77.75c-0.6,0-1.24-0.3-1.64-1.04c-0.4-0.79-2.48-3.17-3.27-3.72c-0.74-0.55-1.04-1.14-1.04-1.74
			c0-1.09,1.09-2.03,2.33-2.03c2.18,0,5.66,4.27,5.85,4.61c0.25,0.45,0.4,0.89,0.4,1.34C623.48,76.61,622.14,77.75,620.85,77.75z"/>
		<path class="st4" d="M639.9,107.51c0.05,2.28-1.54,3.57-3.17,3.57c-1.49,0-2.93-1.04-2.93-3.12v-0.2c0.25-5.56,0.4-16.52,0.4-25.1
			c0-3.77-0.05-7.04-0.1-9.23c-0.05-2.03,1.54-2.88,2.93-2.88c1.49,0,2.98,0.94,2.98,2.83v0.1l-0.15,11.21
			c1.14,0,9.23,1.49,12.45,4.27c0.79,0.69,1.14,1.54,1.14,2.43c0,1.69-1.34,3.32-2.98,3.32c-0.55,0-1.14-0.2-1.74-0.64
			c-1.98-1.49-6.35-3.27-8.93-3.87C639.8,96.85,639.8,103.59,639.9,107.51z"/>
		<path class="st4" d="M654.09,104.53c0-1.04,0.65-2.08,2.08-2.73c6.65-2.98,11.01-9.92,11.01-18.55c0-0.45,0-0.94-0.05-1.39v-0.25
			c0-1.98,1.39-2.93,2.83-2.93s2.98,0.99,3.03,2.78v1.14c0,15.48-12.35,24.7-15.82,24.7C655.38,107.31,654.09,105.97,654.09,104.53z
			 M682.01,80.87l-0.55,16.02v0.15c0,0.5,0.15,0.69,0.45,0.69c0.65,0,6.05-2.63,11.21-12.15c0.65-1.24,1.64-1.74,2.58-1.74
			c1.54,0,3.03,1.29,3.03,2.98c0,0.5-0.15,1.04-0.45,1.59c-5.41,9.67-14.68,16.52-18.55,16.52c-2.23,0-4.07-1.49-4.07-4.46v-0.6
			c0.35-4.46,0.69-16.12,0.69-19c0-2.03,1.44-3.08,2.83-3.08c1.44,0,2.83,1.04,2.83,3.03V80.87z"/>
		<path class="st4" d="M723.05,82.76c0,4.02-4.56,15.08-10.12,20.24c-1.44,1.34-2.98,1.94-4.42,1.94c-3.47,0-7.44-3.87-7.44-9.97
			c0-8.14,7.09-18.6,20.29-18.6c10.12,0,16.72,6.9,16.72,15.08c0,12.75-13.39,17.02-15.97,17.02c-2.08,0-3.32-1.39-3.32-2.83
			c0-1.24,0.89-2.48,2.88-2.93c7.74-1.79,10.71-6.6,10.71-11.61c0-4.61-3.12-9.52-10.07-10.22
			C722.8,81.37,723.05,81.96,723.05,82.76z M706.33,94.46c0,2.13,0.94,4.27,2.38,4.27c2.33,0,7.89-9.28,8.48-15.92
			c0.05-0.6,0.2-1.14,0.45-1.59C709.56,83.25,706.33,90.69,706.33,94.46z"/>
		<path class="st4" d="M743.74,95.46c-1.34,0-1.98-1.04-1.98-2.08c0-1.04,0.65-2.03,1.93-2.03h0.05l7.99,0.1v-2.28l-4.66,0.05
			c-1.24,0-1.88-0.89-1.88-1.79c0-0.84,0.65-1.74,1.88-1.74l4.61,0.05V83.6l-5.26,0.05c-1.19,0-1.84-0.74-1.98-1.54
			c-1.24,0-2.53-0.6-2.58-1.98c0-0.74-0.05-1.59-0.05-2.38c0-2.38,0.45-4.96,5.11-5.01h4.46l-0.05-2.83v-0.05
			c0-1.44,1.39-2.13,2.78-2.13c1.44,0,2.83,0.74,2.83,2.13v0.05l-0.05,2.83h4.86c2.73,0,4.86,1.44,4.86,4.17
			c0,0.69,0.05,1.59,0.05,2.43c0,0.74,0,2.53-2.38,2.63c-0.1,0.84-0.74,1.69-1.93,1.69l-5.7-0.05v2.13l4.91-0.05
			c1.29,0,1.88,0.89,1.88,1.74c0,0.89-0.6,1.79-1.88,1.79l-4.96-0.05v2.28l8.23-0.1h0.05c1.34,0,1.98,0.99,1.98,2.03
			c0,1.04-0.69,2.08-2.03,2.08H743.74z M754.66,110.54c-9.18,0-10.12-0.2-10.12-7.39c0-2.73,0-5.9,4.32-6.05
			c1.34-0.05,2.98-0.1,4.66-0.1c2.08,0,4.17,0.05,5.75,0.1c2.28,0.1,4.37,1.39,4.56,3.72c0.1,1.09,0.15,2.33,0.15,3.57
			C763.98,109.64,763.04,110.54,754.66,110.54z M761.7,78.19c0-1.49-0.25-1.49-5.16-1.49c-2.93,0-6.55,0.05-7.89,0.05
			c-1.59,0-1.79,0.55-1.79,1.39v1.79l4.76,0.05v-0.69c0-1.49,1.29-2.18,2.53-2.18c1.29,0,2.53,0.69,2.53,2.13v0.74l5.01-0.05V78.19z
			 M754.66,101.11c-4.81,0-5.01,0-5.01,2.68c0,1.98,0.1,2.38,4.56,2.38c4.46,0,4.71-0.35,4.71-2.18
			C758.92,101.11,758.63,101.11,754.66,101.11z M782.73,104.48v0.1c0,3.42-2.13,6.9-8.43,6.9c-3.97,0-6.2-0.6-6.2-3.12
			c0-1.44,0.94-2.83,2.48-2.83c0.2,0,0.4,0,0.6,0.05c0.74,0.15,2.13,0.55,3.32,0.55c1.39,0,2.63-0.5,2.63-2.43l0.1-32.34
			c0-1.74,1.34-2.58,2.73-2.58c1.34,0,2.68,0.84,2.68,2.58v26.94L782.73,104.48z M768.45,73.88c0-1.74,1.29-2.58,2.58-2.58
			c1.29,0,2.63,0.89,2.63,2.58v25.15c0,1.64-1.29,2.43-2.63,2.43c-1.29,0-2.58-0.79-2.58-2.43V73.88z"/>
		<path class="st4" d="M798.97,87.92c-1.79,0-2.63-1.24-2.63-2.48c0-0.2,0.05-0.45,0.1-0.64c-5.75,5.46-7.09,5.95-8.33,5.95
			c-1.84,0-3.17-1.44-3.17-2.93c0-0.84,0.45-1.74,1.54-2.38c5.16-3.12,11.61-9.67,15.13-14.29c1.24-1.69,2.93-2.43,4.66-2.43
			c1.79,0,3.67,0.84,5.11,2.43c4.51,4.86,10.07,9.33,15.72,12.7c0.84,0.5,1.24,1.24,1.24,2.03c0,1.64-1.64,3.42-3.57,3.42
			c-1.29,0-2.48-0.74-6.99-4.61c0.05,0.25,0.1,0.5,0.1,0.74c0,1.24-0.84,2.48-2.63,2.48H798.97z M815.49,110.09
			c-2.88,0.1-5.8,0.15-8.73,0.15c-2.88,0-5.75-0.05-8.48-0.15c-3.67-0.15-5.61-2.18-5.75-5.21c-0.05-0.89-0.05-1.93-0.05-2.98
			c0-1.44,0-2.88,0.05-4.02c0.1-2.38,1.59-4.86,5.65-5.01c2.08-0.05,4.66-0.1,7.44-0.1c3.37,0,6.95,0.05,10.12,0.1
			c3.52,0.05,5.21,1.98,5.36,4.56c0.05,1.04,0.1,2.28,0.1,3.57c0,1.29-0.05,2.58-0.1,3.82
			C820.94,108.06,819.11,109.99,815.49,110.09z M815.63,101.71c0-0.89,0-1.84-0.05-2.63c-0.1-1.64-0.79-1.69-8.09-1.69
			c-2.63,0-5.31,0.05-7.64,0.1c-2.03,0.1-2.03,1.54-2.03,3.92c0,0.79,0,1.59,0.05,2.13c0.2,1.74,0.45,1.74,8.78,1.74
			c2.33,0,4.76-0.05,7-0.1C815.39,105.08,815.63,104.58,815.63,101.71z M815.19,82.91c0.2,0,0.4,0,0.6,0.05
			c-2.83-2.58-5.66-5.46-7.89-7.99c-0.5-0.55-0.84-0.84-1.19-0.84s-0.64,0.3-1.09,0.84c-1.88,2.43-4.61,5.36-7.34,8.04
			c0.2-0.05,0.45-0.1,0.69-0.1H815.19z"/>
	</g>
	<g>
		<path d="M846.83,103.25c-0.89,0-7.24-3.62-7.24-11.48c0-7.81,6.3-11.38,7.09-11.38c0.42,0,0.69,0.32,0.69,0.67
			c0,0.22-0.12,0.47-0.42,0.62c-4.09,2.08-6.1,6.08-6.1,10.09c0,4.09,2.08,8.21,6.12,10.34c0.27,0.12,0.4,0.37,0.4,0.62
			C847.38,103,847.18,103.25,846.83,103.25z"/>
		<path d="M850.38,101.37c-0.87,0-1.39-0.65-1.39-1.46c0-0.55,0.22-1.14,0.72-1.69c1.71-1.93,4.59-4.88,6.77-7.56
			c0.99-1.19,1.39-2.28,1.39-3.17c0-1.56-1.19-2.53-2.58-2.53c-1.07,0-2.23,0.57-3.05,1.91c-0.32,0.52-0.82,0.74-1.29,0.74
			c-0.74,0-1.46-0.55-1.46-1.31c0-0.87,1.88-3.82,5.78-3.82c2.88,0,5.6,1.79,5.6,4.74c0,1.41-0.59,3.05-2.06,4.91
			c-1.88,2.38-4.31,4.49-6.37,6.72c2.06-0.02,4.86-0.22,6.89-0.22c1.02,0,1.49,0.64,1.49,1.29c0,0.72-0.54,1.46-1.56,1.46H850.38z"
			/>
		<path d="M862.84,95.24c-0.1-1.07-0.15-2.11-0.15-3.15c0-0.94,0.05-1.91,0.12-2.93c0.35-4.31,2.7-6.69,6.08-6.69
			c3.32,0,5.65,2.28,6.05,6.42c0.1,1.09,0.17,2.18,0.17,3.25c0,2.8-0.22,9.55-6.22,9.55C865.59,101.69,863.23,99.41,862.84,95.24z
			 M872.06,95.34c0.15-1.09,0.22-2.31,0.22-3.5c0-1.91,0-6.82-3.4-6.82c-1.74,0-3.05,1.59-3.3,4.24c-0.07,0.92-0.12,1.83-0.12,2.73
			c0,1.04,0.05,2.08,0.17,3.1c0.3,2.53,1.64,3.99,3.25,3.99C870.42,99.09,871.71,97.7,872.06,95.34z"/>
		<path d="M882.08,101.52c-0.72,0-1.46-0.47-1.46-1.36c0-2.31,0.1-7.59,0.1-10.86c0-3.47-0.12-3.74-0.97-3.74c-0.07,0-0.15,0-0.22,0
			c-0.05,0-0.07,0-0.12,0c-0.84,0-1.26-0.64-1.26-1.31c0-0.72,0.45-1.44,1.29-1.51c0.5-0.02,0.69-0.02,1.21-0.02
			c1.71,0,2.8,1.02,2.88,2.65c0.02,0.32,0.02,0.77,0.02,1.31c0,1.98-0.07,5.31-0.07,8.85c0,1.54,0,3.1,0.05,4.64
			c0,0.02,0,0.02,0,0.05C883.51,101.07,882.79,101.52,882.08,101.52z"/>
		<path d="M890.44,100.08c0-0.37,0.2-0.77,0.67-1.09c2.63-1.71,5.08-4.88,5.08-5.48c0-0.05-0.03-0.07-0.07-0.07
			c-0.05,0-0.08,0.02-0.15,0.05c-0.87,0.42-1.76,0.6-2.6,0.6c-2.68,0-5.7-1.81-5.7-5.6c0-3.07,2.23-5.98,6.22-5.98
			c3.4,0,6.25,2.38,6.25,6.37c0,2.06-0.74,4.17-1.69,5.93c-0.99,1.83-4.79,6.65-6.57,6.65
			C891.08,101.44,890.44,100.77,890.44,100.08z M893.86,84.98c-1.88,0-3.67,1.26-3.67,3.42c0,2.33,1.88,3.3,3.55,3.3
			c2.33,0,3.72-1.66,3.72-3.45C897.46,86.27,895.85,84.98,893.86,84.98z"/>
		<path d="M915.58,97.03v4.96c0,0.67-0.59,1.02-1.21,1.02c-0.59,0-1.19-0.35-1.19-1.02v-4.96h-9.37c-0.82,0-1.19-0.52-1.19-1.07
			c0-0.57,0.42-1.17,1.19-1.17h3.4c0-0.82,0.02-1.74,0.07-3.5c0.03-1.12,0.69-2.38,2.73-2.38h3.17v-2.85h-3.94
			c-0.97,1.49-2.06,2.83-3.03,3.77c-0.35,0.32-0.72,0.47-1.04,0.47c-0.67,0-1.24-0.55-1.24-1.17c0-0.3,0.12-0.6,0.42-0.87
			c1.91-1.79,3.35-4.02,4.49-6.79c0.22-0.52,0.64-0.74,1.09-0.74c0.69,0,1.41,0.52,1.41,1.21c0,0.37-0.2,0.79-0.82,1.93h10.96
			c0.79,0,1.19,0.55,1.19,1.09s-0.4,1.09-1.19,1.09h-5.9v2.85c1.51,0,3.05,0.02,4.54,0.02c0.82,0.02,1.24,0.57,1.24,1.12
			c0,0.55-0.4,1.07-1.21,1.07h-0.02c-1.44-0.02-3.03-0.05-4.54-0.05v3.72h7.34c0.74,0,1.14,0.57,1.14,1.14
			c0,0.55-0.37,1.09-1.14,1.09H915.58z M913.17,91.1h-2.41c-0.84,0-1.07,0.42-1.09,0.94c-0.02,0.77-0.05,1.83-0.07,2.75h3.57V91.1z"
			/>
		<path d="M925.94,102.73c0-0.25,0.12-0.5,0.4-0.62c4.04-2.13,6.12-6.25,6.12-10.34c0-4.02-2.01-8.01-6.1-10.09
			c-0.3-0.15-0.42-0.4-0.42-0.62c0-0.35,0.27-0.67,0.69-0.67c0.79,0,7.09,3.57,7.09,11.38c0,7.86-6.35,11.48-7.24,11.48
			C926.14,103.25,925.94,103,925.94,102.73z"/>
	</g>
	<rect x="83.83" y="171" class="st5" width="555" height="761.65"/>
	<rect x="108.83" y="196" class="st6" width="505" height="450.61"/>
	<g>
		<path class="st3" d="M292.89,228.79H280.8v-4c0-1.67,1.35-3.01,3.01-3.01h6.05c1.67,0,3.01,1.35,3.01,3.01V228.79z"/>
		<rect x="280.8" y="231.94" class="st3" width="12.08" height="5.79"/>
		<path class="st3" d="M296.57,293.19h-19.45c-3.09,0-5.6-2.51-5.6-5.6v-40.12c0-6.12,4.96-11.09,11.09-11.09h8.48
			c6.12,0,11.09,4.96,11.09,11.09v40.12C302.17,290.69,299.66,293.19,296.57,293.19z"/>
	</g>
	<g>
		<path class="st3" d="M339.99,228.79h-12.08v-4c0-1.67,1.35-3.01,3.01-3.01h6.05c1.67,0,3.01,1.35,3.01,3.01V228.79z"/>
		<rect x="327.91" y="231.94" class="st3" width="12.08" height="5.79"/>
		<path class="st3" d="M343.68,293.19h-19.45c-3.09,0-5.6-2.51-5.6-5.6v-40.12c0-6.12,4.96-11.09,11.09-11.09h8.48
			c6.12,0,11.09,4.96,11.09,11.09v40.12C349.28,290.69,346.77,293.19,343.68,293.19z"/>
	</g>
	<g>
		<path class="st3" d="M198.67,228.79h-12.08v-4c0-1.67,1.35-3.01,3.01-3.01h6.05c1.66,0,3.01,1.35,3.01,3.01V228.79z"/>
		<rect x="186.58" y="231.94" class="st3" width="12.08" height="5.79"/>
		<path class="st3" d="M202.35,293.19H182.9c-3.09,0-5.6-2.51-5.6-5.6v-40.12c0-6.12,4.96-11.09,11.09-11.09h8.48
			c6.12,0,11.09,4.96,11.09,11.09v40.12C207.95,290.69,205.45,293.19,202.35,293.19z"/>
	</g>
	<g>
		<path class="st3" d="M245.78,228.79h-12.08v-4c0-1.67,1.35-3.01,3.01-3.01h6.05c1.66,0,3.01,1.35,3.01,3.01V228.79z"/>
		<rect x="233.69" y="231.94" class="st3" width="12.08" height="5.79"/>
		<path class="st3" d="M249.46,293.19h-19.45c-3.09,0-5.6-2.51-5.6-5.6v-40.12c0-6.12,4.96-11.09,11.09-11.09h8.48
			c6.12,0,11.09,4.96,11.09,11.09v40.12C255.06,290.69,252.56,293.19,249.46,293.19z"/>
	</g>
	<g>
		<path class="st3" d="M387.1,228.79h-12.08v-4c0-1.67,1.35-3.01,3.01-3.01h6.05c1.67,0,3.01,1.35,3.01,3.01V228.79z"/>
		<rect x="375.02" y="231.94" class="st3" width="12.08" height="5.79"/>
		<path class="st3" d="M390.79,293.19h-19.45c-3.09,0-5.6-2.51-5.6-5.6v-40.12c0-6.12,4.96-11.09,11.09-11.09h8.48
			c6.12,0,11.09,4.96,11.09,11.09v40.12C396.39,290.69,393.88,293.19,390.79,293.19z"/>
	</g>
	<g>
		<path class="st3" d="M434.21,228.79h-12.08v-4c0-1.67,1.35-3.01,3.01-3.01h6.05c1.67,0,3.01,1.35,3.01,3.01V228.79z"/>
		<rect x="422.13" y="231.94" class="st3" width="12.08" height="5.79"/>
		<path class="st3" d="M437.9,293.19h-19.45c-3.09,0-5.6-2.51-5.6-5.6v-40.12c0-6.12,4.96-11.09,11.09-11.09h8.48
			c6.12,0,11.09,4.96,11.09,11.09v40.12C443.5,290.69,440.99,293.19,437.9,293.19z"/>
	</g>
	<g>
		<path class="st3" d="M481.32,228.79h-12.08v-4c0-1.67,1.35-3.01,3.01-3.01h6.05c1.67,0,3.01,1.35,3.01,3.01V228.79z"/>
		<rect x="469.24" y="231.94" class="st3" width="12.08" height="5.79"/>
		<path class="st3" d="M485.01,293.19h-19.45c-3.09,0-5.6-2.51-5.6-5.6v-40.12c0-6.12,4.96-11.09,11.09-11.09h8.48
			c6.12,0,11.09,4.96,11.09,11.09v40.12C490.61,290.69,488.1,293.19,485.01,293.19z"/>
	</g>
	<g>
		<path class="st3" d="M528.43,228.79h-12.08v-4c0-1.67,1.35-3.01,3.01-3.01h6.05c1.67,0,3.01,1.35,3.01,3.01V228.79z"/>
		<rect x="516.35" y="231.94" class="st3" width="12.08" height="5.79"/>
		<path class="st3" d="M532.12,293.19h-19.45c-3.09,0-5.6-2.51-5.6-5.6v-40.12c0-6.12,4.96-11.09,11.09-11.09h8.48
			c6.12,0,11.09,4.96,11.09,11.09v40.12C537.72,290.69,535.21,293.19,532.12,293.19z"/>
	</g>
	<g>
		<path class="st3" d="M575.54,228.79h-12.08v-4c0-1.67,1.35-3.01,3.01-3.01h6.05c1.66,0,3.01,1.35,3.01,3.01V228.79z"/>
		<rect x="563.46" y="231.94" class="st3" width="12.08" height="5.79"/>
		<path class="st3" d="M579.23,293.19h-19.45c-3.09,0-5.6-2.51-5.6-5.6v-40.12c0-6.12,4.96-11.09,11.09-11.09h8.48
			c6.12,0,11.09,4.96,11.09,11.09v40.12C584.83,290.69,582.32,293.19,579.23,293.19z"/>
	</g>
	<g>
		<path class="st3" d="M151.56,228.79h-12.08v-4c0-1.67,1.35-3.01,3.01-3.01h6.05c1.66,0,3.01,1.35,3.01,3.01V228.79z"/>
		<rect x="139.47" y="231.94" class="st3" width="12.08" height="5.79"/>
		<path class="st3" d="M155.24,293.19h-19.45c-3.09,0-5.6-2.51-5.6-5.6v-40.12c0-6.12,4.96-11.09,11.09-11.09h8.48
			c6.12,0,11.09,4.96,11.09,11.09v40.12C160.84,290.69,158.34,293.19,155.24,293.19z"/>
	</g>
	<g>
		<path class="st3" d="M292.89,309.87H280.8v-4c0-1.67,1.35-3.01,3.01-3.01h6.05c1.67,0,3.01,1.35,3.01,3.01V309.87z"/>
		<rect x="280.8" y="313.02" class="st3" width="12.08" height="5.79"/>
		<path class="st3" d="M296.57,374.27h-19.45c-3.09,0-5.6-2.51-5.6-5.6v-40.12c0-6.12,4.96-11.09,11.09-11.09h8.48
			c6.12,0,11.09,4.96,11.09,11.09v40.12C302.17,371.77,299.66,374.27,296.57,374.27z"/>
	</g>
	<g>
		<path class="st3" d="M339.99,309.87h-12.08v-4c0-1.67,1.35-3.01,3.01-3.01h6.05c1.67,0,3.01,1.35,3.01,3.01V309.87z"/>
		<rect x="327.91" y="313.02" class="st3" width="12.08" height="5.79"/>
		<path class="st3" d="M343.68,374.27h-19.45c-3.09,0-5.6-2.51-5.6-5.6v-40.12c0-6.12,4.96-11.09,11.09-11.09h8.48
			c6.12,0,11.09,4.96,11.09,11.09v40.12C349.28,371.77,346.77,374.27,343.68,374.27z"/>
	</g>
	<g>
		<path class="st3" d="M198.67,309.87h-12.08v-4c0-1.67,1.35-3.01,3.01-3.01h6.05c1.66,0,3.01,1.35,3.01,3.01V309.87z"/>
		<rect x="186.58" y="313.02" class="st3" width="12.08" height="5.79"/>
		<path class="st3" d="M202.35,374.27H182.9c-3.09,0-5.6-2.51-5.6-5.6v-40.12c0-6.12,4.96-11.09,11.09-11.09h8.48
			c6.12,0,11.09,4.96,11.09,11.09v40.12C207.95,371.77,205.45,374.27,202.35,374.27z"/>
	</g>
	<g>
		<path class="st3" d="M245.78,309.87h-12.08v-4c0-1.67,1.35-3.01,3.01-3.01h6.05c1.66,0,3.01,1.35,3.01,3.01V309.87z"/>
		<rect x="233.69" y="313.02" class="st3" width="12.08" height="5.79"/>
		<path class="st3" d="M249.46,374.27h-19.45c-3.09,0-5.6-2.51-5.6-5.6v-40.12c0-6.12,4.96-11.09,11.09-11.09h8.48
			c6.12,0,11.09,4.96,11.09,11.09v40.12C255.06,371.77,252.56,374.27,249.46,374.27z"/>
	</g>
	<g>
		<path class="st3" d="M387.1,309.87h-12.08v-4c0-1.67,1.35-3.01,3.01-3.01h6.05c1.67,0,3.01,1.35,3.01,3.01V309.87z"/>
		<rect x="375.02" y="313.02" class="st3" width="12.08" height="5.79"/>
		<path class="st3" d="M390.79,374.27h-19.45c-3.09,0-5.6-2.51-5.6-5.6v-40.12c0-6.12,4.96-11.09,11.09-11.09h8.48
			c6.12,0,11.09,4.96,11.09,11.09v40.12C396.39,371.77,393.88,374.27,390.79,374.27z"/>
	</g>
	<g>
		<path class="st3" d="M434.21,309.87h-12.08v-4c0-1.67,1.35-3.01,3.01-3.01h6.05c1.67,0,3.01,1.35,3.01,3.01V309.87z"/>
		<rect x="422.13" y="313.02" class="st3" width="12.08" height="5.79"/>
		<path class="st3" d="M437.9,374.27h-19.45c-3.09,0-5.6-2.51-5.6-5.6v-40.12c0-6.12,4.96-11.09,11.09-11.09h8.48
			c6.12,0,11.09,4.96,11.09,11.09v40.12C443.5,371.77,440.99,374.27,437.9,374.27z"/>
	</g>
	<g>
		<path class="st3" d="M481.32,309.87h-12.08v-4c0-1.67,1.35-3.01,3.01-3.01h6.05c1.67,0,3.01,1.35,3.01,3.01V309.87z"/>
		<rect x="469.24" y="313.02" class="st3" width="12.08" height="5.79"/>
		<path class="st3" d="M485.01,374.27h-19.45c-3.09,0-5.6-2.51-5.6-5.6v-40.12c0-6.12,4.96-11.09,11.09-11.09h8.48
			c6.12,0,11.09,4.96,11.09,11.09v40.12C490.61,371.77,488.1,374.27,485.01,374.27z"/>
	</g>
	<g>
		<path class="st3" d="M528.43,309.87h-12.08v-4c0-1.67,1.35-3.01,3.01-3.01h6.05c1.67,0,3.01,1.35,3.01,3.01V309.87z"/>
		<rect x="516.35" y="313.02" class="st3" width="12.08" height="5.79"/>
		<path class="st3" d="M532.12,374.27h-19.45c-3.09,0-5.6-2.51-5.6-5.6v-40.12c0-6.12,4.96-11.09,11.09-11.09h8.48
			c6.12,0,11.09,4.96,11.09,11.09v40.12C537.72,371.77,535.21,374.27,532.12,374.27z"/>
	</g>
	<g>
		<path class="st3" d="M575.54,309.87h-12.08v-4c0-1.67,1.35-3.01,3.01-3.01h6.05c1.66,0,3.01,1.35,3.01,3.01V309.87z"/>
		<rect x="563.46" y="313.02" class="st3" width="12.08" height="5.79"/>
		<path class="st3" d="M579.23,374.27h-19.45c-3.09,0-5.6-2.51-5.6-5.6v-40.12c0-6.12,4.96-11.09,11.09-11.09h8.48
			c6.12,0,11.09,4.96,11.09,11.09v40.12C584.83,371.77,582.32,374.27,579.23,374.27z"/>
	</g>
	<g>
		<path class="st3" d="M151.56,309.87h-12.08v-4c0-1.67,1.35-3.01,3.01-3.01h6.05c1.66,0,3.01,1.35,3.01,3.01V309.87z"/>
		<rect x="139.47" y="313.02" class="st3" width="12.08" height="5.79"/>
		<path class="st3" d="M155.24,374.27h-19.45c-3.09,0-5.6-2.51-5.6-5.6v-40.12c0-6.12,4.96-11.09,11.09-11.09h8.48
			c6.12,0,11.09,4.96,11.09,11.09v40.12C160.84,371.77,158.34,374.27,155.24,374.27z"/>
	</g>
	<g>
		<path class="st3" d="M292.89,390.95H280.8v-4c0-1.67,1.35-3.01,3.01-3.01h6.05c1.67,0,3.01,1.35,3.01,3.01V390.95z"/>
		<rect x="280.8" y="394.1" class="st3" width="12.08" height="5.79"/>
		<path class="st3" d="M296.57,455.35h-19.45c-3.09,0-5.6-2.51-5.6-5.6v-40.12c0-6.12,4.96-11.09,11.09-11.09h8.48
			c6.12,0,11.09,4.96,11.09,11.09v40.12C302.17,452.85,299.66,455.35,296.57,455.35z"/>
	</g>
	<g>
		<path class="st3" d="M339.99,390.95h-12.08v-4c0-1.67,1.35-3.01,3.01-3.01h6.05c1.67,0,3.01,1.35,3.01,3.01V390.95z"/>
		<rect x="327.91" y="394.1" class="st3" width="12.08" height="5.79"/>
		<path class="st3" d="M343.68,455.35h-19.45c-3.09,0-5.6-2.51-5.6-5.6v-40.12c0-6.12,4.96-11.09,11.09-11.09h8.48
			c6.12,0,11.09,4.96,11.09,11.09v40.12C349.28,452.85,346.77,455.35,343.68,455.35z"/>
	</g>
	<g>
		<path class="st3" d="M198.67,390.95h-12.08v-4c0-1.67,1.35-3.01,3.01-3.01h6.05c1.66,0,3.01,1.35,3.01,3.01V390.95z"/>
		<rect x="186.58" y="394.1" class="st3" width="12.08" height="5.79"/>
		<path class="st3" d="M202.35,455.35H182.9c-3.09,0-5.6-2.51-5.6-5.6v-40.12c0-6.12,4.96-11.09,11.09-11.09h8.48
			c6.12,0,11.09,4.96,11.09,11.09v40.12C207.95,452.85,205.45,455.35,202.35,455.35z"/>
	</g>
	<g>
		<path class="st3" d="M245.78,390.95h-12.08v-4c0-1.67,1.35-3.01,3.01-3.01h6.05c1.66,0,3.01,1.35,3.01,3.01V390.95z"/>
		<rect x="233.69" y="394.1" class="st3" width="12.08" height="5.79"/>
		<path class="st3" d="M249.46,455.35h-19.45c-3.09,0-5.6-2.51-5.6-5.6v-40.12c0-6.12,4.96-11.09,11.09-11.09h8.48
			c6.12,0,11.09,4.96,11.09,11.09v40.12C255.06,452.85,252.56,455.35,249.46,455.35z"/>
	</g>
	<g>
		<path class="st3" d="M387.1,390.95h-12.08v-4c0-1.67,1.35-3.01,3.01-3.01h6.05c1.67,0,3.01,1.35,3.01,3.01V390.95z"/>
		<rect x="375.02" y="394.1" class="st3" width="12.08" height="5.79"/>
		<path class="st3" d="M390.79,455.35h-19.45c-3.09,0-5.6-2.51-5.6-5.6v-40.12c0-6.12,4.96-11.09,11.09-11.09h8.48
			c6.12,0,11.09,4.96,11.09,11.09v40.12C396.39,452.85,393.88,455.35,390.79,455.35z"/>
	</g>
	<g>
		<path class="st3" d="M434.21,390.95h-12.08v-4c0-1.67,1.35-3.01,3.01-3.01h6.05c1.67,0,3.01,1.35,3.01,3.01V390.95z"/>
		<rect x="422.13" y="394.1" class="st3" width="12.08" height="5.79"/>
		<path class="st3" d="M437.9,455.35h-19.45c-3.09,0-5.6-2.51-5.6-5.6v-40.12c0-6.12,4.96-11.09,11.09-11.09h8.48
			c6.12,0,11.09,4.96,11.09,11.09v40.12C443.5,452.85,440.99,455.35,437.9,455.35z"/>
	</g>
	<g>
		<path class="st3" d="M481.32,390.95h-12.08v-4c0-1.67,1.35-3.01,3.01-3.01h6.05c1.67,0,3.01,1.35,3.01,3.01V390.95z"/>
		<rect x="469.24" y="394.1" class="st3" width="12.08" height="5.79"/>
		<path class="st3" d="M485.01,455.35h-19.45c-3.09,0-5.6-2.51-5.6-5.6v-40.12c0-6.12,4.96-11.09,11.09-11.09h8.48
			c6.12,0,11.09,4.96,11.09,11.09v40.12C490.61,452.85,488.1,455.35,485.01,455.35z"/>
	</g>
	<g>
		<path class="st3" d="M528.43,390.95h-12.08v-4c0-1.67,1.35-3.01,3.01-3.01h6.05c1.67,0,3.01,1.35,3.01,3.01V390.95z"/>
		<rect x="516.35" y="394.1" class="st3" width="12.08" height="5.79"/>
		<path class="st3" d="M532.12,455.35h-19.45c-3.09,0-5.6-2.51-5.6-5.6v-40.12c0-6.12,4.96-11.09,11.09-11.09h8.48
			c6.12,0,11.09,4.96,11.09,11.09v40.12C537.72,452.85,535.21,455.35,532.12,455.35z"/>
	</g>
	<g>
		<path class="st3" d="M575.54,390.95h-12.08v-4c0-1.67,1.35-3.01,3.01-3.01h6.05c1.66,0,3.01,1.35,3.01,3.01V390.95z"/>
		<rect x="563.46" y="394.1" class="st3" width="12.08" height="5.79"/>
		<path class="st3" d="M579.23,455.35h-19.45c-3.09,0-5.6-2.51-5.6-5.6v-40.12c0-6.12,4.96-11.09,11.09-11.09h8.48
			c6.12,0,11.09,4.96,11.09,11.09v40.12C584.83,452.85,582.32,455.35,579.23,455.35z"/>
	</g>
	<g>
		<path class="st3" d="M151.56,390.95h-12.08v-4c0-1.67,1.35-3.01,3.01-3.01h6.05c1.66,0,3.01,1.35,3.01,3.01V390.95z"/>
		<rect x="139.47" y="394.1" class="st3" width="12.08" height="5.79"/>
		<path class="st3" d="M155.24,455.35h-19.45c-3.09,0-5.6-2.51-5.6-5.6v-40.12c0-6.12,4.96-11.09,11.09-11.09h8.48
			c6.12,0,11.09,4.96,11.09,11.09v40.12C160.84,452.85,158.34,455.35,155.24,455.35z"/>
	</g>
	<g>
		<path class="st3" d="M292.89,472.03H280.8v-4c0-1.67,1.35-3.01,3.01-3.01h6.05c1.67,0,3.01,1.35,3.01,3.01V472.03z"/>
		<rect x="280.8" y="475.18" class="st3" width="12.08" height="5.79"/>
		<path class="st3" d="M296.57,536.43h-19.45c-3.09,0-5.6-2.51-5.6-5.6v-40.12c0-6.12,4.96-11.09,11.09-11.09h8.48
			c6.12,0,11.09,4.96,11.09,11.09v40.12C302.17,533.92,299.66,536.43,296.57,536.43z"/>
	</g>
	<g>
		<path class="st3" d="M339.99,472.03h-12.08v-4c0-1.67,1.35-3.01,3.01-3.01h6.05c1.67,0,3.01,1.35,3.01,3.01V472.03z"/>
		<rect x="327.91" y="475.18" class="st3" width="12.08" height="5.79"/>
		<path class="st3" d="M343.68,536.43h-19.45c-3.09,0-5.6-2.51-5.6-5.6v-40.12c0-6.12,4.96-11.09,11.09-11.09h8.48
			c6.12,0,11.09,4.96,11.09,11.09v40.12C349.28,533.92,346.77,536.43,343.68,536.43z"/>
	</g>
	<g>
		<path class="st3" d="M198.67,472.03h-12.08v-4c0-1.67,1.35-3.01,3.01-3.01h6.05c1.66,0,3.01,1.35,3.01,3.01V472.03z"/>
		<rect x="186.58" y="475.18" class="st3" width="12.08" height="5.79"/>
		<path class="st3" d="M202.35,536.43H182.9c-3.09,0-5.6-2.51-5.6-5.6v-40.12c0-6.12,4.96-11.09,11.09-11.09h8.48
			c6.12,0,11.09,4.96,11.09,11.09v40.12C207.95,533.92,205.45,536.43,202.35,536.43z"/>
	</g>
	<g>
		<path class="st3" d="M245.78,472.03h-12.08v-4c0-1.67,1.35-3.01,3.01-3.01h6.05c1.66,0,3.01,1.35,3.01,3.01V472.03z"/>
		<rect x="233.69" y="475.18" class="st3" width="12.08" height="5.79"/>
		<path class="st3" d="M249.46,536.43h-19.45c-3.09,0-5.6-2.51-5.6-5.6v-40.12c0-6.12,4.96-11.09,11.09-11.09h8.48
			c6.12,0,11.09,4.96,11.09,11.09v40.12C255.06,533.92,252.56,536.43,249.46,536.43z"/>
	</g>
	<g>
		<path class="st3" d="M387.1,472.03h-12.08v-4c0-1.67,1.35-3.01,3.01-3.01h6.05c1.67,0,3.01,1.35,3.01,3.01V472.03z"/>
		<rect x="375.02" y="475.18" class="st3" width="12.08" height="5.79"/>
		<path class="st3" d="M390.79,536.43h-19.45c-3.09,0-5.6-2.51-5.6-5.6v-40.12c0-6.12,4.96-11.09,11.09-11.09h8.48
			c6.12,0,11.09,4.96,11.09,11.09v40.12C396.39,533.92,393.88,536.43,390.79,536.43z"/>
	</g>
	<g>
		<path class="st3" d="M434.21,472.03h-12.08v-4c0-1.67,1.35-3.01,3.01-3.01h6.05c1.67,0,3.01,1.35,3.01,3.01V472.03z"/>
		<rect x="422.13" y="475.18" class="st3" width="12.08" height="5.79"/>
		<path class="st3" d="M437.9,536.43h-19.45c-3.09,0-5.6-2.51-5.6-5.6v-40.12c0-6.12,4.96-11.09,11.09-11.09h8.48
			c6.12,0,11.09,4.96,11.09,11.09v40.12C443.5,533.92,440.99,536.43,437.9,536.43z"/>
	</g>
	<g>
		<path class="st3" d="M481.32,472.03h-12.08v-4c0-1.67,1.35-3.01,3.01-3.01h6.05c1.67,0,3.01,1.35,3.01,3.01V472.03z"/>
		<rect x="469.24" y="475.18" class="st3" width="12.08" height="5.79"/>
		<path class="st3" d="M485.01,536.43h-19.45c-3.09,0-5.6-2.51-5.6-5.6v-40.12c0-6.12,4.96-11.09,11.09-11.09h8.48
			c6.12,0,11.09,4.96,11.09,11.09v40.12C490.61,533.92,488.1,536.43,485.01,536.43z"/>
	</g>
	<g>
		<path class="st3" d="M528.43,472.03h-12.08v-4c0-1.67,1.35-3.01,3.01-3.01h6.05c1.67,0,3.01,1.35,3.01,3.01V472.03z"/>
		<rect x="516.35" y="475.18" class="st3" width="12.08" height="5.79"/>
		<path class="st3" d="M532.12,536.43h-19.45c-3.09,0-5.6-2.51-5.6-5.6v-40.12c0-6.12,4.96-11.09,11.09-11.09h8.48
			c6.12,0,11.09,4.96,11.09,11.09v40.12C537.72,533.92,535.21,536.43,532.12,536.43z"/>
	</g>
	<g>
		<path class="st3" d="M575.54,472.03h-12.08v-4c0-1.67,1.35-3.01,3.01-3.01h6.05c1.66,0,3.01,1.35,3.01,3.01V472.03z"/>
		<rect x="563.46" y="475.18" class="st3" width="12.08" height="5.79"/>
		<path class="st3" d="M579.23,536.43h-19.45c-3.09,0-5.6-2.51-5.6-5.6v-40.12c0-6.12,4.96-11.09,11.09-11.09h8.48
			c6.12,0,11.09,4.96,11.09,11.09v40.12C584.83,533.92,582.32,536.43,579.23,536.43z"/>
	</g>
	<g>
		<path class="st3" d="M151.56,472.03h-12.08v-4c0-1.67,1.35-3.01,3.01-3.01h6.05c1.66,0,3.01,1.35,3.01,3.01V472.03z"/>
		<rect x="139.47" y="475.18" class="st3" width="12.08" height="5.79"/>
		<path class="st3" d="M155.24,536.43h-19.45c-3.09,0-5.6-2.51-5.6-5.6v-40.12c0-6.12,4.96-11.09,11.09-11.09h8.48
			c6.12,0,11.09,4.96,11.09,11.09v40.12C160.84,533.92,158.34,536.43,155.24,536.43z"/>
	</g>
	<g>
		<path class="st7" d="M292.89,553.11H280.8v-4c0-1.67,1.35-3.01,3.01-3.01h6.05c1.67,0,3.01,1.35,3.01,3.01V553.11z"/>
		<rect x="280.8" y="556.26" class="st7" width="12.08" height="5.79"/>
		<path class="st7" d="M296.57,617.51h-19.45c-3.09,0-5.6-2.51-5.6-5.6v-40.12c0-6.12,4.96-11.09,11.09-11.09h8.48
			c6.12,0,11.09,4.96,11.09,11.09v40.12C302.17,615,299.66,617.51,296.57,617.51z"/>
	</g>
	<g>
		<path class="st7" d="M339.99,553.11h-12.08v-4c0-1.67,1.35-3.01,3.01-3.01h6.05c1.67,0,3.01,1.35,3.01,3.01V553.11z"/>
		<rect x="327.91" y="556.26" class="st7" width="12.08" height="5.79"/>
		<path class="st7" d="M343.68,617.51h-19.45c-3.09,0-5.6-2.51-5.6-5.6v-40.12c0-6.12,4.96-11.09,11.09-11.09h8.48
			c6.12,0,11.09,4.96,11.09,11.09v40.12C349.28,615,346.77,617.51,343.68,617.51z"/>
	</g>
	<g>
		<path class="st3" d="M198.67,553.11h-12.08v-4c0-1.67,1.35-3.01,3.01-3.01h6.05c1.66,0,3.01,1.35,3.01,3.01V553.11z"/>
		<rect x="186.58" y="556.26" class="st3" width="12.08" height="5.79"/>
		<path class="st3" d="M202.35,617.51H182.9c-3.09,0-5.6-2.51-5.6-5.6v-40.12c0-6.12,4.96-11.09,11.09-11.09h8.48
			c6.12,0,11.09,4.96,11.09,11.09v40.12C207.95,615,205.45,617.51,202.35,617.51z"/>
	</g>
	<g>
		<path class="st3" d="M245.78,553.11h-12.08v-4c0-1.67,1.35-3.01,3.01-3.01h6.05c1.66,0,3.01,1.35,3.01,3.01V553.11z"/>
		<rect x="233.69" y="556.26" class="st3" width="12.08" height="5.79"/>
		<path class="st3" d="M249.46,617.51h-19.45c-3.09,0-5.6-2.51-5.6-5.6v-40.12c0-6.12,4.96-11.09,11.09-11.09h8.48
			c6.12,0,11.09,4.96,11.09,11.09v40.12C255.06,615,252.56,617.51,249.46,617.51z"/>
	</g>
	<g>
		<path class="st7" d="M387.1,553.11h-12.08v-4c0-1.67,1.35-3.01,3.01-3.01h6.05c1.67,0,3.01,1.35,3.01,3.01V553.11z"/>
		<rect x="375.02" y="556.26" class="st7" width="12.08" height="5.79"/>
		<path class="st7" d="M390.79,617.51h-19.45c-3.09,0-5.6-2.51-5.6-5.6v-40.12c0-6.12,4.96-11.09,11.09-11.09h8.48
			c6.12,0,11.09,4.96,11.09,11.09v40.12C396.39,615,393.88,617.51,390.79,617.51z"/>
	</g>
	<g>
		<path class="st7" d="M434.21,553.11h-12.08v-4c0-1.67,1.35-3.01,3.01-3.01h6.05c1.67,0,3.01,1.35,3.01,3.01V553.11z"/>
		<rect x="422.13" y="556.26" class="st7" width="12.08" height="5.79"/>
		<path class="st7" d="M437.9,617.51h-19.45c-3.09,0-5.6-2.51-5.6-5.6v-40.12c0-6.12,4.96-11.09,11.09-11.09h8.48
			c6.12,0,11.09,4.96,11.09,11.09v40.12C443.5,615,440.99,617.51,437.9,617.51z"/>
	</g>
	<g>
		<path class="st7" d="M481.32,553.11h-12.08v-4c0-1.67,1.35-3.01,3.01-3.01h6.05c1.67,0,3.01,1.35,3.01,3.01V553.11z"/>
		<rect x="469.24" y="556.26" class="st7" width="12.08" height="5.79"/>
		<path class="st7" d="M485.01,617.51h-19.45c-3.09,0-5.6-2.51-5.6-5.6v-40.12c0-6.12,4.96-11.09,11.09-11.09h8.48
			c6.12,0,11.09,4.96,11.09,11.09v40.12C490.61,615,488.1,617.51,485.01,617.51z"/>
	</g>
	<g>
		<path class="st7" d="M528.43,553.11h-12.08v-4c0-1.67,1.35-3.01,3.01-3.01h6.05c1.67,0,3.01,1.35,3.01,3.01V553.11z"/>
		<rect x="516.35" y="556.26" class="st7" width="12.08" height="5.79"/>
		<path class="st7" d="M532.12,617.51h-19.45c-3.09,0-5.6-2.51-5.6-5.6v-40.12c0-6.12,4.96-11.09,11.09-11.09h8.48
			c6.12,0,11.09,4.96,11.09,11.09v40.12C537.72,615,535.21,617.51,532.12,617.51z"/>
	</g>
	<g>
		<path class="st7" d="M575.54,553.11h-12.08v-4c0-1.67,1.35-3.01,3.01-3.01h6.05c1.66,0,3.01,1.35,3.01,3.01V553.11z"/>
		<rect x="563.46" y="556.26" class="st7" width="12.08" height="5.79"/>
		<path class="st7" d="M579.23,617.51h-19.45c-3.09,0-5.6-2.51-5.6-5.6v-40.12c0-6.12,4.96-11.09,11.09-11.09h8.48
			c6.12,0,11.09,4.96,11.09,11.09v40.12C584.83,615,582.32,617.51,579.23,617.51z"/>
	</g>
	<g>
		<path class="st3" d="M151.56,553.11h-12.08v-4c0-1.67,1.35-3.01,3.01-3.01h6.05c1.66,0,3.01,1.35,3.01,3.01V553.11z"/>
		<rect x="139.47" y="556.26" class="st3" width="12.08" height="5.79"/>
		<path class="st3" d="M155.24,617.51h-19.45c-3.09,0-5.6-2.51-5.6-5.6v-40.12c0-6.12,4.96-11.09,11.09-11.09h8.48
			c6.12,0,11.09,4.96,11.09,11.09v40.12C160.84,615,158.34,617.51,155.24,617.51z"/>
	</g>
	<g>
		<polygon class="st7" points="714.82,574.91 593.93,581.2 696.15,516.35 734.76,536.3 		"/>
	</g>
	<g>
		<path class="st7" d="M905.7,631.03H722.69c-28.39,0-51.4-23.01-51.4-51.4v-261.9c0-28.39,23.01-51.4,51.4-51.4H905.7
			c28.39,0,51.4,23.01,51.4,51.4v261.9C957.1,608.01,934.09,631.03,905.7,631.03z"/>
		<g>
			<path d="M725.26,333.83c0-0.34,0.14-0.71,0.54-1.02c1.11-0.91,1.79-1.84,2.38-3.18c0.23-0.48,0.62-0.71,1.05-0.71
				c0.77,0,1.56,0.65,1.56,1.47c0,0.94-2.38,4.82-3.94,4.82C726.02,335.22,725.26,334.57,725.26,333.83z M731.04,328.59
				c-0.68,0-1.36-0.03-1.87-0.06c-1.3-0.11-2.1-1.16-2.1-2.67c-0.03-1.96-0.03-4.59-0.03-7.06c0-1.81,0-3.52,0.03-4.82
				c0.03-1.39,0.71-2.44,2.07-2.52c0.43-0.03,0.96-0.06,1.53-0.06c0.85,0,1.76,0.03,2.35,0.06c1.25,0.06,2.24,1.08,2.27,2.38
				c0.03,1.59,0.06,3.51,0.06,5.47c0,2.38-0.03,4.79-0.06,6.58C735.24,328.5,733.45,328.59,731.04,328.59z M732.6,316.4l-0.06-1.87
				c-0.06-0.62-0.34-0.68-1.39-0.68c-1.19,0-1.39,0.08-1.39,0.71c-0.03,0.51-0.06,1.13-0.06,1.84H732.6z M732.63,318.78h-2.92v2.35
				h2.92V318.78z M729.71,323.48c0,0.71,0.06,1.36,0.06,1.9c0,0.54,0.23,0.71,1.28,0.71c0.96,0,1.45,0,1.5-0.77l0.06-1.84H729.71z
				 M734.84,331.53c1.87-3.2,2.24-7,2.24-10.66c0-2.15-0.11-4.25-0.14-6.18c0-1.67,0.96-2.69,2.98-2.75
				c1.39-0.03,2.81-0.06,4.2-0.06c1.67,0,3.32,0.03,4.82,0.06c0.96,0.03,1.47,0.74,1.47,1.42s-0.51,1.36-1.47,1.36h-0.03
				c-1.79-0.03-3.52-0.08-5.22-0.08c-0.96,0-1.93,0.03-2.83,0.06c-0.74,0.03-0.91,0.42-0.91,0.96c0,0.76-0.03,1.56-0.03,2.41
				c2.13,0,5.44,0.03,6.86,0.03c1.45,0,2.32,0.71,2.32,2.27c0,1.73-1.36,5.73-2.92,8.31c1.11,1.36,2.47,2.47,4.08,3.06
				c0.71,0.26,1.02,0.82,1.02,1.39c0,0.85-0.68,1.73-1.76,1.73c-1.25,0-3.15-1.33-4.99-3.8c-2.15,2.64-4.56,3.97-5.44,3.97
				c-0.94,0-1.53-0.77-1.53-1.56c0-0.51,0.28-1.02,0.91-1.3c1.73-0.79,3.2-2.16,4.39-3.74c-1.36-2.52-2.35-5.39-2.49-7.83h-0.48
				c-0.08,4.45-0.54,9.47-2.95,13.18c-0.34,0.54-0.85,0.76-1.33,0.76c-0.77,0-1.47-0.54-1.59-1.22c-0.2,0.11-0.43,0.14-0.65,0.14
				c-0.45,0-0.91-0.25-1.08-0.88c-0.23-0.77-0.37-1.39-0.74-1.9c-0.17-0.23-0.25-0.48-0.25-0.68c0-0.65,0.62-1.13,1.3-1.13
				c1.13,0,1.98,1.79,2.21,2.55L734.84,331.53z M742.81,320.59c0.28,1.76,0.79,3.57,1.62,5.27c1.19-2.44,1.56-4.42,1.56-4.73
				c0-0.31-0.14-0.54-0.51-0.54H742.81z"/>
			<path d="M754.68,335.16c-1.11,0-1.73-0.88-1.73-1.67c0-0.68,0.45-1.33,1.39-1.42c4.62-0.51,6.58-2.69,6.72-7.09
				c0.03-1.02,0.74-1.47,1.45-1.47c0.79,0,1.62,0.54,1.62,1.42c0,2.69-0.96,9.16-9.16,10.21
				C754.87,335.14,754.76,335.16,754.68,335.16z M773.73,324.22c0-0.82-0.08-1.36-1.3-1.39c-2.35-0.03-5.27-0.06-8.08-0.06
				c-2.04,0-4,0-5.61,0.06c-1.3,0.03-1.42,0.45-1.47,1.16v0.99c0,0.85-0.79,1.3-1.59,1.3c-1.53,0-1.56-1.16-1.56-2.18
				c0-1.36,0.03-3.8,3.06-3.83c2.78-0.06,5.81-0.08,8.82-0.08c2.61,0,5.22,0.03,7.65,0.08c1.45,0.03,3.29,0.82,3.35,2.75
				c0.03,0.34,0.03,0.74,0.03,1.16c0,0.96,0,2.3-1.7,2.3c-0.79,0-1.59-0.45-1.59-1.36V324.22z M757.71,318.92
				c-0.88,0-1.33-0.62-1.33-1.25c0-0.6,0.45-1.22,1.33-1.22l6.18,0.03v-1.59l-8.39,0.03c-0.88,0-1.33-0.65-1.33-1.33
				c0-0.65,0.45-1.3,1.33-1.3l8.39,0.03v-1.28c0-1.11,0.85-1.64,1.7-1.64c0.85,0,1.7,0.54,1.7,1.64v1.28l8.34-0.03
				c0.85,0,1.28,0.65,1.28,1.3c0,0.68-0.43,1.33-1.28,1.33l-8.34-0.03v1.59l6.12-0.03c0.85,0,1.28,0.62,1.28,1.25
				c0,0.6-0.43,1.22-1.28,1.22H757.71z M771.43,331.87c1.42,0,3.2-0.11,3.2-2.15c0-0.94,0.74-1.36,1.47-1.36
				c0.57,0,1.73,0.25,1.73,1.53c0,4.71-3.94,4.82-6.49,4.82c-3.63,0-5.36-0.57-5.36-3.4c0-0.4,0.06-6.24,0.06-6.44
				c0.06-0.94,0.82-1.39,1.59-1.39c0.74,0,1.5,0.45,1.5,1.36c0,0.71-0.06,5.47-0.06,5.87C769.13,331.62,769.76,331.87,771.43,331.87
				z"/>
			<path d="M793.82,315.97c0.4-0.14,0.68-0.37,1.08-0.57c0.45-0.23,0.88-0.34,1.25-0.34c0.99,0,1.59,0.77,1.59,1.59
				c0,1.19-0.74,1.5-3.12,2.47c0.6,0.99,1.22,1.96,1.79,2.84c0.45,0.65,2.15,3.51,2.15,4.96c0,1.22-0.74,1.79-1.64,1.79
				c-0.54,0-1.13-0.2-1.7-0.57c-0.34-0.23-1.3-0.85-4.96-0.85c-1.96,0-4.2,0.31-4.2,1.67c0,1.5,3.57,2.04,5.7,2.04
				c0.25,0,0.51-0.03,0.79-0.03c1.25-0.06,2.13,0.51,2.13,1.56c0,0.88-0.79,1.81-2.3,1.81c-2.81,0-9.44-0.82-9.44-5.44
				c0-1.84,1.28-3.6,3.94-4.11c1.39-0.28,2.75-0.34,3.97-0.34c1.19,0,2.21,0.06,2.92,0.08c0.26,0,0.34-0.08,0.34-0.25
				c0-0.23-0.2-0.82-0.57-1.45c-0.48-0.82-1.11-1.81-1.76-2.84c-2.13,0.43-3.12,0.51-4.05,0.51c-2.04,0-5.13-0.6-5.13-2.55
				c0-0.77,0.51-1.47,1.39-1.47c0.31,0,0.62,0.08,0.99,0.25c0.99,0.48,1.87,0.68,2.81,0.68c0.68,0,1.39-0.09,2.21-0.28
				c-1.64-2.69-1.73-3.03-1.73-3.57c0-0.94,0.79-1.47,1.59-1.47c0.74,0,1.5,0.42,1.76,1.39c0.14,0.57,0.65,1.59,1.33,2.81
				L793.82,315.97z"/>
			<path d="M808.88,328.73l-1.05,1.98c-0.48,0.82-1.13,1.16-1.76,1.16c-0.71,0-1.62-0.48-1.62-1.47c0-0.37,0.14-0.77,0.51-1.22
				c0.06-0.09,0.14-0.17,0.25-0.26c0.45-0.59,3.03-4.05,4.08-6.01c0.03-0.51,0.09-0.99,0.14-1.5c-0.51,0.17-1.08,0.4-1.81,0.88
				c-0.4,0.25-0.77,0.37-1.08,0.37c-0.82,0-1.3-0.74-1.3-1.47c0-1.22,0.6-1.45,4.48-2.98c0.2-2.07,0.42-3.88,0.57-5.1
				c0.11-0.94,0.76-1.33,1.45-1.33c0.77,0,1.53,0.51,1.53,1.36c0,0.08,0,0.2-0.03,0.28c-0.17,0.94-0.37,2.24-0.54,3.74h0.14
				c0.68,0,1.36,0.57,1.36,1.53v0.23c3.12-2.61,4.76-2.83,5.81-2.83c1.76,0,3.03,1.19,3.03,4.14c0,0.23,0,0.45-0.03,0.71
				c-0.11,1.67-0.57,4.65-0.71,6.24c-0.03,0.23-0.03,0.43-0.03,0.62c0,1.05,0.31,1.5,0.82,1.5c0.54,0,1.3-0.54,2.13-1.39
				c0.4-0.42,0.85-0.6,1.22-0.6c0.85,0,1.53,0.77,1.53,1.62c0,0.4-0.14,0.79-0.45,1.13c-1.56,1.7-3.37,2.58-4.88,2.58
				c-1.98,0-3.49-1.42-3.49-4.42c0-0.34,0.03-0.68,0.06-1.05c0.14-1.47,0.65-4.54,0.74-6.24c0-0.17,0.03-0.34,0.03-0.51
				c0-0.77-0.14-1.45-0.82-1.45c-1.45,0-5.58,3.86-7.12,5.47c-0.06,1.16-0.11,2.33-0.11,3.43c0,1.81,0.11,3.46,0.34,4.79
				c0.03,0.11,0.03,0.23,0.03,0.34c0,1.02-0.82,1.64-1.67,1.64c-1.7,0-1.7-1.93-1.7-4.05c0-0.65,0-1.33,0.03-2.07L808.88,328.73z"/>
			<path d="M842.37,315.01c3.4-0.99,5.84-1.64,7.88-1.64c1.5,0,2.1,0.99,2.1,1.9c0,1.02-0.62,1.64-2.44,1.64c-0.2,0-0.4,0-0.65-0.03
				h-0.4c-1.47,0-2.98,0.51-3.74,0.79c-1.84,0.65-4.54,3.32-4.54,6.8c0,3.03,2.1,5.87,6.15,5.87h0.31c1.87-0.06,2.64,0.99,2.64,1.87
				s-0.76,1.76-2.44,1.76c-6.1,0-9.7-4.25-9.7-9.07c0-3.06,1.42-5.19,1.87-5.81c0.17-0.23,0.25-0.37,0.25-0.42s-0.03-0.08-0.11-0.08
				s-0.23,0.03-0.4,0.08c-1.33,0.34-2.04,0.96-3.09,1.39c-1.96,0.82-2.66,0.96-3.15,0.96c-1.22,0-1.9-0.94-1.9-1.87
				c0-0.76,0.48-1.53,1.53-1.76C833.78,317.16,837.83,316.28,842.37,315.01z"/>
			<path d="M856.72,321.16c-0.08-1.33-0.14-1.93-0.14-2.67v-0.48c0.03-1.05,0.91-1.7,1.76-1.7c0.6,0,1.56,0.34,1.56,2.04
				c0,0.57-0.03,0.99-0.03,1.56c0,5.87,2.27,8.08,2.92,8.08c0.06,0,0.57,0,1.56-2.1c0.28-0.62,0.79-0.88,1.3-0.88
				c0.85,0,1.73,0.68,1.73,1.59c0,0.59-1.64,5.02-4.68,5.02C859.93,331.62,857.15,327.65,856.72,321.16z M875.12,325.27
				c-0.45-2.21-1.59-4.45-3.03-5.44c-0.42-0.28-0.6-0.65-0.6-1.02c0-0.71,0.65-1.39,1.53-1.39c1.79,0,5.53,4.56,5.53,7.37
				c0,1.16-0.94,1.84-1.84,1.84C876,326.63,875.32,326.2,875.12,325.27z"/>
			<path d="M897.34,327.03c0-2.64-2.66-2.98-3.94-2.98c-2.75,0-5.44,1.5-6.58,3.23c-0.31,0.48-0.77,0.68-1.25,0.68
				c-0.88,0-1.79-0.68-1.79-1.56c0-0.4,0.2-0.82,0.62-1.25c3.09-3.06,4.93-4.68,8.28-8.79c0.11-0.14,0.17-0.23,0.17-0.25
				s-0.03-0.03-0.06-0.03c-0.06,0-0.2,0.08-0.31,0.14c-1.3,0.79-4.45,1.53-4.88,1.53c-1.08,0-1.64-0.79-1.64-1.56
				c0-0.65,0.42-1.3,1.36-1.42c1.87-0.23,4.37-0.94,6.07-1.45c0.34-0.08,0.65-0.14,0.96-0.14c1.47,0,2.67,1.05,2.67,2.18
				c0,0.79-0.42,1.39-3.77,4.39c-1.11,0.96-2.1,1.81-3.09,2.72c1.22-0.65,2.61-0.96,3.94-0.96c3.32,0,6.46,1.98,6.46,5.39
				c0,3.15-2.75,7.06-8.56,7.06c-3.4,0-5.59-1.67-5.59-3.74c0-1.22,1.02-3.09,3.71-3.09c2.27,0,4.37,1.36,4.51,3.71
				C895.75,330.46,897.34,328.9,897.34,327.03z M891.96,331.36c0-1.05-0.68-1.93-1.76-1.93c-0.71,0-1.11,0.34-1.11,0.77
				c0,0.91,1.45,1.22,2.86,1.22V331.36z"/>
			<path d="M723.5,364.33c-1.81-1.53-3.52-3.15-5.61-4.74c-0.68-0.51-1.3-0.76-1.87-0.76c-0.51,0-0.99,0.2-1.45,0.57
				c-3.63,2.95-4.56,3.54-5.53,3.54c-1.02,0-1.79-0.88-1.79-1.79c0-0.65,0.4-1.3,1.36-1.7c0.68-0.25,2.3-1.19,4.22-2.55
				c1.11-0.79,2.15-1.13,3.18-1.13c1.25,0,2.44,0.51,3.54,1.33c2.27,1.67,7.71,5.67,10.69,7.63c0.51,0.34,0.74,0.79,0.74,1.28
				c0,0.99-0.91,2.01-2.01,2.01C728.26,368.02,727.41,367.62,723.5,364.33z M724.38,357.75c-1.73,0-3.12-1.39-3.12-3.12
				s1.39-3.15,3.12-3.15s3.15,1.42,3.15,3.15S726.1,357.75,724.38,357.75z M724.38,353.25c-0.77,0-1.36,0.62-1.36,1.39
				s0.6,1.39,1.36,1.39s1.42-0.62,1.42-1.39S725.14,353.25,724.38,353.25z"/>
			<path d="M739.53,363.91c-0.48,0-0.96-0.25-1.28-0.88c-0.4-0.77-0.94-1.5-1.53-2.01c-0.31-0.25-0.45-0.57-0.45-0.88
				c0-0.71,0.65-1.36,1.45-1.36c1.19,0,3.35,2.66,3.35,3.69C741.06,363.28,740.29,363.91,739.53,363.91z M739.05,371.56
				c-0.91,0-1.45-0.71-1.45-1.42c0-0.54,0.28-1.08,0.94-1.33c4.65-1.93,7.6-5.87,8.73-10.52c0.2-0.82,0.79-1.16,1.42-1.16
				c0.82,0,1.7,0.59,1.7,1.53c0,0.14-1.59,8.7-10.46,12.7C739.61,371.5,739.3,371.56,739.05,371.56z M743.36,362.57
				c-0.57,0-1.11-0.34-1.36-1.08c-0.28-0.82-0.71-1.67-1.22-2.24c-0.23-0.25-0.34-0.54-0.34-0.82c0-0.68,0.68-1.3,1.45-1.3
				c0.4,0,0.82,0.2,1.19,0.62c0.51,0.62,1.81,2.35,1.81,3.37C744.89,361.98,744.12,362.57,743.36,362.57z"/>
			<path d="M760.4,369.63c0.03,1.3-0.88,2.04-1.81,2.04c-0.85,0-1.67-0.6-1.67-1.79v-0.11c0.14-3.18,0.23-9.44,0.23-14.35
				c0-2.16-0.03-4.03-0.06-5.27c-0.03-1.16,0.88-1.64,1.67-1.64c0.85,0,1.7,0.54,1.7,1.62v0.06l-0.08,6.41
				c0.65,0,5.27,0.85,7.12,2.44c0.45,0.4,0.65,0.88,0.65,1.39c0,0.96-0.77,1.9-1.7,1.9c-0.31,0-0.65-0.11-0.99-0.37
				c-1.13-0.85-3.63-1.87-5.1-2.21C760.34,363.54,760.34,367.39,760.4,369.63z"/>
			<path d="M773.52,366.03c0-0.48,0.2-0.96,0.74-1.3c1.33-0.85,2.89-2.67,3.54-3.77c0.31-0.54,0.77-0.74,1.25-0.74
				c0.77,0,1.5,0.57,1.5,1.39c0,0.28-0.06,0.57-0.25,0.88c-0.51,0.85-3.32,5.27-5.13,5.27
				C774.23,367.76,773.52,366.88,773.52,366.03z M786.05,351.57c-0.03,0.82-0.03,2.04-0.06,3.43c1.05-0.03,2.1-0.03,3.12-0.03
				c1.05,0,2.07,0,3.06,0.03c1.19,0,1.76,0.77,1.76,1.5c0,0.79-0.6,1.56-1.76,1.56h-0.11c-2.01-0.08-4.05-0.11-6.1-0.11
				c0,0.79-0.03,1.62-0.03,2.44c0,1.39,0.03,2.78,0.08,4c0.03,0.91,0.03,1.33,0.03,2.13c0,1.84-0.74,3.6-3.83,3.6
				c-1.13,0-3.37-0.11-3.37-1.79c0-0.85,0.65-1.67,1.56-1.67c0.17,0,0.34,0.03,0.51,0.08c0.37,0.11,0.77,0.23,1.13,0.23
				c0.54,0,0.96-0.26,0.96-1.11v-7.88c-2.18,0.06-4.37,0.14-6.55,0.23h-0.08c-1.08,0-1.64-0.77-1.64-1.53
				c0-0.71,0.51-1.45,1.64-1.47c2.18-0.09,4.42-0.14,6.63-0.17c0-1.39-0.03-2.55-0.06-3.32v-0.06c0-1.13,0.77-1.67,1.53-1.67
				s1.56,0.57,1.56,1.56V351.57z M792.18,366.29c-0.85-1.33-2.81-3-3.91-3.66c-0.48-0.28-0.68-0.68-0.68-1.11
				c0-0.74,0.65-1.5,1.56-1.5c1.16,0,5.95,3.43,5.95,5.19c0,0.96-0.85,1.79-1.73,1.79C792.94,367,792.52,366.8,792.18,366.29z
				 M790.67,353.59c-0.23-0.45-1.39-1.84-1.81-2.18c-0.4-0.31-0.57-0.65-0.57-0.96c0-0.62,0.65-1.16,1.36-1.16
				c1.05,0,3.49,2.35,3.49,3.46c0,0.82-0.79,1.5-1.5,1.5C791.27,354.24,790.9,354.04,790.67,353.59z M795.38,352.62
				c-0.34,0-0.71-0.17-0.94-0.6c-0.23-0.45-1.42-1.81-1.87-2.13c-0.43-0.31-0.6-0.65-0.6-0.99c0-0.62,0.62-1.16,1.33-1.16
				c1.25,0,3.23,2.44,3.35,2.64c0.14,0.26,0.23,0.51,0.23,0.77C796.88,351.97,796.12,352.62,795.38,352.62z"/>
			<path d="M807.11,369.63c0.03,1.3-0.88,2.04-1.81,2.04c-0.85,0-1.67-0.6-1.67-1.79v-0.11c0.14-3.18,0.23-9.44,0.23-14.35
				c0-2.16-0.03-4.03-0.06-5.27c-0.03-1.16,0.88-1.64,1.67-1.64c0.85,0,1.7,0.54,1.7,1.62v0.06l-0.08,6.41
				c0.65,0,5.27,0.85,7.12,2.44c0.45,0.4,0.65,0.88,0.65,1.39c0,0.96-0.77,1.9-1.7,1.9c-0.31,0-0.65-0.11-0.99-0.37
				c-1.13-0.85-3.63-1.87-5.1-2.21C807.06,363.54,807.06,367.39,807.11,369.63z"/>
			<path d="M817.77,367.93c0-0.6,0.37-1.19,1.19-1.56c3.8-1.7,6.29-5.67,6.29-10.6c0-0.25,0-0.54-0.03-0.79v-0.14
				c0-1.13,0.79-1.67,1.62-1.67s1.7,0.57,1.73,1.59v0.65c0,8.85-7.06,14.12-9.04,14.12C818.51,369.52,817.77,368.75,817.77,367.93z
				 M833.73,354.41l-0.31,9.16v0.08c0,0.28,0.08,0.4,0.25,0.4c0.37,0,3.46-1.5,6.41-6.95c0.37-0.71,0.94-0.99,1.47-0.99
				c0.88,0,1.73,0.74,1.73,1.7c0,0.28-0.08,0.6-0.25,0.91c-3.09,5.53-8.39,9.44-10.6,9.44c-1.28,0-2.33-0.85-2.33-2.55v-0.34
				c0.2-2.55,0.4-9.21,0.4-10.86c0-1.16,0.82-1.76,1.62-1.76c0.82,0,1.62,0.59,1.62,1.73V354.41z"/>
			<path d="M858.6,355.49c0,2.3-2.61,8.62-5.78,11.57c-0.82,0.76-1.7,1.11-2.52,1.11c-1.98,0-4.25-2.21-4.25-5.7
				c0-4.65,4.05-10.63,11.6-10.63c5.78,0,9.55,3.94,9.55,8.62c0,7.29-7.65,9.72-9.13,9.72c-1.19,0-1.9-0.79-1.9-1.62
				c0-0.71,0.51-1.42,1.64-1.67c4.42-1.02,6.12-3.77,6.12-6.63c0-2.64-1.79-5.44-5.75-5.84C858.46,354.69,858.6,355.03,858.6,355.49
				z M849.04,362.18c0,1.22,0.54,2.44,1.36,2.44c1.33,0,4.51-5.3,4.85-9.1c0.03-0.34,0.11-0.65,0.26-0.91
				C850.89,355.77,849.04,360.02,849.04,362.18z"/>
			<path d="M877.36,372.52c-0.99,0-1.76-0.77-1.76-1.62c0-0.43,0.23-0.91,0.74-1.28c3.86-2.75,5.67-6.35,5.67-9.36
				c0-0.79-0.17-3.94-2.69-3.94c-0.68,0-1.42,0.23-2.13,0.68c-0.2,0.14-2.32,1.42-3.4,1.42c-1.13,0-1.76-0.82-1.76-1.67
				c0-0.71,0.42-1.45,1.39-1.79c0.74-0.25,1.59-0.54,2.35-0.88c1.05-0.45,2.3-0.74,3.54-0.74c3.86,0,6.04,2.47,6.04,6.78
				c0,4.17-2.47,8.82-6.69,11.94C878.21,372.41,877.76,372.52,877.36,372.52z M881.42,351.8c-0.65,0-3.23-0.6-5.64-1.96
				c-0.6-0.34-0.85-0.85-0.85-1.33c0-0.74,0.62-1.45,1.62-1.45c0.31,0,0.65,0.06,1.02,0.23c1.19,0.54,2.75,0.94,4.22,1.19
				c1.08,0.2,1.5,0.85,1.5,1.5C883.29,350.86,882.55,351.8,881.42,351.8z"/>
			<path d="M893.91,356.36c-1.36,0-3.43-0.14-3.43-1.9c0-0.74,0.51-1.42,1.53-1.42c0.17,0,0.37,0,0.57,0.06
				c0.4,0.08,0.82,0.14,1.25,0.14c0.37,0,0.77-0.03,1.13-0.08c0.28-1.73,0.54-3.23,0.74-4.08c0.2-0.88,0.85-1.25,1.5-1.25
				c0.85,0,1.73,0.62,1.73,1.53c0,0.17-0.03,0.34-0.08,0.51c-0.17,0.57-0.37,1.33-0.57,2.15c0.37-0.2,0.74-0.42,1.08-0.68
				c0.43-0.31,0.85-0.42,1.22-0.42c0.88,0,1.56,0.71,1.56,1.56c0,0.68-0.42,1.42-1.56,1.93c-1.13,0.51-2.1,0.96-3.03,1.28
				c-0.45,2.3-0.82,4.48-1.05,5.39c0.88-0.6,3.57-2.33,6.63-2.33c3.46,0,5.61,2.24,5.61,4.93c0,5.16-6.75,7.88-9.72,7.88
				c-1.39,0-2.04-0.77-2.04-1.56c0-0.74,0.57-1.45,1.64-1.59c5.27-0.62,6.86-3.49,6.86-4.93c0-1.11-0.85-1.9-2.67-1.9
				c-2.07,0-4.17,1.33-5.33,2.55c-0.54,0.6-0.68,1.42-1.73,1.7c-0.17,0.06-0.31,0.06-0.48,0.06c-1.08,0-1.81-1.05-1.81-2.24
				c0-0.2,0.59-4.48,1.02-7.31C894.28,356.36,894.08,356.36,893.91,356.36z"/>
			<path d="M916.47,371.65c-0.65-0.99-2.13-2.24-3.29-2.83c-0.62-0.31-0.91-0.82-0.91-1.3c0-0.74,0.62-1.45,1.56-1.45
				c1.13,0,5.61,2.44,5.61,4.54c0,1.02-0.85,1.76-1.73,1.76C917.26,372.35,916.81,372.16,916.47,371.65z"/>
			<path d="M739.27,408.1c-1.28,0-2.51-0.81-2.51-2.3v-0.17c0.08-1.66,0.13-3.66,0.13-5.78c0-3.23-0.08-6.63-0.21-9.06v-0.13
				c0-1.45,1.28-2.21,2.55-2.21c1.19,0,2.42,0.68,2.51,2.17c0.13,2.34,0.17,5.95,0.17,9.31c0,2.13,0,4.13-0.04,5.66
				C741.86,407.29,740.55,408.1,739.27,408.1z M740.46,422.34c-1.49,0-2.47-1.15-2.47-2.38c0-0.85,0.47-1.7,1.45-2.25
				c7.31-4.04,8.97-9.57,8.97-15.78c0-3.32-0.21-8.55-0.21-11.91c0-1.53,1.28-2.25,2.55-2.25c1.32,0,2.64,0.77,2.64,2.17v1.96
				c0,3.27,0.13,7.06,0.13,9.99c0,7.31-2.17,14.76-10.97,19.82C741.78,422.13,741.1,422.34,740.46,422.34z"/>
			<path d="M794.84,396.61c2.17,0,3.06,1.06,3.06,2.17c0,1.23-1.11,2.55-2.89,2.55h-0.09c-2.47-0.09-5.06-0.13-7.65-0.13v0.51
				c0,8.21-3.44,15.01-11.23,19.48c-0.77,0.42-1.45,0.6-2,0.6c-1.45,0-2.34-1.06-2.34-2.21c0-0.85,0.43-1.7,1.45-2.25
				c6.46-3.53,9.27-8.76,9.27-15.44v-0.68c-2.04,0-4.08,0.04-6.08,0.08v5.95c0,1.7-1.28,2.51-2.51,2.51s-2.42-0.77-2.42-2.3v-0.17
				c0.08-1.62,0.13-3.7,0.13-5.87c-2.55,0.08-4.98,0.13-7.23,0.25h-0.21c-1.79,0-2.64-1.11-2.64-2.21c0-1.15,0.85-2.3,2.55-2.34
				c2.42-0.08,4.93-0.17,7.48-0.21c-0.04-1.83-0.08-3.53-0.17-4.89v-0.17c0-1.62,1.19-2.51,2.38-2.51c1.15,0,2.34,0.81,2.42,2.51
				c0.08,1.32,0.13,3.06,0.17,4.98l6.17-0.08c0-2.04-0.04-3.91-0.08-5.06c0-0.21-0.13-2.98,2.34-2.98c1.28,0,2.55,1.02,2.55,2.89
				v5.06c2.55-0.04,5.1-0.04,7.53-0.04H794.84z"/>
			<path d="M814.41,418.69c0.04-3.19,0.21-9.44,0.26-14.29c-3.15,2.98-6.51,5.57-10.59,8.08c-0.94,0.55-1.79,0.81-2.51,0.81
				c-1.7,0-2.76-1.23-2.76-2.51c0-0.81,0.47-1.62,1.49-2.13c7.48-3.57,15.69-11.4,20.46-18.88c0.64-1.02,1.53-1.45,2.34-1.45
				c1.36,0,2.55,1.11,2.55,2.42c0,0.68,0,1.4-6.04,8.46c-0.08,2.81-0.13,8.38-0.13,13.1c0,2.51,0,4.76,0.04,6.25v0.08
				c0,1.87-1.36,2.89-2.68,2.89c-1.23,0-2.42-0.89-2.42-2.81V418.69z"/>
			<path d="M834.82,407.76c-1.45,0-2.47-1.15-2.47-2.42c0-0.81,0.43-1.66,1.45-2.25c4.04-2.38,9.53-10.42,11.35-13.48
				c0.51-0.85,1.32-1.19,2.08-1.19c1.32,0,2.68,0.98,2.68,2.38c0,0.42-0.17,0.94-0.51,1.49c0.17,0,4.38-0.3,5.32-0.3
				c2.55,0,5.02,1.49,5.02,3.7c0,0.51-0.13,1.11-0.47,1.74c-5.4,10.21-10.97,18.58-23.05,23.35c-0.55,0.21-1.11,0.3-1.57,0.3
				c-1.62,0-2.68-1.15-2.68-2.38c0-0.98,0.64-2,2.17-2.51c13.18-4.55,19.14-17.99,19.14-18.8c0-0.51-0.34-0.98-0.98-0.98
				c-0.47,0-2.76,0.13-6.25,0.51C839.67,405.33,836.65,407.76,834.82,407.76z"/>
			<path d="M860.36,416.18c0-0.89,0.55-1.79,1.79-2.34c5.7-2.55,9.44-8.5,9.44-15.9c0-0.38,0-0.81-0.04-1.19v-0.21
				c0-1.7,1.19-2.51,2.42-2.51s2.55,0.85,2.59,2.38v0.98c0,13.27-10.59,21.18-13.57,21.18
				C861.47,418.56,860.36,417.41,860.36,416.18z M884.31,395.89l-0.47,13.74v0.13c0,0.42,0.13,0.6,0.38,0.6
				c0.55,0,5.19-2.25,9.61-10.42c0.55-1.06,1.4-1.49,2.21-1.49c1.32,0,2.59,1.11,2.59,2.55c0,0.43-0.13,0.89-0.38,1.36
				c-4.64,8.29-12.59,14.16-15.91,14.16c-1.91,0-3.49-1.28-3.49-3.83v-0.51c0.3-3.83,0.59-13.82,0.59-16.29
				c0-1.74,1.23-2.64,2.42-2.64c1.23,0,2.42,0.89,2.42,2.59V395.89z"/>
			<path d="M724.12,461.8c-2.72-2.3-5.27-4.72-8.42-7.1c-1.02-0.77-1.96-1.15-2.81-1.15c-0.77,0-1.49,0.3-2.17,0.85
				c-5.44,4.42-6.85,5.32-8.29,5.32c-1.53,0-2.68-1.32-2.68-2.68c0-0.98,0.6-1.96,2.04-2.55c1.02-0.38,3.44-1.79,6.34-3.83
				c1.66-1.19,3.23-1.7,4.76-1.7c1.87,0,3.66,0.77,5.32,2c3.4,2.51,11.57,8.5,16.03,11.44c0.77,0.51,1.11,1.19,1.11,1.91
				c0,1.49-1.36,3.02-3.02,3.02C731.27,467.33,729.99,466.73,724.12,461.8z M725.44,451.93c-2.59,0-4.68-2.08-4.68-4.68
				s2.08-4.72,4.68-4.72s4.72,2.13,4.72,4.72S728.03,451.93,725.44,451.93z M725.44,445.17c-1.15,0-2.04,0.94-2.04,2.08
				s0.89,2.08,2.04,2.08s2.13-0.94,2.13-2.08S726.59,445.17,725.44,445.17z"/>
			<path d="M748.17,461.16c-0.72,0-1.45-0.38-1.91-1.32c-0.6-1.15-1.4-2.25-2.3-3.02c-0.47-0.38-0.68-0.85-0.68-1.32
				c0-1.06,0.98-2.04,2.17-2.04c1.79,0,5.02,4,5.02,5.53C750.47,460.23,749.32,461.16,748.17,461.16z M747.45,472.64
				c-1.36,0-2.17-1.06-2.17-2.13c0-0.81,0.43-1.62,1.4-2c6.97-2.89,11.4-8.8,13.1-15.78c0.3-1.23,1.19-1.74,2.13-1.74
				c1.23,0,2.55,0.89,2.55,2.3c0,0.21-2.38,13.06-15.69,19.05C748.3,472.56,747.83,472.64,747.45,472.64z M753.91,459.16
				c-0.85,0-1.66-0.51-2.04-1.62c-0.43-1.23-1.06-2.51-1.83-3.36c-0.34-0.38-0.51-0.81-0.51-1.23c0-1.02,1.02-1.96,2.17-1.96
				c0.6,0,1.23,0.3,1.79,0.94c0.77,0.94,2.72,3.53,2.72,5.06C756.21,458.27,755.06,459.16,753.91,459.16z"/>
			<path d="M779.47,469.75c0.04,1.96-1.32,3.06-2.72,3.06c-1.28,0-2.51-0.89-2.51-2.68v-0.17c0.21-4.76,0.34-14.16,0.34-21.52
				c0-3.23-0.04-6.04-0.08-7.91c-0.04-1.74,1.32-2.47,2.51-2.47c1.28,0,2.55,0.81,2.55,2.42v0.08l-0.13,9.61
				c0.98,0,7.91,1.28,10.67,3.66c0.68,0.59,0.98,1.32,0.98,2.08c0,1.45-1.15,2.85-2.55,2.85c-0.47,0-0.98-0.17-1.49-0.55
				c-1.7-1.28-5.44-2.81-7.65-3.32C779.39,460.61,779.39,466.39,779.47,469.75z"/>
			<path d="M798.31,464.35c0-0.72,0.3-1.45,1.11-1.96c2-1.28,4.34-4,5.32-5.66c0.47-0.81,1.15-1.11,1.87-1.11
				c1.15,0,2.25,0.85,2.25,2.08c0,0.43-0.08,0.85-0.38,1.32c-0.77,1.28-4.98,7.91-7.7,7.91
				C799.37,466.95,798.31,465.63,798.31,464.35z M817.1,442.66c-0.04,1.23-0.04,3.06-0.09,5.15c1.57-0.04,3.15-0.04,4.68-0.04
				c1.57,0,3.1,0,4.59,0.04c1.79,0,2.64,1.15,2.64,2.25c0,1.19-0.89,2.34-2.64,2.34h-0.17c-3.02-0.13-6.08-0.17-9.14-0.17
				c0,1.19-0.04,2.42-0.04,3.66c0,2.08,0.04,4.17,0.13,6c0.04,1.36,0.04,2,0.04,3.19c0,2.76-1.11,5.4-5.74,5.4
				c-1.7,0-5.06-0.17-5.06-2.68c0-1.28,0.98-2.51,2.34-2.51c0.25,0,0.51,0.04,0.77,0.13c0.55,0.17,1.15,0.34,1.7,0.34
				c0.81,0,1.45-0.38,1.45-1.66v-11.82c-3.27,0.09-6.55,0.21-9.82,0.34h-0.13c-1.62,0-2.47-1.15-2.47-2.3
				c0-1.06,0.77-2.17,2.47-2.21c3.27-0.13,6.63-0.21,9.95-0.25c0-2.08-0.04-3.83-0.08-4.98v-0.08c0-1.7,1.15-2.51,2.3-2.51
				c1.15,0,2.34,0.85,2.34,2.34V442.66z M826.29,464.74c-1.28-2-4.21-4.51-5.87-5.49c-0.72-0.42-1.02-1.02-1.02-1.66
				c0-1.11,0.98-2.25,2.34-2.25c1.74,0,8.93,5.15,8.93,7.78c0,1.45-1.28,2.68-2.59,2.68C827.44,465.8,826.8,465.5,826.29,464.74z
				 M824.04,445.68c-0.34-0.68-2.08-2.76-2.72-3.27c-0.6-0.47-0.85-0.98-0.85-1.45c0-0.94,0.98-1.74,2.04-1.74
				c1.57,0,5.23,3.53,5.23,5.19c0,1.23-1.19,2.25-2.25,2.25C824.93,446.66,824.38,446.36,824.04,445.68z M831.09,444.24
				c-0.51,0-1.06-0.25-1.4-0.89c-0.34-0.68-2.13-2.72-2.81-3.19c-0.64-0.47-0.89-0.98-0.89-1.49c0-0.94,0.94-1.74,2-1.74
				c1.87,0,4.85,3.66,5.02,3.96c0.21,0.38,0.34,0.77,0.34,1.15C833.35,443.26,832.2,444.24,831.09,444.24z"/>
			<path d="M847.84,469.75c0.04,1.96-1.32,3.06-2.72,3.06c-1.28,0-2.51-0.89-2.51-2.68v-0.17c0.21-4.76,0.34-14.16,0.34-21.52
				c0-3.23-0.04-6.04-0.08-7.91c-0.04-1.74,1.32-2.47,2.51-2.47c1.28,0,2.55,0.81,2.55,2.42v0.08l-0.13,9.61
				c0.98,0,7.91,1.28,10.67,3.66c0.68,0.59,0.98,1.32,0.98,2.08c0,1.45-1.15,2.85-2.55,2.85c-0.47,0-0.98-0.17-1.49-0.55
				c-1.7-1.28-5.44-2.81-7.65-3.32C847.76,460.61,847.76,466.39,847.84,469.75z"/>
			<path d="M862.13,467.2c0-0.89,0.55-1.79,1.79-2.34c5.7-2.55,9.44-8.5,9.44-15.9c0-0.38,0-0.81-0.04-1.19v-0.21
				c0-1.7,1.19-2.51,2.42-2.51s2.55,0.85,2.59,2.38v0.98c0,13.27-10.59,21.18-13.57,21.18C863.23,469.58,862.13,468.43,862.13,467.2
				z M886.07,446.92l-0.47,13.74v0.13c0,0.42,0.13,0.6,0.38,0.6c0.55,0,5.19-2.25,9.61-10.42c0.55-1.06,1.4-1.49,2.21-1.49
				c1.32,0,2.59,1.11,2.59,2.55c0,0.43-0.13,0.89-0.38,1.36c-4.64,8.29-12.59,14.16-15.91,14.16c-1.91,0-3.49-1.28-3.49-3.83v-0.51
				c0.3-3.83,0.59-13.82,0.59-16.29c0-1.74,1.23-2.64,2.42-2.64c1.23,0,2.42,0.89,2.42,2.59V446.92z"/>
			<path d="M910.54,471.48c-0.68,0-1.39-0.45-1.73-1.53c-0.51-1.67-0.71-3.6-0.71-5.58c0-1.45,0.08-2.95,0.25-4.39
				c0.37-3.4,0.99-6.52,1.11-8.33c0.08-1.22,0.88-1.73,1.64-1.73c0.82,0,1.67,0.57,1.67,1.53c0,0.08-0.03,0.17-0.03,0.25
				c-0.2,1.28-0.68,3.63-1.05,6.04c-0.34,2.21-0.62,4.31-0.62,5.33c0,0.48,0.06,0.65,0.11,0.65c0.03,0,0.06-0.09,0.11-0.26
				c0.37-1.11,0.82-1.33,1.28-1.33c0.62,0,1.28,0.54,1.28,1.5c0,0.37-0.11,0.79-0.34,1.28c-0.88,1.84-1.3,3.86-1.3,4.82
				C912.1,471.48,910.68,471.48,910.54,471.48z M926.64,453.54c0.2-0.06,0.43-0.08,0.6-0.08c0.99,0,1.73,0.77,1.73,1.56
				c0,0.62-0.43,1.25-1.56,1.5l-1.84,0.45c0.03,3.09,0.08,4.28,0.34,7.91c1.16,0.54,2.21,1.25,3.06,2.01
				c0.48,0.45,0.68,0.96,0.68,1.47c0,0.96-0.77,1.87-1.62,1.87c-0.37,0-0.77-0.17-1.11-0.54c-0.43-0.45-0.96-0.91-1.5-1.3
				c-0.88,1.62-2.89,3-5.13,3c-2.21,0-4.51-1.42-4.51-3.71c0-2.07,2.01-3.91,5.42-3.91c0.6,0,1.16,0.06,1.76,0.17
				c-0.11-1.3-0.11-1.33-0.31-6.41c-0.91,0.14-1.84,0.2-2.81,0.2c-1.62,0-3-0.06-3-1.59c0-0.79,0.57-1.59,1.7-1.59
				c0.14,0,0.28,0,0.43,0.03c0.48,0.08,0.99,0.11,1.5,0.11c0.68,0,1.39-0.06,2.1-0.17c-0.03-1.05-0.03-2.04-0.03-2.83v-0.88
				c0.03-1.02,0.82-1.47,1.56-1.47c0.76,0,1.53,0.45,1.53,1.3v0.11c-0.06,0.74-0.08,1.84-0.08,3.12L926.64,453.54z M920.52,466.41
				c-1.36,0-1.96,0.57-1.96,1.13c0,0.62,0.85,0.91,1.59,0.91c1.08,0,2.21-0.57,2.55-1.59C921.93,466.58,921.2,466.41,920.52,466.41z
				"/>
		</g>
		<g>
			<path d="M748.51,495.9c8.97,0,14.1,5.59,14.45,13.4c0.12,1.4,0.12,3.26,0.12,5.48c0,8.97-0.47,24-0.47,40.66
				c0,7.34,0.12,15.03,0.35,22.6v0.35c0,4.66-3.73,6.87-7.57,6.87c-3.96,0-8.04-2.45-8.04-7.34c0-10.6,0.58-34.13,0.58-49.16
				c0-15.61-0.23-17.59-3.84-17.59h-1.4c-4.54,0-6.64-3.5-6.64-7.11c0-3.84,2.33-7.92,6.76-8.16H748.51z"/>
			<path d="M831.5,577.91v0.23c0,4.66-3.5,6.99-6.99,6.99c-3.61,0-7.34-2.45-7.34-7.22c0-4.08,0.12-8.85,0.12-12.58h-23.42
				c-8.5,0-12.7-4.19-12.7-9.67c0-2.91,1.17-6.29,3.5-9.55c6.99-9.79,25.98-36.35,34.37-47.88c1.51-2.1,3.61-3.03,5.71-3.03
				c3.96,0,7.81,3.26,7.81,7.34c0,1.63-0.58,3.5-1.98,5.24c-21.32,27.26-33.55,42.99-33.55,43.8c0,0.93,0.82,1.05,3.96,1.05
				c3.73,0,10.14-0.23,16.43-0.35c0.12-4.08,0.12-8.16,0.12-11.53c0-2.45,0-4.43-0.12-5.71v-0.58c0-4.66,3.5-7.11,6.99-7.11
				c3.61,0,7.11,2.45,7.11,7.57c0,5.48-0.35,9.44-0.35,17.01c3.26-0.12,6.41-0.23,6.99-0.23h0.35c4.43,0,6.87,3.26,6.87,6.52
				s-2.45,6.76-7.8,6.87c-1.4,0-3.84,0.12-6.29,0.12C831.27,568.13,831.38,572.67,831.5,577.91z"/>
			<path d="M853.32,547.98c0-1.68,0.13-3.37,0.32-4.92c0.65-5.7,4.79-8.48,9.71-8.48c8.09,0,10.1,6.73,10.1,12.82
				c0,9.32-3.3,13.33-10.1,13.33C855.2,560.73,853.32,554.33,853.32,547.98z M860.57,584.23c-1.49,0-3.04-1.29-3.04-2.91
				c0-0.52,0.19-1.04,0.52-1.55c4.47-6.8,26.21-38.9,28.74-43.63c0.52-0.97,1.36-1.36,2.27-1.36c1.55,0,3.17,1.17,3.17,2.72
				c0,0.45-0.13,0.97-0.52,1.49c-2.78,4.01-23.11,34.37-28.87,43.89C862.25,583.84,861.41,584.23,860.57,584.23z M866.52,548.11
				c0-4.4-0.39-7.7-3.17-7.7c-2.65,0-3.3,3.62-3.3,6.86c0,2.27,0,7.64,3.3,7.64C865.94,554.91,866.52,551.35,866.52,548.11z
				 M876.3,571.35c0-1.68,0.13-3.37,0.32-4.92c0.65-5.7,4.79-8.41,9.71-8.41c8.16,0,10.1,6.8,10.1,12.82
				c0,5.76-0.97,13.33-10.1,13.33C878.17,584.17,876.3,577.76,876.3,571.35z M889.5,571.35c0-4.53-0.45-7.51-3.17-7.51
				c-2.59,0-3.24,3.5-3.24,6.73c0,2.72,0.13,7.77,3.24,7.77C888.92,578.34,889.5,574.65,889.5,571.35z"/>
		</g>
	</g>
	<path class="st6" d="M574.81,703.17h-64.17c-5.89,0-10.67-4.78-10.67-10.67v0c0-5.89,4.78-10.67,10.67-10.67h64.17
		c5.89,0,10.67,4.78,10.67,10.67v0C585.48,698.4,580.7,703.17,574.81,703.17z"/>
	<path class="st6" d="M574.81,787.49h-64.17c-5.89,0-10.67-4.78-10.67-10.67v-50.98c0-5.89,4.78-10.67,10.67-10.67h64.17
		c5.89,0,10.67,4.78,10.67,10.67v50.98C585.48,782.71,580.7,787.49,574.81,787.49z"/>
	<path class="st6" d="M449.29,867.52H159.26c-5.89,0-10.67-4.78-10.67-10.67v-99.99c0-5.89,4.78-10.67,10.67-10.67h290.03
		c5.89,0,10.67,4.78,10.67,10.67v99.99C459.95,862.74,455.18,867.52,449.29,867.52z"/>
</g>
</svg>
