<svg xmlns="http://www.w3.org/2000/svg" width="310.29" height="34.011"><defs><clipPath id="a"><path fill="#fff" d="M0 0h310.29v34.011H0z" data-name="長方形 83"/></clipPath></defs><g fill="#fff" clip-path="url(#a)" data-name="グループ 143"><path d="M0 .276h11.34a10.831 10.831 0 0 1 9.873 5.645A10.279 10.279 0 0 1 22.7 9.868a70.306 70.306 0 0 1 .244 7.138 50.147 50.147 0 0 1-.378 7.527 8.592 8.592 0 0 1-.533 1.928 18.175 18.175 0 0 1-.911 1.721 11.448 11.448 0 0 1-3.958 3.9 10.963 10.963 0 0 1-6.159 1.652H0Zm4.906 28.688h5.876q4.14 0 6.009-2.92a5.677 5.677 0 0 0 1.046-2.737 60.491 60.491 0 0 0 .2-6.117q0-4.371-.2-6.255a5.862 5.862 0 0 0-1.268-3.059 6.447 6.447 0 0 0-5.787-2.829H4.906Z" data-name="パス 479"/><path d="M29.191 9.914h4.631v14.2a5.194 5.194 0 0 0 1.313 3.769 4.34 4.34 0 0 0 3.291 1.355 4.268 4.268 0 0 0 3.267-1.355 5.244 5.244 0 0 0 1.29-3.769v-14.2h4.632v23.821h-4.632v-2.547H42.9a7.325 7.325 0 0 1-5.98 2.822 7.679 7.679 0 0 1-5.175-2.153 7.543 7.543 0 0 1-2.554-6.093Zm2.543-8.765h4.911v5.045h-4.911Zm8.289 0h4.906v5.045h-4.906Z" data-name="パス 480"/><path d="M55.108 26.46a9.511 9.511 0 0 0 7.311 3.055 6.041 6.041 0 0 0 3.276-.8 2.522 2.522 0 0 0 1.27-2.249 1.993 1.993 0 0 0-.757-1.79 3.876 3.876 0 0 0-2.072-.574l-4.1-.368a7.674 7.674 0 0 1-4.744-2.019 6.222 6.222 0 0 1-1.916-4.752 6.534 6.534 0 0 1 2.514-5.508 9.757 9.757 0 0 1 6.1-1.836 18.062 18.062 0 0 1 2.869.206 14.014 14.014 0 0 1 2.381.643 13.562 13.562 0 0 1 3.826 2.408l-2.874 3.463a14.242 14.242 0 0 0-2.829-1.645 9.2 9.2 0 0 0-3.386-.579 4.5 4.5 0 0 0-3.052.8 2.631 2.631 0 0 0-.914 2.068 1.637 1.637 0 0 0 .691 1.4 3.937 3.937 0 0 0 2.361.85l3.83.3q3.607.276 5.212 2.251a7.768 7.768 0 0 1 1.492 4.9 6.256 6.256 0 0 1-2.734 5.354 11.584 11.584 0 0 1-6.827 1.976 14.418 14.418 0 0 1-10.161-4.267Z" data-name="パス 481"/><path d="M77.668 26.46a9.511 9.511 0 0 0 7.311 3.055 6.041 6.041 0 0 0 3.276-.8 2.522 2.522 0 0 0 1.27-2.249 1.993 1.993 0 0 0-.757-1.79A3.876 3.876 0 0 0 86.7 24.1l-4.1-.368a7.674 7.674 0 0 1-4.744-2.019 6.222 6.222 0 0 1-1.916-4.752 6.534 6.534 0 0 1 2.514-5.508 9.757 9.757 0 0 1 6.1-1.836 18.062 18.062 0 0 1 2.869.206 14.014 14.014 0 0 1 2.381.643 13.562 13.562 0 0 1 3.826 2.408l-2.874 3.463a14.242 14.242 0 0 0-2.829-1.645 9.2 9.2 0 0 0-3.386-.579 4.5 4.5 0 0 0-3.052.8 2.631 2.631 0 0 0-.914 2.068 1.637 1.637 0 0 0 .691 1.4 3.937 3.937 0 0 0 2.361.85l3.83.3q3.607.276 5.212 2.251a7.768 7.768 0 0 1 1.492 4.9 6.256 6.256 0 0 1-2.734 5.354 11.584 11.584 0 0 1-6.827 1.975 14.418 14.418 0 0 1-10.161-4.267Z" data-name="パス 482"/><path d="M103.037 23.635a5.676 5.676 0 0 0 1.6 4.364 5.245 5.245 0 0 0 3.915 1.515 6.83 6.83 0 0 0 5.049-2.319l3.358 2.962a10.732 10.732 0 0 1-8.311 3.853 11.674 11.674 0 0 1-3.555-.55 8.5 8.5 0 0 1-1.689-.8 8.159 8.159 0 0 1-1.622-1.079 9.477 9.477 0 0 1-2.378-3.718 15.077 15.077 0 0 1-1-5.967 17.066 17.066 0 0 1 .867-5.875 10.276 10.276 0 0 1 2.221-3.763 8.258 8.258 0 0 1 3.089-2.02 9.629 9.629 0 0 1 3.333-.619 9.434 9.434 0 0 1 6.689 2.685 9.943 9.943 0 0 1 2.822 7.391v3.943Zm9.758-3.943a6.217 6.217 0 0 0-1.447-4.22 5.009 5.009 0 0 0-6.863 0 6.521 6.521 0 0 0-1.448 4.22Z" data-name="パス 483"/><path d="M123.054.275h4.631v27.333q0 1.632 1.738 1.631h1.606v4.5h-2.066a6.515 6.515 0 0 1-4.177-1.3q-1.733-1.326-1.732-4.457Z" data-name="パス 484"/><path d="M148.963 31.249a7.763 7.763 0 0 1-5.975 2.762 7.43 7.43 0 0 1-3.575-.9 7.813 7.813 0 0 1-2.6-2.206 6.123 6.123 0 0 1-1.266-3.054 33.947 33.947 0 0 1-.377-6.063 34.083 34.083 0 0 1 .377-6.109 6.028 6.028 0 0 1 1.266-2.963 7.087 7.087 0 0 1 6.174-3.1 7.261 7.261 0 0 1 3.287.752 13.374 13.374 0 0 1 2.688 2.055V.276h4.631v33.46h-4.631ZM144.4 14.388a4.545 4.545 0 0 0-2.513.575 3.625 3.625 0 0 0-1.4 1.7 9.032 9.032 0 0 0-.556 2.349q-.134 1.359-.134 2.786a25.723 25.723 0 0 0 .134 2.649 9.142 9.142 0 0 0 .556 2.44 3.938 3.938 0 0 0 1.4 1.7 4.155 4.155 0 0 0 2.513.645 4.355 4.355 0 0 0 2.6-.691 3.371 3.371 0 0 0 1.312-1.75 9.182 9.182 0 0 0 .6-2.418q.043-1.312.044-2.579 0-1.381-.044-2.647a9.136 9.136 0 0 0-.6-2.35 3.375 3.375 0 0 0-1.312-1.75 4.48 4.48 0 0 0-2.6-.667" data-name="パス 485"/><path d="M158.418 21.8a21.521 21.521 0 0 1 .6-5.793 8.435 8.435 0 0 1 1.912-3.334 8.762 8.762 0 0 1 2.667-2.123 9.622 9.622 0 0 1 4.335-.935 9.8 9.8 0 0 1 4.424.94 8.353 8.353 0 0 1 2.579 2.135 7.539 7.539 0 0 1 1.949 3.327 23.074 23.074 0 0 1 .555 5.783 22.48 22.48 0 0 1-.556 5.737 8.228 8.228 0 0 1-1.955 3.42 7.336 7.336 0 0 1-1.089 1.033 5.08 5.08 0 0 1-1.489.987 9.006 9.006 0 0 1-4.422 1.032 9.478 9.478 0 0 1-7-3.052 9.228 9.228 0 0 1-1.911-3.42 20.871 20.871 0 0 1-.6-5.737m14.389.046a22.126 22.126 0 0 0-.223-3.73 4.468 4.468 0 0 0-.913-1.981 3.435 3.435 0 0 0-1.514-1.266 4.894 4.894 0 0 0-2.229-.483 4.962 4.962 0 0 0-2.183.483 4.145 4.145 0 0 0-1.559 1.266 5.638 5.638 0 0 0-.869 1.981 18.166 18.166 0 0 0-.268 3.684 17.658 17.658 0 0 0 .268 3.639 6.107 6.107 0 0 0 .869 2.072 5.675 5.675 0 0 0 1.559 1.221 4.766 4.766 0 0 0 2.183.506 4.7 4.7 0 0 0 2.229-.506 4.411 4.411 0 0 0 1.514-1.221 4.817 4.817 0 0 0 .913-2.072 20.757 20.757 0 0 0 .223-3.593" data-name="パス 486"/><path d="M183.065 9.914h4.635v2.524h.1a7.594 7.594 0 0 1 10.852-.993l-3.383 4.139a4.775 4.775 0 0 0-3.049-1.2 4.285 4.285 0 0 0-3.048 1.194 4.745 4.745 0 0 0-1.469 3.792v14.365h-4.631Z" data-name="パス 487"/><path d="M202.091 13.584h-2.34v-3.67h2.34V6.771q0-3.4 1.821-5a6.707 6.707 0 0 1 4.466-1.496h3v4.5h-2.65q-2.1-.068-2.005 1.984v3.155h4.655v3.67h-4.655v20.151h-4.631Z" data-name="パス 488"/><path d="M224.122 29.238 236.8 12.866a6.391 6.391 0 0 0 1-1.84 7.019 7.019 0 0 0 .178-1.517 5.071 5.071 0 0 0-1.137-3.29 4.261 4.261 0 0 0-3.341-1.448 4.339 4.339 0 0 0-3.189 1.265 5.582 5.582 0 0 0-1.56 3.564h-4.631a10.407 10.407 0 0 1 2.715-6.9 8.555 8.555 0 0 1 6.3-2.7 9.136 9.136 0 0 1 6.787 2.757 9.466 9.466 0 0 1 2.692 6.821 9.451 9.451 0 0 1-1.957 5.88l-10.432 13.506h12.389v4.771h-18.492Z" data-name="パス 489"/><path d="M246.956 9.6a9.135 9.135 0 0 1 2.871-7.126A8.935 8.935 0 0 1 256.146 0a9.068 9.068 0 0 1 6.43 2.478 9.531 9.531 0 0 1 2.781 7.138v14.757a9.5 9.5 0 0 1-2.781 7.114 9.239 9.239 0 0 1-6.43 2.524 9.21 9.21 0 0 1-9.19-9.623Zm13.77.3q-.135-5.034-4.58-5.128-4.47.093-4.559 5.128v14.212q.09 5.083 4.559 5.128 4.446-.045 4.58-5.128Z" data-name="パス 490"/><path d="m269.239 29.238 12.68-16.372a6.392 6.392 0 0 0 1-1.84 7.02 7.02 0 0 0 .178-1.517 5.071 5.071 0 0 0-1.137-3.29 4.261 4.261 0 0 0-3.344-1.448 4.339 4.339 0 0 0-3.189 1.265A5.582 5.582 0 0 0 273.87 9.6h-4.631a10.407 10.407 0 0 1 2.715-6.9 8.555 8.555 0 0 1 6.3-2.7 9.136 9.136 0 0 1 6.787 2.757 9.466 9.466 0 0 1 2.692 6.821 9.451 9.451 0 0 1-1.957 5.88l-10.434 13.506h12.389v4.771h-18.492Z" data-name="パス 491"/><path d="m291.8 29.238 12.68-16.372a6.392 6.392 0 0 0 1-1.84 7.018 7.018 0 0 0 .178-1.517 5.071 5.071 0 0 0-1.137-3.29 4.261 4.261 0 0 0-3.344-1.448 4.339 4.339 0 0 0-3.189 1.265 5.582 5.582 0 0 0-1.56 3.564H291.8a10.407 10.407 0 0 1 2.715-6.9 8.555 8.555 0 0 1 6.3-2.7 9.136 9.136 0 0 1 6.785 2.757 9.466 9.466 0 0 1 2.692 6.821 9.451 9.451 0 0 1-1.957 5.88L297.9 28.964h12.39v4.771H291.8Z" data-name="パス 492"/></g></svg>