<svg xmlns="http://www.w3.org/2000/svg" width="260.652" height="34.011"><defs><clipPath id="a"><path fill="#fff" d="M0 0h260.652v34.011H0z" data-name="長方形 78"/></clipPath></defs><g data-name="グループ 134"><path fill="#fff" d="M13.8 7.12h.089l4.691 14.638H9.113ZM11.78.275 0 33.735h5.2l2.49-7.483h12.293l2.511 7.483h5.179L15.892.275Z" data-name="パス 433"/><g data-name="グループ 133"><g fill="#fff" clip-path="url(#a)" data-name="グループ 132"><path d="M31.437 9.914h4.64v2.524h.089a7.72 7.72 0 0 1 6.22-2.823 8.9 8.9 0 0 1 3.993.85 11.872 11.872 0 0 1 2.732 2.271 9.388 9.388 0 0 1 7.505-3.121 8.173 8.173 0 0 1 5.417 2.085 8.019 8.019 0 0 1 2.524 6.2v15.835h-4.636v-14.2a5.114 5.114 0 0 0-1.331-3.815 4.64 4.64 0 0 0-3.432-1.333A4.718 4.718 0 0 0 51.7 15.72a5.016 5.016 0 0 0-1.377 3.814v14.2h-4.63v-14.2a5.11 5.11 0 0 0-1.332-3.814 4.718 4.718 0 0 0-3.454-1.333 4.643 4.643 0 0 0-3.434 1.333 4.971 4.971 0 0 0-1.4 3.814v14.2h-4.636Z" data-name="パス 434"/><path d="M83.789 31.625H83.7a3.9 3.9 0 0 1-2 1.789 9.23 9.23 0 0 1-3.687.6 8.254 8.254 0 0 1-5.954-2.114 6.7 6.7 0 0 1-2.2-5.163 6.869 6.869 0 0 1 1.911-4.979 7.481 7.481 0 0 1 5.6-2.065h6.421v-2.514q.045-3.159-4.734-3.067a8.144 8.144 0 0 0-2.735.369 3.375 3.375 0 0 0-1.644 1.475l-3.648-2.872q2.643-3.559 7.8-3.469a12.068 12.068 0 0 1 6.951 1.7q2.6 1.789 2.643 6.15v16.271h-4.635Zm0-7.989h-5.566q-4.056.092-4.008 2.87a2.573 2.573 0 0 0 1.046 2.067 4.765 4.765 0 0 0 3.317.942A7.927 7.927 0 0 0 82.7 28.8q1.092-.757 1.092-3.444Z" data-name="パス 435"/><path d="m93.657 29.946 11.561-15.812H93.927v-4.22h16.937v3.814L98.93 29.239h11.934v4.5H93.657Z" data-name="パス 436"/><path d="M114.885 21.8a21.529 21.529 0 0 1 .6-5.794 8.438 8.438 0 0 1 1.912-3.333 8.746 8.746 0 0 1 2.667-2.123 9.622 9.622 0 0 1 4.335-.936 9.809 9.809 0 0 1 4.424.941 8.35 8.35 0 0 1 2.579 2.134 7.548 7.548 0 0 1 1.949 3.328 23.074 23.074 0 0 1 .555 5.783 22.486 22.486 0 0 1-.556 5.737 8.231 8.231 0 0 1-1.955 3.419 7.34 7.34 0 0 1-1.089 1.034 5.079 5.079 0 0 1-1.489.986 9.016 9.016 0 0 1-4.422 1.033 9.483 9.483 0 0 1-7-3.053 9.231 9.231 0 0 1-1.911-3.419 20.877 20.877 0 0 1-.6-5.737m14.389.046a22.126 22.126 0 0 0-.223-3.73 4.468 4.468 0 0 0-.913-1.981 3.443 3.443 0 0 0-1.514-1.267 4.894 4.894 0 0 0-2.229-.483 4.962 4.962 0 0 0-2.183.483 4.156 4.156 0 0 0-1.559 1.267 5.638 5.638 0 0 0-.869 1.981 18.16 18.16 0 0 0-.268 3.684 17.648 17.648 0 0 0 .268 3.638 6.12 6.12 0 0 0 .869 2.073 5.673 5.673 0 0 0 1.559 1.22 4.767 4.767 0 0 0 2.183.507 4.7 4.7 0 0 0 2.229-.507 4.41 4.41 0 0 0 1.514-1.22 4.827 4.827 0 0 0 .913-2.073 20.752 20.752 0 0 0 .223-3.592" data-name="パス 437"/><path d="M139.533 9.914h4.632v2.524h.088a7.349 7.349 0 0 1 6-2.823 7.762 7.762 0 0 1 5.241 2.089 8.214 8.214 0 0 1 2.466 6.2v15.831h-4.632v-14.2a5.213 5.213 0 0 0-1.29-3.814 4.308 4.308 0 0 0-3.268-1.333 4.379 4.379 0 0 0-3.291 1.333 5.159 5.159 0 0 0-1.312 3.814v14.2h-4.631Z" data-name="パス 438"/><path d="m174.484 29.237 12.68-16.372a6.392 6.392 0 0 0 1-1.84 7.013 7.013 0 0 0 .178-1.517 5.068 5.068 0 0 0-1.137-3.289 4.255 4.255 0 0 0-3.344-1.448 4.335 4.335 0 0 0-3.189 1.265 5.578 5.578 0 0 0-1.56 3.564h-4.631a10.41 10.41 0 0 1 2.719-6.9 8.551 8.551 0 0 1 6.3-2.7 9.132 9.132 0 0 1 6.787 2.756 9.469 9.469 0 0 1 2.692 6.822 9.451 9.451 0 0 1-1.957 5.88l-10.435 13.506h12.389v4.771h-18.492Z" data-name="パス 439"/><path d="M197.318 9.6a9.134 9.134 0 0 1 2.871-7.126A8.935 8.935 0 0 1 206.508 0a9.068 9.068 0 0 1 6.43 2.478 9.53 9.53 0 0 1 2.781 7.137v14.757a9.5 9.5 0 0 1-2.781 7.114 9.243 9.243 0 0 1-6.43 2.524 9.21 9.21 0 0 1-9.19-9.624Zm13.77.3q-.135-5.036-4.58-5.128-4.47.093-4.559 5.128v14.211q.09 5.082 4.559 5.128 4.446-.045 4.58-5.128Z" data-name="パス 440"/><path d="m219.6 29.237 12.68-16.372a6.392 6.392 0 0 0 1-1.84 7.012 7.012 0 0 0 .178-1.517 5.069 5.069 0 0 0-1.137-3.289 4.255 4.255 0 0 0-3.344-1.448 4.335 4.335 0 0 0-3.189 1.265 5.578 5.578 0 0 0-1.56 3.564H219.6a10.41 10.41 0 0 1 2.715-6.9 8.551 8.551 0 0 1 6.3-2.7 9.132 9.132 0 0 1 6.785 2.756 9.469 9.469 0 0 1 2.692 6.822 9.451 9.451 0 0 1-1.957 5.88l-10.43 13.506h12.389v4.771H219.6Z" data-name="パス 441"/><path d="m242.16 29.237 12.68-16.372a6.392 6.392 0 0 0 1-1.84 7.012 7.012 0 0 0 .178-1.517 5.069 5.069 0 0 0-1.137-3.289 4.255 4.255 0 0 0-3.344-1.448 4.335 4.335 0 0 0-3.189 1.265 5.578 5.578 0 0 0-1.56 3.564h-4.628a10.41 10.41 0 0 1 2.715-6.9 8.551 8.551 0 0 1 6.3-2.7 9.132 9.132 0 0 1 6.787 2.756 9.469 9.469 0 0 1 2.692 6.822 9.451 9.451 0 0 1-1.957 5.88l-10.434 13.506h12.389v4.771H242.16Z" data-name="パス 442"/></g></g></g></svg>