<svg xmlns="http://www.w3.org/2000/svg" width="585.179" height="172.434" data-name="グループ 459"><defs><clipPath id="a"><path fill="none" d="M0 0h585.179v172.434H0z" data-name="長方形 176"/></clipPath></defs><g clip-path="url(#a)" data-name="グループ 433"><path fill="#ffb817" d="M110.917 109.582q-8.576-.353-17.15-.59a233.641 233.641 0 0 0 3.3 31.081c5.882.245 11.752.531 17.6.82-1.969-6.75-3.133-17.686-3.75-31.311" data-name="パス 1715"/><path fill="#ffb817" d="M123.192 124.175c-.137 7.071-.344 12.9-.759 17.08l11.464.529q.15-2.037.274-4.234c-3.422-3.073-7.7-8.5-10.979-13.375" data-name="パス 1716"/><path fill="#ff6e00" d="M120.2 148.4c-2.316 0-4.127-2.689-5.531-7.5-5.851-.29-11.721-.576-17.6-.82 3.5 18.336 9.942 29.65 21.851 29.65 10.267 0 13.55-8.379 14.983-27.94l-11.465-.528c-.444 4.472-1.129 7.046-2.235 7.14" data-name="パス 1717"/><path fill="#c76300" d="M110.347 73.335a634.084 634.084 0 0 0-93.665 2.471V88.93h76.425c.129 6.983.335 13.692.66 20.062q8.574.233 17.15.59c-.483-10.679-.632-23-.57-36.247" data-name="パス 1718"/><path fill="#be0000" d="M19.106 70.854a145.9 145.9 0 0 0 14.4-24.22v15.183h82.271V44.465H34.5c1.284-2.711 2.567-5.6 3.708-8.495h88.837c-18.98-3.159-37.954-6.126-56.92-8.734-15.658-1.894-31.182-3.221-46.67-3.936C17.563 38.937 9.572 52.624 0 61.817a144.638 144.638 0 0 1 15.4 13.556l1.283-1.446v1.879a634.207 634.207 0 0 1 93.664-2.471c0-.826.008-1.648.013-2.481Z" data-name="パス 1719"/><path fill="#c76300" d="m29.088 95.616-12.12 14.1c.182.13.37.268.553.4q14.934-.96 29.884-1.288C41.1 103.945 34.834 99.4 29.088 95.616" data-name="パス 1720"/><path fill="#c76300" d="M65.445 89.832a126.116 126.116 0 0 1-9.62 18.84q10.182-.127 20.37-.018 3.011-5.831 5.648-11.954Z" data-name="パス 1721"/><path fill="#ff6e00" d="M26.775 141.552a117.741 117.741 0 0 1-21.927 14.073 131.933 131.933 0 0 1 12.69 16.809 162.728 162.728 0 0 0 37.071-31.811c8.555 8.315 16.113 16.268 21.1 23.316l13.545-16.267c-2.035-2.579-4.4-5.3-7.01-8.1-18.545-.466-37.126-.2-55.472 1.983" data-name="パス 1722"/><path fill="#ffb817" d="M66.729 124.717a160.434 160.434 0 0 0 9.466-16.063q-10.187-.1-20.37.017a115.8 115.8 0 0 1-2.926 4.478q-2.742-2.2-5.495-4.322-14.949.34-29.884 1.287c7.408 5.334 15.47 11.514 23.4 18.218a133.476 133.476 0 0 1-14.146 13.219c18.346-2.184 36.926-2.449 55.472-1.982a204.843 204.843 0 0 0-15.518-14.852" data-name="パス 1723"/><path fill="#f61537" d="M128.752 18.075H44.486C45.77 13.737 46.91 9.218 48.05 4.7L30.37 0a173.341 173.341 0 0 1-6.915 23.3c15.488.711 31.012 2.037 46.674 3.931 18.966 2.608 37.94 5.575 56.92 8.734h1.7Z" data-name="パス 1724"/><path fill="#ffb817" d="M204.592 114.955q-7.342-.555-14.686-1.1v26.765h14.686Z" data-name="パス 1725"/><path fill="#c76300" d="M189.906 80.278v33.58q7.344.542 14.686 1.1V82.334q-7.338-1.062-14.686-2.056" data-name="パス 1726"/><path fill="#be0000" d="M189.906 45.4v34.878q7.348.992 14.686 2.056V48.015Q197.25 46.7 189.906 45.4" data-name="パス 1727"/><path fill="#ff6e00" d="M166.379 169.362h16.112v-25.739q-8.054-.364-16.112-.736Z" data-name="パス 1728"/><path fill="#ffb817" d="M166.379 112.187v30.7q8.058.37 16.112.735v-30.305q-8.055-.582-16.112-1.13" data-name="パス 1729"/><path fill="#c76300" d="M151.122 75.7a191.59 191.59 0 0 1 6.131 18.47c3.138-4.7 6.132-9.761 9.126-15.365v33.38q8.057.543 16.112 1.131V79.3q-15.657-2.023-31.369-3.6" data-name="パス 1730"/><path fill="#be0000" d="M164.711 40.946c-4.719 11.508-10.016 21.9-15.584 30.089.609 1.259 1.291 2.876 1.995 4.666q15.716 1.545 31.369 3.6V44.077q-8.891-1.576-17.78-3.131" data-name="パス 1731"/><path fill="#ff6e00" d="M278.592 169.9c1.853-5.423 5.99-13.376 9.554-17.352a64.512 64.512 0 0 1-11.613-5.1q-13.051-.445-26.1-.949a54.81 54.81 0 0 0 28.164 23.4" data-name="パス 1732"/><path fill="#ff6e00" d="M203.024 154.722a64.6 64.6 0 0 1 10.694 15.363c13.686-6.8 22.892-15.1 29.025-23.88q-11.283-.447-22.573-.927a70.66 70.66 0 0 1-17.146 9.444" data-name="パス 1733"/><path fill="#ffb817" d="M256.064 123.091h29.942v-2.511c-25.863-1.391-51.774-3.38-77.707-5.344v7.855h27.376c-2.178 7.562-6.626 15.363-15.505 22.187q11.289.479 22.572.927a60.669 60.669 0 0 0 4.054-6.666 64.8 64.8 0 0 0 3.633 6.965q13.054.5 26.1.949c-11.9-6.778-17.575-15.9-20.468-24.362" data-name="パス 1734"/><path fill="#c76300" d="M254.068 105.015V89.988c-13.962-2.236-27.931-4.461-41.92-6.543a73.55 73.55 0 0 1-6.415 10.364 99.693 99.693 0 0 1 13.117 10.845 124.506 124.506 0 0 0 8.413-15.364h10.408v15.725H208.3v10.22c25.933 1.965 51.844 3.954 77.707 5.344v-15.564Z" data-name="パス 1735"/><path fill="#be0000" d="M282.015 89.29V71.577h-47.766c1.141-3.615 2.282-7.23 3.136-10.845l-4.276-1.265h37.05c-20.709-3.459-41.426-7.141-62.145-10.841v10.841h13.26a118.49 118.49 0 0 1-9.126 23.978c13.989 2.082 27.958 4.307 41.92 6.543v-.7Z" data-name="パス 1736"/><path fill="#f61537" d="M193.042 7.23 177.5 1.266a281.162 281.162 0 0 1-12.79 39.68q8.89 1.552 17.781 3.131v-2.685c3.992-11.206 7.557-22.955 10.551-34.162" data-name="パス 1737"/><path fill="#f61537" d="M283.725 41.573h-13.974V8.314H216v17.714h38.069v15.545h-46.055v7.053c20.718 3.7 41.435 7.382 62.144 10.841h13.567Z" data-name="パス 1738"/><path fill="#f61537" d="M189.906 22.413V45.4q7.342 1.308 14.686 2.62v-25.6Z" data-name="パス 1739"/><path fill="#f61537" d="M344.387 69.9q9.465 1.231 18.927 2.329c4.92-12.162 5.833-25.109 5.833-36.082h12.975v31.996c0 1.808-.427 2.35-2.139 2.35-1.568 0-7.129 0-12.12-.181.3.787.6 1.64.9 2.533q14.769 1.641 29.526 2.895a55.811 55.811 0 0 0 .369-7.055V36.15H435.3v-19.7h-54.6V.9h-17.4v15.549h-54.18v19.7h44.2c-.106 10.227-1.374 22.695-8.934 33.753" data-name="パス 1740"/><path fill="#be0000" d="M434.738 78.085q-7.4-.322-14.8-.784a87.542 87.542 0 0 1 4.389 8.916Z" data-name="パス 1741"/><path fill="#be0000" d="M392.673 86.037c3.415-2.164 4.986-5.412 5.619-10.3q-14.757-1.236-29.526-2.895a83.22 83.22 0 0 1 3.8 16.265c8.556 0 15.114-.18 20.1-3.073" data-name="パス 1742"/><path fill="#be0000" d="M345.621 95.616a78.916 78.916 0 0 1-6.1 6.4c25.254 3.208 50.575 5.6 76.045 6.4.61-1.236 1.208-2.487 1.777-3.769l-10.98-9.4-2.993.723h-36.362c1.853-2.891 3.565-5.784 5.275-8.677l-14.97-3.8a59.186 59.186 0 0 0 6-11.274q-9.46-1.1-18.926-2.329A47.481 47.481 0 0 1 333.5 81.157c3.707 3.253 9.554 9.941 12.12 14.459" data-name="パス 1743"/><path fill="#c76300" d="M363.324 123.285a63.509 63.509 0 0 1-8.863-10.317H392.1a68.535 68.535 0 0 1-10.138 10.8q11.889.271 23.776.434a94.923 94.923 0 0 0 9.823-15.774c-25.47-.8-50.791-3.2-76.045-6.4a102.22 102.22 0 0 1-30.256 19.263c.059.054.121.118.181.174 1.741.072 3.482.15 5.222.215q24.306.882 48.659 1.613" data-name="パス 1744"/><path fill="#ffb817" d="M390.677 139.719a92.38 92.38 0 0 0 15.064-15.519q-11.887-.159-23.777-.434a82.9 82.9 0 0 1-9.252 6.918 68.952 68.952 0 0 1-9.387-7.4q-24.347-.693-48.659-1.613c-1.742-.065-3.482-.143-5.222-.215 3.551 3.339 8.409 10.755 10.512 15.731a128.469 128.469 0 0 0 21.958-13.917 99.141 99.141 0 0 0 13.26 16.087 160.421 160.421 0 0 1-34.924 9.265c39.59 1.025 79.185 1.477 118.866.975.109-.16.218-.328.325-.48-18.678-1.084-35.076-4.157-48.764-9.4" data-name="パス 1745"/><path fill="#ff6e00" d="M320.25 148.623q-7.4 1.182-15.122 1.941a78.9 78.9 0 0 1 7.984 19.341c21.1-3.073 41.349-8.5 58.744-17.714 15.542 9.4 34.648 14.821 57.746 17.171 2.074-5.786 6.026-14.619 9.514-19.764-39.682.5-79.276.05-118.866-.975" data-name="パス 1746"/><path fill="#f61537" d="m434.738 78.085 3.7-2.894c-4.563-9.579-14.544-23.678-22.671-33.8l-13.118 9.579a246.952 246.952 0 0 1 17.289 26.33q7.4.45 14.8.784" data-name="パス 1747"/><path fill="#be0000" d="M318.1 84.952a89.288 89.288 0 0 0 14.019-16.7q-9.33-1.292-18.662-2.692a59.287 59.287 0 0 1-7.049 6.924A112.489 112.489 0 0 1 318.1 84.952" data-name="パス 1748"/><path fill="#f61537" d="M327.371 42.115a74.3 74.3 0 0 1-13.911 23.441q9.332 1.4 18.661 2.692A122.984 122.984 0 0 0 343.2 47.537Z" data-name="パス 1749"/><path fill="#be0000" d="M584.7 69.313q-8.113 1.506-16.236 2.74c-.115 6.6-.239 12.648-.375 18.221q8.135-2.1 16.257-4.3c.121-5.208.238-10.746.354-16.661" data-name="パス 1750"/><path fill="#c76300" d="M584.346 85.974q-8.124 2.193-16.257 4.3c-.273 11.213-.593 20.421-.973 27.932q8.169-.891 16.319-1.926c.344-8.52.638-18.534.911-30.306" data-name="パス 1751"/><path fill="#ff6e00" d="M563.364 146.407c-1.283 2.349-2.709 3.073-4.848 3.073a134.78 134.78 0 0 1-14.4-.9 60.518 60.518 0 0 1 4.991 20.6c6.843.181 13.4.362 17.68-.723 4.705-1.266 7.985-3.073 11.264-9.037 1.548-2.821 2.7-7.716 3.6-15.828q-8.809.7-17.608 1.315a8.187 8.187 0 0 1-.679 1.5" data-name="パス 1752"/><path fill="#ffb817" d="M567.117 118.207c-.75 14.784-1.737 22.949-3.074 26.7q8.8-.614 17.608-1.315c.742-6.693 1.312-15.575 1.785-27.312a849.8 849.8 0 0 1-16.319 1.926" data-name="パス 1753"/><path fill="#be0000" d="M555.179 73.923q-8.076 1.04-16.16 1.852c-.483 7.759-1.181 15.09-2.176 22.006q8.332-1.829 16.643-3.851c.722-6.413 1.274-13.081 1.693-20.007" data-name="パス 1754"/><path fill="#be0000" d="M524.582 100.345V77.03c-21.687 1.629-43.41 2.1-65.161 1.632v29.715q8.607-.311 17.244-.921a456.013 456.013 0 0 0 47.917-7.111m-25.238-11.958h11.121v8.133h-11.121Zm-26.521 0h11.121v8.133h-11.121Z" data-name="パス 1755"/><path fill="#c76300" d="M553.486 93.93q-8.31 2.016-16.643 3.852a147.7 147.7 0 0 1-5.208 23.621q8.778-.625 17.536-1.416a230.5 230.5 0 0 0 4.315-26.057" data-name="パス 1756"/><path fill="#c76300" d="M525.152 116.945h-25.808v-7.05h25.238v-9.55a455.771 455.771 0 0 1-47.916 7.111q-8.638.621-17.245.921v1.518h24.524v7.05h-25.094v7.328c22.154-.262 44.267-1.012 66.3-2.442Z" data-name="パス 1757"/><path fill="#ff6e00" d="M457 163.579c15.4-1.628 35.931-4.339 56.464-7.05a68.074 68.074 0 0 1 9.98 14.279 85.963 85.963 0 0 0 16.832-24.388q-42.519 2.418-84.834 3.051Z" data-name="パス 1758"/><path fill="#ffb817" d="M531.635 121.4a90.066 90.066 0 0 1-7.481 17.412c-8.271.9-16.683 1.808-24.81 2.531v-9.218h25.808v-10.3c-22.035 1.429-44.147 2.179-66.3 2.442v7.854h25.094v10.844c-10.978.9-20.96 1.809-28.945 2.531l.439 3.968q42.328-.7 84.833-3.051a131.059 131.059 0 0 0 8.9-26.433q-8.759.782-17.536 1.416" data-name="パス 1759"/><path fill="#f61537" d="M483.945 54.044h-24.524v24.618c21.751.466 43.474 0 65.161-1.632V54.044h-25.238v-7.049h27.376v14.1h12.98c-.156 5.059-.381 9.94-.676 14.681q8.084-.806 16.16-1.852.379-6.277.628-12.829h12.832c-.056 3.809-.114 7.455-.175 10.959q8.121-1.247 16.236-2.74c.113-5.764.224-11.866.337-18.342 0-2.53.142-9.58.142-9.58h-28.949c.285-11.929.285-24.582.285-37.776h-16.255c0 13.376 0 25.847-.142 37.776h-13.4V31.45h-27.379v-8.857a220.238 220.238 0 0 0 25.665-4.88l-7.414-16.085c-15.684 4.337-40.352 7.41-61.453 8.855a80.629 80.629 0 0 1 3.707 15.183c7.7-.18 15.826-.722 24.1-1.445v7.229h-28.093v15.545h28.089Zm0 21.509h-11.121V67.6h11.121Zm15.4-7.953h11.121v7.953h-11.122Z" data-name="パス 1760"/></g></svg>