<svg xmlns="http://www.w3.org/2000/svg" width="287.729" height="34.011"><defs><clipPath id="a"><path fill="#fff" d="M0 0h287.729v34.011H0z" data-name="長方形 81"/></clipPath></defs><g data-name="グループ 140"><path fill="#fff" d="m23.032.275-9.115 21.811L4.624.275H0v33.46h4.906V12.868h.089l6.783 16.069h4.094l6.782-16.069h.112v20.867h4.906V.275Z" data-name="パス 458"/><path fill="#fff" d="M35.342 33.736h4.631V9.915h-4.631Zm0-28.689h4.631V.275h-4.631Z" data-name="パス 459"/><g data-name="グループ 139"><g fill="#fff" clip-path="url(#a)" data-name="グループ 138"><path d="M46.472 9.914H51.1v2.524h.088a7.349 7.349 0 0 1 6-2.822A7.765 7.765 0 0 1 62.43 11.7a8.217 8.217 0 0 1 2.47 6.2v15.835h-4.636v-14.2a5.218 5.218 0 0 0-1.29-3.815 4.307 4.307 0 0 0-3.268-1.332 4.378 4.378 0 0 0-3.291 1.332 5.163 5.163 0 0 0-1.315 3.815v14.2h-4.628Z" data-name="パス 460"/><path d="M85.508 31.249a7.763 7.763 0 0 1-5.975 2.762 7.43 7.43 0 0 1-3.575-.9 7.812 7.812 0 0 1-2.6-2.206 6.123 6.123 0 0 1-1.266-3.054 33.948 33.948 0 0 1-.377-6.063 34.084 34.084 0 0 1 .377-6.109 6.029 6.029 0 0 1 1.266-2.963 7.087 7.087 0 0 1 6.174-3.1 7.262 7.262 0 0 1 3.287.752 13.374 13.374 0 0 1 2.688 2.055V.276h4.631v33.46h-4.63ZM80.95 14.388a4.545 4.545 0 0 0-2.513.575 3.625 3.625 0 0 0-1.4 1.7 9.031 9.031 0 0 0-.556 2.349q-.134 1.359-.134 2.786a25.723 25.723 0 0 0 .134 2.649 9.141 9.141 0 0 0 .556 2.44 3.938 3.938 0 0 0 1.4 1.7 4.155 4.155 0 0 0 2.513.645 4.355 4.355 0 0 0 2.6-.691 3.371 3.371 0 0 0 1.312-1.75 9.182 9.182 0 0 0 .6-2.418q.043-1.312.044-2.579 0-1.381-.044-2.647a9.136 9.136 0 0 0-.6-2.35 3.375 3.375 0 0 0-1.312-1.75 4.48 4.48 0 0 0-2.6-.667" data-name="パス 461"/><path d="M108.228 31.625h-.089a3.9 3.9 0 0 1-2 1.79 9.252 9.252 0 0 1-3.688.6A8.252 8.252 0 0 1 96.5 31.9a6.7 6.7 0 0 1-2.2-5.163 6.87 6.87 0 0 1 1.911-4.98 7.483 7.483 0 0 1 5.6-2.065h6.421v-2.513q.044-3.159-4.735-3.066a8.151 8.151 0 0 0-2.735.368 3.379 3.379 0 0 0-1.643 1.476l-3.647-2.872q2.643-3.561 7.8-3.469a12.057 12.057 0 0 1 6.95 1.7q2.6 1.79 2.643 6.15v16.27h-4.63Zm0-7.989h-5.567q-4.055.093-4.007 2.871a2.571 2.571 0 0 0 1.046 2.066 4.765 4.765 0 0 0 3.317.942 7.922 7.922 0 0 0 4.118-.711q1.093-.759 1.093-3.445Z" data-name="パス 462"/><path d="M119.61 9.914h4.632v2.524h.088a7.349 7.349 0 0 1 6-2.822 7.765 7.765 0 0 1 5.241 2.088 8.217 8.217 0 0 1 2.466 6.2v15.831H133.4v-14.2a5.218 5.218 0 0 0-1.29-3.815 4.307 4.307 0 0 0-3.268-1.332 4.378 4.378 0 0 0-3.291 1.332 5.163 5.163 0 0 0-1.312 3.815v14.2h-4.629Z" data-name="パス 463"/><path d="M156.972 31.625h-.089a3.9 3.9 0 0 1-2 1.79 9.25 9.25 0 0 1-3.687.6 8.249 8.249 0 0 1-5.954-2.11 6.7 6.7 0 0 1-2.2-5.163 6.87 6.87 0 0 1 1.911-4.98 7.485 7.485 0 0 1 5.6-2.065h6.421v-2.518q.045-3.159-4.734-3.066a8.147 8.147 0 0 0-2.735.368 3.377 3.377 0 0 0-1.644 1.476l-3.646-2.872q2.643-3.561 7.8-3.469a12.061 12.061 0 0 1 6.951 1.7q2.6 1.79 2.643 6.15v16.27h-4.631Zm0-7.989h-5.566q-4.056.093-4.008 2.871a2.571 2.571 0 0 0 1.046 2.066 4.765 4.765 0 0 0 3.317.942 7.929 7.929 0 0 0 4.119-.711q1.092-.759 1.092-3.445Z" data-name="パス 464"/><path d="M167.207 21.8a21.521 21.521 0 0 1 .6-5.793 8.435 8.435 0 0 1 1.912-3.334 8.762 8.762 0 0 1 2.667-2.123 9.622 9.622 0 0 1 4.335-.935 9.8 9.8 0 0 1 4.424.94 8.353 8.353 0 0 1 2.579 2.135 7.539 7.539 0 0 1 1.949 3.327 23.074 23.074 0 0 1 .555 5.783 22.48 22.48 0 0 1-.556 5.737 8.228 8.228 0 0 1-1.955 3.42 7.336 7.336 0 0 1-1.089 1.033 5.08 5.08 0 0 1-1.489.987 9.006 9.006 0 0 1-4.422 1.032 9.478 9.478 0 0 1-7-3.052 9.227 9.227 0 0 1-1.911-3.42 20.871 20.871 0 0 1-.6-5.737m14.389.046a22.126 22.126 0 0 0-.223-3.73 4.468 4.468 0 0 0-.913-1.981 3.435 3.435 0 0 0-1.514-1.266 4.894 4.894 0 0 0-2.229-.483 4.962 4.962 0 0 0-2.183.483 4.145 4.145 0 0 0-1.559 1.266 5.638 5.638 0 0 0-.869 1.981 18.166 18.166 0 0 0-.268 3.684 17.658 17.658 0 0 0 .268 3.639 6.107 6.107 0 0 0 .869 2.072 5.675 5.675 0 0 0 1.559 1.221 4.766 4.766 0 0 0 2.183.506 4.7 4.7 0 0 0 2.229-.506 4.411 4.411 0 0 0 1.514-1.221 4.817 4.817 0 0 0 .913-2.072 20.757 20.757 0 0 0 .223-3.593" data-name="パス 465"/><path d="m201.561 29.238 12.68-16.372a6.392 6.392 0 0 0 1-1.84 7.019 7.019 0 0 0 .178-1.517 5.071 5.071 0 0 0-1.137-3.29 4.261 4.261 0 0 0-3.344-1.448 4.339 4.339 0 0 0-3.189 1.265 5.582 5.582 0 0 0-1.56 3.564h-4.631a10.407 10.407 0 0 1 2.715-6.9 8.555 8.555 0 0 1 6.3-2.7 9.136 9.136 0 0 1 6.787 2.757 9.466 9.466 0 0 1 2.692 6.821 9.451 9.451 0 0 1-1.957 5.88l-10.431 13.506h12.389v4.771h-18.492Z" data-name="パス 466"/><path d="M224.4 9.6a9.135 9.135 0 0 1 2.871-7.126A8.935 8.935 0 0 1 233.585 0a9.068 9.068 0 0 1 6.43 2.478 9.531 9.531 0 0 1 2.785 7.138v14.756a9.5 9.5 0 0 1-2.781 7.114 9.239 9.239 0 0 1-6.43 2.524 9.21 9.21 0 0 1-9.19-9.623Zm13.77.3q-.135-5.034-4.58-5.128-4.47.093-4.559 5.128v14.211q.09 5.083 4.559 5.128 4.446-.045 4.58-5.128Z" data-name="パス 467"/><path d="m246.679 29.238 12.68-16.372a6.392 6.392 0 0 0 1-1.84 7.02 7.02 0 0 0 .178-1.517 5.071 5.071 0 0 0-1.137-3.29 4.261 4.261 0 0 0-3.344-1.448 4.339 4.339 0 0 0-3.189 1.265A5.582 5.582 0 0 0 251.31 9.6h-4.631a10.407 10.407 0 0 1 2.715-6.9 8.555 8.555 0 0 1 6.3-2.7 9.136 9.136 0 0 1 6.787 2.757 9.466 9.466 0 0 1 2.692 6.821 9.451 9.451 0 0 1-1.957 5.88l-10.434 13.506h12.389v4.771h-18.492Z" data-name="パス 468"/><path d="m269.237 29.238 12.68-16.372a6.392 6.392 0 0 0 1-1.84 7.02 7.02 0 0 0 .178-1.517 5.071 5.071 0 0 0-1.137-3.29 4.261 4.261 0 0 0-3.344-1.448 4.339 4.339 0 0 0-3.189 1.265 5.582 5.582 0 0 0-1.56 3.564h-4.631a10.407 10.407 0 0 1 2.715-6.9 8.555 8.555 0 0 1 6.3-2.7 9.136 9.136 0 0 1 6.787 2.757 9.466 9.466 0 0 1 2.692 6.821 9.451 9.451 0 0 1-1.957 5.88L275.34 28.964h12.389v4.771h-18.492Z" data-name="パス 469"/></g></g></g></svg>