<svg xmlns="http://www.w3.org/2000/svg" width="369.795" height="34.011"><defs><clipPath id="a"><path fill="#fff" d="M0 0h369.795v34.011H0z" data-name="長方形 80"/></clipPath></defs><g data-name="グループ 137"><path fill="#fff" d="M0 .276h4.906v33.46H0z" data-name="長方形 79"/><g data-name="グループ 136"><g fill="#fff" clip-path="url(#a)" data-name="グループ 135"><path d="M12.377 26.46a9.511 9.511 0 0 0 7.311 3.055 6.041 6.041 0 0 0 3.276-.8 2.522 2.522 0 0 0 1.27-2.249 1.993 1.993 0 0 0-.757-1.79 3.876 3.876 0 0 0-2.072-.574l-4.1-.368a7.674 7.674 0 0 1-4.744-2.019 6.222 6.222 0 0 1-1.916-4.752 6.534 6.534 0 0 1 2.514-5.508 9.757 9.757 0 0 1 6.1-1.836 18.062 18.062 0 0 1 2.869.206 14.014 14.014 0 0 1 2.381.643 13.562 13.562 0 0 1 3.826 2.408l-2.875 3.46a14.242 14.242 0 0 0-2.829-1.645 9.2 9.2 0 0 0-3.386-.579 4.5 4.5 0 0 0-3.052.8 2.631 2.631 0 0 0-.914 2.068 1.637 1.637 0 0 0 .691 1.4 3.937 3.937 0 0 0 2.361.85l3.83.3q3.608.276 5.212 2.251a7.768 7.768 0 0 1 1.492 4.9 6.256 6.256 0 0 1-2.734 5.354 11.584 11.584 0 0 1-6.831 1.976 14.418 14.418 0 0 1-10.157-4.267Z" data-name="パス 443"/><path d="M34.263.275h4.631v27.333q0 1.632 1.738 1.631h1.606v4.5h-2.066a6.515 6.515 0 0 1-4.177-1.3q-1.732-1.326-1.732-4.457Z" data-name="パス 444"/><path d="M58.5 31.625h-.089a3.9 3.9 0 0 1-2 1.79 9.25 9.25 0 0 1-3.687.6 8.249 8.249 0 0 1-5.954-2.11 6.7 6.7 0 0 1-2.2-5.163 6.87 6.87 0 0 1 1.911-4.98 7.485 7.485 0 0 1 5.6-2.065H58.5v-2.518q.045-3.159-4.734-3.066a8.147 8.147 0 0 0-2.735.368 3.377 3.377 0 0 0-1.644 1.476l-3.646-2.872q2.643-3.561 7.8-3.469a12.061 12.061 0 0 1 6.951 1.7q2.6 1.79 2.643 6.15v16.27H58.5Zm0-7.989h-5.569q-4.056.093-4.008 2.871a2.571 2.571 0 0 0 1.046 2.066 4.765 4.765 0 0 0 3.317.942A7.929 7.929 0 0 0 57.4 28.8q1.092-.759 1.092-3.445Z" data-name="パス 445"/><path d="M69.88 9.914h4.632v2.524h.088a7.349 7.349 0 0 1 6-2.822 7.765 7.765 0 0 1 5.238 2.084 8.217 8.217 0 0 1 2.462 6.2v15.835h-4.628v-14.2a5.218 5.218 0 0 0-1.29-3.815 4.307 4.307 0 0 0-3.268-1.332 4.378 4.378 0 0 0-3.291 1.332 5.163 5.163 0 0 0-1.312 3.815v14.2H69.88Z" data-name="パス 446"/><path d="M108.916 31.249a7.763 7.763 0 0 1-5.975 2.762 7.43 7.43 0 0 1-3.575-.9 7.813 7.813 0 0 1-2.6-2.206 6.123 6.123 0 0 1-1.266-3.049 33.948 33.948 0 0 1-.377-6.063 34.084 34.084 0 0 1 .377-6.109 6.029 6.029 0 0 1 1.266-2.963 7.087 7.087 0 0 1 6.174-3.1 7.262 7.262 0 0 1 3.287.752 13.374 13.374 0 0 1 2.688 2.055V.276h4.631v33.46h-4.631Zm-4.558-16.861a4.545 4.545 0 0 0-2.513.575 3.625 3.625 0 0 0-1.4 1.7 9.032 9.032 0 0 0-.556 2.349q-.133 1.359-.134 2.786a25.725 25.725 0 0 0 .134 2.649 9.142 9.142 0 0 0 .556 2.44 3.938 3.938 0 0 0 1.4 1.7 4.155 4.155 0 0 0 2.513.645 4.355 4.355 0 0 0 2.6-.691 3.371 3.371 0 0 0 1.312-1.75 9.182 9.182 0 0 0 .6-2.418q.043-1.312.044-2.579 0-1.381-.044-2.647a9.136 9.136 0 0 0-.6-2.35 3.375 3.375 0 0 0-1.312-1.75 4.48 4.48 0 0 0-2.6-.667" data-name="パス 447"/><path d="M129.638 21.8a21.521 21.521 0 0 1 .6-5.793 8.435 8.435 0 0 1 1.912-3.334 8.762 8.762 0 0 1 2.667-2.123 9.622 9.622 0 0 1 4.335-.935 9.8 9.8 0 0 1 4.424.94 8.353 8.353 0 0 1 2.579 2.135 7.539 7.539 0 0 1 1.949 3.327 23.074 23.074 0 0 1 .555 5.783 22.48 22.48 0 0 1-.556 5.737 8.228 8.228 0 0 1-1.955 3.42 7.336 7.336 0 0 1-1.089 1.033 5.08 5.08 0 0 1-1.489.987 9.006 9.006 0 0 1-4.422 1.032 9.478 9.478 0 0 1-7-3.052 9.227 9.227 0 0 1-1.911-3.42 20.871 20.871 0 0 1-.6-5.737m14.389.046a22.126 22.126 0 0 0-.223-3.73 4.468 4.468 0 0 0-.913-1.981 3.435 3.435 0 0 0-1.514-1.266 4.894 4.894 0 0 0-2.229-.483 4.962 4.962 0 0 0-2.183.483 4.145 4.145 0 0 0-1.559 1.266 5.638 5.638 0 0 0-.869 1.981 18.166 18.166 0 0 0-.268 3.684 17.658 17.658 0 0 0 .268 3.639 6.107 6.107 0 0 0 .869 2.072 5.675 5.675 0 0 0 1.559 1.221 4.766 4.766 0 0 0 2.183.506 4.7 4.7 0 0 0 2.229-.506 4.411 4.411 0 0 0 1.514-1.221 4.817 4.817 0 0 0 .913-2.072 20.757 20.757 0 0 0 .223-3.593" data-name="パス 448"/><path d="M155.02 13.584h-2.34v-3.67h2.34V6.771q0-3.4 1.821-5a6.707 6.707 0 0 1 4.466-1.496h3v4.5h-2.65q-2.1-.068-2.005 1.984v3.155h4.655v3.67h-4.655v20.151h-4.632Z" data-name="パス 449"/><path d="M179.025.275h4.624l9.293 21.811L202.057.275h4.64v33.46h-4.906V12.868h-.112L194.9 28.937h-4.1l-6.78-16.069h-.089v20.867h-4.906Z" data-name="パス 450"/><path d="M226.347 31.625h-.089a3.9 3.9 0 0 1-2 1.79 9.25 9.25 0 0 1-3.687.6 8.249 8.249 0 0 1-5.954-2.11 6.7 6.7 0 0 1-2.2-5.163 6.87 6.87 0 0 1 1.911-4.98 7.485 7.485 0 0 1 5.6-2.065h6.421v-2.518q.045-3.159-4.734-3.066a8.147 8.147 0 0 0-2.735.368 3.377 3.377 0 0 0-1.644 1.476l-3.646-2.872q2.643-3.561 7.8-3.469a12.061 12.061 0 0 1 6.951 1.7q2.6 1.79 2.643 6.15v16.27h-4.631Zm0-7.989h-5.566q-4.056.093-4.008 2.871a2.571 2.571 0 0 0 1.046 2.066 4.765 4.765 0 0 0 3.317.942 7.929 7.929 0 0 0 4.119-.711q1.092-.759 1.092-3.445Z" data-name="パス 451"/><path d="M237.73 9.914h4.631v14.2a5.192 5.192 0 0 0 1.312 3.769 4.342 4.342 0 0 0 3.291 1.355 4.272 4.272 0 0 0 3.268-1.355 5.247 5.247 0 0 0 1.29-3.769v-14.2h4.632v23.821h-4.632v-2.547h-.089a7.323 7.323 0 0 1-5.974 2.823 7.678 7.678 0 0 1-5.175-2.154 7.539 7.539 0 0 1-2.554-6.092Z" data-name="パス 452"/><path d="M263.111.276h4.631v4.771h-4.631Zm0 9.638h4.631v23.821h-4.631Z" data-name="パス 453"/><path d="m283.948 29.238 12.68-16.372a6.392 6.392 0 0 0 1-1.84 7.02 7.02 0 0 0 .178-1.517 5.071 5.071 0 0 0-1.137-3.29 4.261 4.261 0 0 0-3.344-1.448 4.339 4.339 0 0 0-3.189 1.265 5.582 5.582 0 0 0-1.56 3.564h-4.631a10.407 10.407 0 0 1 2.715-6.9 8.555 8.555 0 0 1 6.3-2.7 9.136 9.136 0 0 1 6.787 2.757 9.466 9.466 0 0 1 2.692 6.821 9.451 9.451 0 0 1-1.957 5.88l-10.431 13.506h12.389v4.771h-18.492Z" data-name="パス 454"/><path d="M306.782 9.6a9.135 9.135 0 0 1 2.871-7.126A8.935 8.935 0 0 1 315.972 0a9.068 9.068 0 0 1 6.43 2.478 9.531 9.531 0 0 1 2.781 7.138v14.756a9.5 9.5 0 0 1-2.781 7.114 9.239 9.239 0 0 1-6.43 2.524 9.21 9.21 0 0 1-9.19-9.623Zm13.77.3q-.135-5.034-4.58-5.128-4.47.093-4.559 5.128v14.211q.09 5.083 4.559 5.128 4.446-.045 4.58-5.128Z" data-name="パス 455"/><path d="m329.065 29.238 12.68-16.372a6.392 6.392 0 0 0 1-1.84 7.018 7.018 0 0 0 .178-1.517 5.071 5.071 0 0 0-1.137-3.29 4.261 4.261 0 0 0-3.344-1.448 4.339 4.339 0 0 0-3.189 1.265A5.582 5.582 0 0 0 333.7 9.6h-4.631a10.407 10.407 0 0 1 2.715-6.9 8.555 8.555 0 0 1 6.3-2.7 9.136 9.136 0 0 1 6.787 2.757 9.466 9.466 0 0 1 2.692 6.821 9.451 9.451 0 0 1-1.957 5.88l-10.438 13.506h12.389v4.771h-18.492Z" data-name="パス 456"/><path d="M358.156 14.392h1.6a4.9 4.9 0 0 0 3.7-1.361 4.62 4.62 0 0 0 1.314-3.414 4.973 4.973 0 0 0-1.357-3.484 4.731 4.731 0 0 0-3.382-1.361 4.211 4.211 0 0 0-2.715.992 5.018 5.018 0 0 0-1.735 3.068h-4.652a9.889 9.889 0 0 1 2.914-6.262 8.343 8.343 0 0 1 6-2.57 9.163 9.163 0 0 1 7.027 2.915 9.811 9.811 0 0 1 2.534 6.61 10.273 10.273 0 0 1-.688 3.718 7.8 7.8 0 0 1-2.87 3.189 8.341 8.341 0 0 1 3.053 3.305 9.478 9.478 0 0 1 .9 4.039 10.016 10.016 0 0 1-2.822 7.413 9.572 9.572 0 0 1-7.02 2.822 8.727 8.727 0 0 1-5.865-2.2 10.553 10.553 0 0 1-3.31-6.368h4.647a6.8 6.8 0 0 0 1.756 2.715 4.314 4.314 0 0 0 3.069 1.081 4.6 4.6 0 0 0 3.446-1.45 5.229 5.229 0 0 0 1.468-3.865 5.458 5.458 0 0 0-1.467-3.957 4.9 4.9 0 0 0-3.557-1.357h-1.984Z" data-name="パス 457"/></g></g></g></svg>