<svg xmlns="http://www.w3.org/2000/svg" width="209.791" height="34.011"><defs><clipPath id="a"><path fill="#fff" d="M0 0h209.791v34.011H0z" data-name="長方形 82"/></clipPath></defs><g data-name="グループ 408"><g fill="#fff" clip-path="url(#a)" data-name="グループ 141"><path d="M3.221 25.629a13.956 13.956 0 0 0 9.21 3.335q6.318-.092 6.407-4.663.045-3.743-4.224-4.5-1.958-.276-4.291-.62a10.472 10.472 0 0 1-6.36-3.193 9.051 9.051 0 0 1-2.245-6.2 9.324 9.324 0 0 1 2.82-7.078Q7.271.046 12.289 0a17.833 17.833 0 0 1 10.505 3.456l-2.735 4.166a14.532 14.532 0 0 0-8.029-2.575 5.991 5.991 0 0 0-3.782 1.171 4.41 4.41 0 0 0-1.624 3.629 3.756 3.756 0 0 0 1.09 2.619 6.161 6.161 0 0 0 3.49 1.653q1.335.231 3.647.529 4.558.642 6.737 3.376a9.691 9.691 0 0 1 2.156 6.248q-.243 9.6-11.372 9.739A18.068 18.068 0 0 1 0 29.443Z" data-name="パス 470"/><path d="M32.854 23.635A5.676 5.676 0 0 0 34.456 28a5.245 5.245 0 0 0 3.915 1.515 6.834 6.834 0 0 0 5.049-2.319l3.358 2.962a10.732 10.732 0 0 1-8.311 3.853 11.674 11.674 0 0 1-3.555-.55 8.563 8.563 0 0 1-1.689-.8 8.111 8.111 0 0 1-1.623-1.083 9.492 9.492 0 0 1-2.378-3.718 15.08 15.08 0 0 1-1-5.967 17.063 17.063 0 0 1 .867-5.875 10.276 10.276 0 0 1 2.221-3.763 8.246 8.246 0 0 1 3.089-2.02 9.63 9.63 0 0 1 3.333-.62 9.438 9.438 0 0 1 6.69 2.685 9.947 9.947 0 0 1 2.822 7.392v3.943Zm9.758-3.943a6.217 6.217 0 0 0-1.447-4.22 5.006 5.006 0 0 0-6.863 0 6.521 6.521 0 0 0-1.448 4.22Z" data-name="パス 471"/><path d="M51.723 21.8a21.529 21.529 0 0 1 .6-5.794 8.437 8.437 0 0 1 1.912-3.333 8.747 8.747 0 0 1 2.665-2.121 9.622 9.622 0 0 1 4.335-.936 9.809 9.809 0 0 1 4.424.941 8.35 8.35 0 0 1 2.579 2.134 7.548 7.548 0 0 1 1.949 3.328 23.074 23.074 0 0 1 .555 5.783 22.486 22.486 0 0 1-.556 5.737 8.231 8.231 0 0 1-1.955 3.419 7.34 7.34 0 0 1-1.089 1.034 5.078 5.078 0 0 1-1.489.986 9.016 9.016 0 0 1-4.422 1.033 9.483 9.483 0 0 1-7-3.053 9.231 9.231 0 0 1-1.911-3.419 20.877 20.877 0 0 1-.6-5.737m14.389.046a22.126 22.126 0 0 0-.223-3.73 4.468 4.468 0 0 0-.913-1.981 3.443 3.443 0 0 0-1.514-1.267 4.894 4.894 0 0 0-2.229-.483 4.962 4.962 0 0 0-2.183.483 4.156 4.156 0 0 0-1.559 1.267 5.638 5.638 0 0 0-.869 1.981 18.159 18.159 0 0 0-.268 3.684 17.647 17.647 0 0 0 .268 3.638 6.12 6.12 0 0 0 .869 2.073 5.673 5.673 0 0 0 1.559 1.22 4.767 4.767 0 0 0 2.183.507 4.7 4.7 0 0 0 2.229-.507 4.41 4.41 0 0 0 1.514-1.22 4.827 4.827 0 0 0 .913-2.073 20.752 20.752 0 0 0 .223-3.592" data-name="パス 472"/><path d="M76.371 9.914H81v14.2a5.2 5.2 0 0 0 1.312 3.77 4.345 4.345 0 0 0 3.291 1.355 4.276 4.276 0 0 0 3.268-1.355 5.25 5.25 0 0 0 1.29-3.77v-14.2h4.632v23.821h-4.63v-2.548h-.089a7.324 7.324 0 0 1-5.974 2.824 7.687 7.687 0 0 1-5.175-2.154 7.539 7.539 0 0 1-2.554-6.092Z" data-name="パス 473"/><path d="M101.615.275h4.631v27.333q0 1.63 1.738 1.631h1.606v4.5h-2.066a6.515 6.515 0 0 1-4.177-1.3q-1.732-1.324-1.732-4.457Z" data-name="パス 474"/><path d="m123.439 29.237 12.681-16.372a6.411 6.411 0 0 0 1-1.84 6.954 6.954 0 0 0 .179-1.517 5.069 5.069 0 0 0-1.138-3.289 4.254 4.254 0 0 0-3.343-1.448 4.339 4.339 0 0 0-3.19 1.265A5.578 5.578 0 0 0 128.07 9.6h-4.631a10.415 10.415 0 0 1 2.715-6.9 8.552 8.552 0 0 1 6.3-2.7 9.134 9.134 0 0 1 6.788 2.756 9.473 9.473 0 0 1 2.692 6.822 9.457 9.457 0 0 1-1.957 5.88l-10.435 13.506h12.39v4.771h-18.493Z" data-name="パス 475"/><path d="M146.273 9.6a9.134 9.134 0 0 1 2.871-7.126A8.935 8.935 0 0 1 155.463 0a9.068 9.068 0 0 1 6.43 2.478 9.53 9.53 0 0 1 2.781 7.137v14.758a9.5 9.5 0 0 1-2.781 7.114 9.243 9.243 0 0 1-6.43 2.524 9.21 9.21 0 0 1-9.19-9.624Zm13.77.3q-.135-5.035-4.58-5.128-4.47.093-4.559 5.128v14.212q.09 5.082 4.559 5.128 4.446-.045 4.58-5.128Z" data-name="パス 476"/><path d="m168.557 29.237 12.68-16.372a6.392 6.392 0 0 0 1-1.84 7.013 7.013 0 0 0 .178-1.517 5.069 5.069 0 0 0-1.137-3.289 4.255 4.255 0 0 0-3.344-1.448 4.335 4.335 0 0 0-3.189 1.265 5.578 5.578 0 0 0-1.56 3.564h-4.631a10.41 10.41 0 0 1 2.715-6.9 8.551 8.551 0 0 1 6.3-2.7 9.132 9.132 0 0 1 6.787 2.756 9.469 9.469 0 0 1 2.692 6.822 9.451 9.451 0 0 1-1.957 5.88L174.66 28.964h12.389v4.771h-18.492Z" data-name="パス 477"/><path d="M191.39 9.6a9.134 9.134 0 0 1 2.871-7.126A8.935 8.935 0 0 1 200.58 0a9.068 9.068 0 0 1 6.43 2.478 9.53 9.53 0 0 1 2.781 7.137v14.758a9.5 9.5 0 0 1-2.781 7.114 9.243 9.243 0 0 1-6.43 2.524 9.21 9.21 0 0 1-9.19-9.624Zm13.77.3q-.135-5.035-4.58-5.128-4.47.093-4.559 5.128v14.212q.09 5.082 4.559 5.128 4.446-.045 4.58-5.128Z" data-name="パス 478"/></g></g></svg>