<svg xmlns="http://www.w3.org/2000/svg" width="118" height="118"><defs><clipPath id="a"><path fill="none" d="M0 0h63.39v84.708H0z" data-name="長方形 214"/></clipPath></defs><circle cx="59" cy="59" r="59" fill="#fff" data-name="楕円形 15"/><g data-name="グループ 530"><g clip-path="url(#a)" data-name="グループ 529" transform="translate(27.305 15.292)"><path fill="#ff743a" d="M57.75 59.853a1.31 1.31 0 0 0-1.2-.778H43.2V37.083a1.31 1.31 0 0 0-1.3-1.311h-.814a2.451 2.451 0 0 0 .417-1.565 3.7 3.7 0 0 0 3.053-1.657 3.894 3.894 0 0 0 3.8 1.188 3.751 3.751 0 0 0 2.087-1.4 5.081 5.081 0 0 0 4.378.972 5.368 5.368 0 0 0 3.772-6.3c.131-.023.259-.043.389-.075a6.153 6.153 0 0 0 4.213-7.6 6.153 6.153 0 0 0-7.308-4.7 5.767 5.767 0 0 0-3.813 3.217 5 5 0 0 0-3.515-.42 5.282 5.282 0 0 0-3.874 5.181 3.706 3.706 0 0 0-1.5.062 4.037 4.037 0 0 0-2.879 4.577 3.626 3.626 0 0 0-2.415 4.277 3.559 3.559 0 0 0 .2.547 2.705 2.705 0 0 0-2.131 3.163 2.367 2.367 0 0 0 .218.54h-3.8a1.311 1.311 0 0 0-1.312 1.311v21.985H21.2V22.1a1.312 1.312 0 0 0-1.312-1.311h-.778a2.369 2.369 0 0 0 .149-1.039 3.778 3.778 0 0 0 .851-.107 3.734 3.734 0 0 0 2.2-1.55 3.894 3.894 0 0 0 3.8 1.188 3.758 3.758 0 0 0 2.087-1.4 5.081 5.081 0 0 0 4.378.971 5.367 5.367 0 0 0 3.772-6.3c.131-.023.259-.043.388-.075a6.152 6.152 0 0 0 4.213-7.6A6.151 6.151 0 0 0 33.639.17a5.774 5.774 0 0 0-3.813 3.217 4.993 4.993 0 0 0-3.516-.419 5.279 5.279 0 0 0-3.872 5.181 3.687 3.687 0 0 0-1.5.061 4.04 4.04 0 0 0-2.881 4.578 3.625 3.625 0 0 0-2.414 4.276 3.422 3.422 0 0 0 .2.547 2.706 2.706 0 0 0-2.132 3.163l.006.014h-3.355a1.311 1.311 0 0 0-1.31 1.312v36.975H1.311A1.31 1.31 0 0 0 0 60.385V83.4a1.31 1.31 0 0 0 1.311 1.311h59.724a1.311 1.311 0 0 0 1.311-1.311V70.471a1.3 1.3 0 0 0-.114-.532Z" data-name="パス 2650"/></g></g></svg>