<svg xmlns="http://www.w3.org/2000/svg" width="118" height="118"><defs><clipPath id="a"><path fill="none" d="M0 0h107.479v44.325H0z" data-name="長方形 217"/></clipPath></defs><circle cx="59" cy="59" r="59" fill="#fff" data-name="楕円形 19"/><g data-name="グループ 536"><g fill="#ff743a" clip-path="url(#a)" data-name="グループ 535" transform="translate(6 41)"><path d="M98.805 8.654V4.849a.75.75 0 0 0-.75-.75h-.75a.75.75 0 0 1-.75-.75v-2.6A.749.749 0 0 0 95.806 0h-1.875a.749.749 0 0 0-.75.749v2.6a.75.75 0 0 1-.75.75h-1.5a.749.749 0 0 0-.749.75v3.805a.75.75 0 0 1-.75.75h-3.75a.75.75 0 0 0-.75.75v9.592a.75.75 0 0 0 .75.75h13.873a.75.75 0 0 0 .75-.75v-9.592a.75.75 0 0 0-.75-.75.75.75 0 0 1-.75-.75" data-name="パス 2658"/><path d="M4.261 16.013H17.5a1.083 1.083 0 0 1 .827.384l2.873 3.4a1.085 1.085 0 0 0 .827.383h51.888a1.082 1.082 0 0 0 .766-.317l3.049-3.048a1.083 1.083 0 0 1 .766-.318h27.9a1.083 1.083 0 0 1 1.069 1.259l-1.246 7.6a1.083 1.083 0 0 1-1.069.908H9.312a1.084 1.084 0 0 1-.919-.509L3.342 17.67a1.083 1.083 0 0 1 .919-1.657" data-name="パス 2659"/><path d="M55.038 12.38H41.169a.8.8 0 0 1-.795-.8V5.625a.8.8 0 0 1 .795-.8h13.869a.8.8 0 0 1 .8.8v5.96a.8.8 0 0 1-.8.8" data-name="パス 2660"/><path d="M37.467 12.38H23.6a.8.8 0 0 1-.8-.8V5.625a.8.8 0 0 1 .8-.8h13.867a.8.8 0 0 1 .8.8v5.96a.8.8 0 0 1-.8.8" data-name="パス 2661"/><path d="M72.608 12.38H58.739a.8.8 0 0 1-.795-.8V5.625a.8.8 0 0 1 .795-.8h13.869a.794.794 0 0 1 .795.8v5.96a.794.794 0 0 1-.795.8" data-name="パス 2662"/><path d="M55.038 21.329H41.169a.8.8 0 0 1-.795-.8v-5.96a.794.794 0 0 1 .795-.794h13.869a.794.794 0 0 1 .8.794v5.96a.8.8 0 0 1-.8.8" data-name="パス 2663"/><path d="M37.467 21.329H23.6a.8.8 0 0 1-.8-.8v-5.96a.794.794 0 0 1 .8-.794h13.867a.794.794 0 0 1 .8.794v5.96a.8.8 0 0 1-.8.8" data-name="パス 2664"/><path d="M72.608 21.329H58.739a.8.8 0 0 1-.795-.8v-5.96a.794.794 0 0 1 .795-.794h13.869a.794.794 0 0 1 .795.794v5.96a.794.794 0 0 1-.795.8" data-name="パス 2665"/><path d="M83.672 34.718a12.7 12.7 0 0 1-7.536-2.263 13.681 13.681 0 0 1-15.073 0 12.7 12.7 0 0 1-7.536 2.263 12.7 12.7 0 0 1-7.536-2.263 12.709 12.709 0 0 1-7.536 2.263 12.7 12.7 0 0 1-7.536-2.263 12.7 12.7 0 0 1-7.537 2.263 12.7 12.7 0 0 1-7.536-2.263 12.7 12.7 0 0 1-7.537 2.263A12.557 12.557 0 0 1 .4 32.162a1.09 1.09 0 0 1 1.39-1.68 10.367 10.367 0 0 0 6.523 2.054 10.17 10.17 0 0 0 6.794-2.3 1.092 1.092 0 0 1 1.486 0 10.169 10.169 0 0 0 6.793 2.3 10.172 10.172 0 0 0 6.794-2.3 1.092 1.092 0 0 1 1.486 0 10.166 10.166 0 0 0 6.793 2.3 10.168 10.168 0 0 0 6.793-2.3 1.092 1.092 0 0 1 1.486 0 10.167 10.167 0 0 0 6.793 2.3 10.166 10.166 0 0 0 6.793-2.3 1.092 1.092 0 0 1 1.486 0 10.169 10.169 0 0 0 6.793 2.3 10.17 10.17 0 0 0 6.794-2.3 1.092 1.092 0 0 1 1.486 0 10.169 10.169 0 0 0 6.793 2.3 10.71 10.71 0 0 0 6.211-1.811 1.091 1.091 0 1 1 1.29 1.759 12.74 12.74 0 0 1-7.5 2.234" data-name="パス 2666"/><path d="M74.832 44.325a12.7 12.7 0 0 1-7.532-2.263 13.681 13.681 0 0 1-15.073 0 12.7 12.7 0 0 1-7.536 2.263 12.7 12.7 0 0 1-7.536-2.263 12.7 12.7 0 0 1-7.536 2.263A12.555 12.555 0 0 1 21.7 41.77a1.091 1.091 0 0 1 1.39-1.681 10.362 10.362 0 0 0 6.524 2.054 10.166 10.166 0 0 0 6.793-2.3 1.092 1.092 0 0 1 1.486 0 10.166 10.166 0 0 0 6.793 2.3 10.166 10.166 0 0 0 6.793-2.3 1.092 1.092 0 0 1 1.486 0 10.166 10.166 0 0 0 6.793 2.3 10.168 10.168 0 0 0 6.794-2.3 1.092 1.092 0 0 1 1.486 0 10.164 10.164 0 0 0 6.793 2.3 12.047 12.047 0 0 0 3.942-.645 1.091 1.091 0 0 1 .722 2.059 14.066 14.066 0 0 1-4.664.768" data-name="パス 2667"/></g></g></svg>