<svg xmlns="http://www.w3.org/2000/svg" width="118" height="118"><defs><clipPath id="a"><path fill="none" d="M0 0h89.617v82.671H0z" data-name="長方形 241"/></clipPath></defs><circle cx="59" cy="59" r="59" fill="#fff" data-name="楕円形 16"/><g data-name="グループ 600"><g fill="#ff743a" clip-path="url(#a)" data-name="グループ 599" transform="translate(14 17.665)"><path d="M69.144 48.608c-.011-.232-.03-.457-.044-.686h-6.746a5.113 5.113 0 0 0-4.437 2.57l-3.541 6.172a5.114 5.114 0 0 0 0 5.09l3.647 6.36-1.54 1.44-3.727-6.5a5.115 5.115 0 0 0-4.438-2.57h-7.02a5.116 5.116 0 0 0-4.438 2.57l-3.726 6.5-1.54-1.439 3.648-6.36a5.122 5.122 0 0 0 0-5.09l-3.541-6.172a5.114 5.114 0 0 0-4.437-2.57h-6.746c-.014.23-.033.454-.044.686-.336 6.815 2.81 12.756 6.966 17.573a15.182 15.182 0 0 0-4.962 8.067c-1.3 5.892.045 7.605.045 7.605s.758 2.343 4.42-.918c2.7-2.406 6.377-5.963 8.123-7.666a67.477 67.477 0 0 0 8.723 5.652 2.015 2.015 0 0 0 .96.242h.12a2.008 2.008 0 0 0 .96-.242 67.631 67.631 0 0 0 8.726-5.652c1.743 1.7 5.42 5.26 8.122 7.666 3.661 3.261 4.419.918 4.419.918s1.345-1.713.044-7.605a15.186 15.186 0 0 0-4.96-8.067c4.155-4.817 7.3-10.758 6.964-17.573" data-name="パス 2722"/><path d="M48.319 35.767h-7.021a5.116 5.116 0 0 0-4.438 2.57l-3.539 6.172a5.114 5.114 0 0 0 0 5.09l3.538 6.172a5.116 5.116 0 0 0 4.438 2.57h7.022a5.116 5.116 0 0 0 4.44-2.57l3.541-6.172a5.114 5.114 0 0 0 0-5.09l-3.541-6.172a5.116 5.116 0 0 0-4.438-2.57" data-name="パス 2723"/><path d="m33.076 24.452 3.785 6.6a5.116 5.116 0 0 0 4.438 2.57h7.021a5.114 5.114 0 0 0 4.437-2.57l3.785-6.6.056-.1a.859.859 0 0 0-.327-1.141 24.825 24.825 0 0 0-6.539-2.582c.684-1.134 1.664-2.518 2.748-4.254 2.383-3.813-.715-10.725-3.1-13.585-.853-1.029-3.104-2.818-5.392-2.79a8.007 8.007 0 0 0-5.531 2.786c-2.384 2.86-5.482 9.772-3.1 13.585 1.223 1.956 2.314 3.469 3 4.675a24.308 24.308 0 0 0-5.01 2.161.86.86 0 0 0-.327 1.141l.056.1" data-name="パス 2724"/><path d="M22.923 34.992a3.471 3.471 0 0 0 .283.257 37.86 37.86 0 0 0-2.438 9.863.861.861 0 0 0 .857.957h5.638a5.116 5.116 0 0 0 4.438-2.57l3.54-6.172a5.114 5.114 0 0 0 0-5.09l-3.788-6.6v-.009a.855.855 0 0 0-1.29-.189c-.441.369-.864.763-1.278 1.168-1.541-2.521-4.526-5.858-9.276-5.067C6.962 23.643 1.483 41.079.311 44.473s1.089 7.352 4.648 3.289c4.546-5.191 15.679-15.194 17.964-12.77" data-name="パス 2725"/><path d="M89.306 44.473c-1.171-3.394-6.65-20.831-19.292-22.937-4.75-.791-7.735 2.545-9.276 5.067-.415-.405-.837-.8-1.278-1.168a.855.855 0 0 0-1.29.189v.008l-3.788 6.6a5.114 5.114 0 0 0 0 5.09l3.533 6.176a5.113 5.113 0 0 0 4.437 2.57h5.638a.861.861 0 0 0 .857-.957 37.86 37.86 0 0 0-2.432-9.862 3.628 3.628 0 0 0 .283-.257c2.282-2.425 13.417 7.579 17.961 12.77 3.564 4.067 5.818.109 4.647-3.285" data-name="パス 2726"/></g></g></svg>