<svg xmlns="http://www.w3.org/2000/svg" width="118" height="118"><defs><clipPath id="a"><path fill="none" d="M0 0h89.379v50.706H0z" data-name="長方形 228"/></clipPath></defs><circle cx="59" cy="59" r="59" fill="#fff" data-name="楕円形 17"/><g data-name="グループ 564"><g clip-path="url(#a)" data-name="グループ 563" transform="translate(14 32.596)"><path fill="#ff743a" d="M82.925 30.514V1.917A1.917 1.917 0 0 0 81.008 0H52.577a1.917 1.917 0 0 0-1.838 1.387l-5.085 17.674a1.918 1.918 0 0 1-1.843 1.387H28.767a1.917 1.917 0 0 0-1.917 1.918v8.147a1.917 1.917 0 0 1-1.917 1.917h-9.106a1.917 1.917 0 0 0-1.917 1.917v3.2a1.917 1.917 0 0 0 1.917 1.917h69.012a1.917 1.917 0 0 0 1.917-1.917v-3.2a1.917 1.917 0 0 0-1.917-1.916 1.917 1.917 0 0 1-1.917-1.917" data-name="パス 2698"/><path fill="#fff" d="M76.81 18.9h-4.726a1.333 1.333 0 0 1-1.333-1.333V5.487a1.333 1.333 0 0 1 1.333-1.333h4.726a1.333 1.333 0 0 1 1.33 1.333v12.081a1.333 1.333 0 0 1-1.333 1.333" data-name="パス 2699"/><path fill="#fff" d="M64.498 18.9H53.186a1.333 1.333 0 0 1-1.286-1.682l3.279-12.08a1.334 1.334 0 0 1 1.287-.984h8.031a1.333 1.333 0 0 1 1.333 1.333v12.081a1.333 1.333 0 0 1-1.333 1.333" data-name="パス 2700"/><path fill="#fff" d="M26.53 32.191h59.636v15.656H26.53z" data-name="長方形 227"/><path fill="#ff743a" d="M78.292 50.708H33.48a11.087 11.087 0 0 1 0-22.173h44.812a11.087 11.087 0 1 1 0 22.173m-44.812-17.1a6.008 6.008 0 0 0 0 12.015h44.812a6.008 6.008 0 0 0 0-12.015Z" data-name="パス 2701"/><path fill="#ff743a" d="M26.8 5.704 18.524 44.84a2.126 2.126 0 0 1-1.424 1.582L4.294 50.6a2.127 2.127 0 0 1-2.682-1.362L.105 44.624a2.128 2.128 0 0 1 1.222-2.632l8.057-3.272a2.127 2.127 0 0 0 1.233-1.344L20.734 4.517a2.127 2.127 0 0 1 2.164-1.5l1.955.12A2.128 2.128 0 0 1 26.8 5.704" data-name="パス 2702"/><path fill="#ff743a" d="M37.576 39.62a3.377 3.377 0 1 1-3.377-3.377 3.377 3.377 0 0 1 3.377 3.377" data-name="パス 2703"/><path fill="#ff743a" d="M81.19 39.62a3.377 3.377 0 1 1-3.377-3.377 3.377 3.377 0 0 1 3.377 3.377" data-name="パス 2704"/></g></g></svg>