<svg xmlns="http://www.w3.org/2000/svg" width="118" height="118"><defs><clipPath id="a"><path fill="none" d="M0 0h87.085v77.984H0z" data-name="長方形 229"/></clipPath></defs><circle cx="59" cy="59" r="59" fill="#fff" data-name="楕円形 18"/><g data-name="グループ 566"><g fill="#ff743a" clip-path="url(#a)" data-name="グループ 565" transform="translate(13 19.645)"><path d="M46.924 13.992a1.2 1.2 0 0 1 2.075 0l4.545 7.868-3.652 2.109-1.834 1.045.012.007-.025.013 22.591 13.042V20.755l.013-8.745-.012.007v-.029l-5.5 3.174L60.598 7.3a14.592 14.592 0 0 0-25.274 0L27.988 20l11.562 6.676.017.009.021.012Z" data-name="パス 2705"/><path d="m85.107 49.746-7.312-12.665-.012-.022-.012-.021-11.564 6.678-.014.008-.022.012 7.336 12.708a1.2 1.2 0 0 1-1.036 1.8h-9.086v-4.222l.013-2.109-.013.007v-.028l-15.075 8.7-7.5 4.32.013.007-.025.014 22.587 13.05v-6.348h9.085a14.592 14.592 0 0 0 12.637-21.888" data-name="パス 2706"/><path d="m24.747 41.424-.01-.009.027-.009-19.491-17.31v.013l-.021-.018L0 49.623h.013l-.006.028Z" data-name="パス 2707"/><path d="M27.597 58.209h11.056v13.509H27.597c-5.064 0-12.717 0-16.606-8.945-1.9-4.369-6.23-16.175-6.413-16.676l12.684-4.648c.036.1 2.993 8.162 5 13.228a5.958 5.958 0 0 0 5.33 3.532" data-name="パス 2708"/></g></g></svg>