<svg xmlns="http://www.w3.org/2000/svg" id="_編集モード" viewBox="0 0 86 86"><defs><style>.cls-1{isolation:isolate}.cls-3{stroke-width:0;fill:#fff}</style></defs><g id="_グループ_32"><circle id="_楕円形_1" cx="43" cy="43" r="43" style="stroke-width:0;fill:#ff8100"/><g id="_01" class="cls-1"><g class="cls-1"><path d="M18.48 30.58c1.95-2.9 5.1-4.36 9.44-4.36s7.49 1.45 9.44 4.36c1.95 2.9 2.93 6.88 2.93 11.92s-.98 9.11-2.93 12.01c-1.95 2.9-5.1 4.36-9.44 4.36s-7.49-1.45-9.44-4.36c-1.95-2.9-2.93-6.91-2.93-12.01s.98-9.02 2.93-11.92Zm13.44 5.08c-.65-1.6-1.98-2.4-4-2.4s-3.36.8-4 2.4c-.65 1.6-.97 3.88-.97 6.84 0 2 .12 3.65.35 4.95.23 1.31.71 2.36 1.43 3.17s1.78 1.21 3.19 1.21 2.47-.4 3.19-1.21c.72-.81 1.19-1.86 1.43-3.17.23-1.3.35-2.96.35-4.95 0-2.96-.32-5.24-.97-6.84ZM66.85 33.44H53.12v6.07c.59-.64 1.41-1.17 2.46-1.58 1.06-.41 2.2-.62 3.43-.62 2.2 0 4.03.5 5.48 1.5 1.45 1 2.51 2.29 3.19 3.87s1.01 3.3 1.01 5.15c0 3.43-.97 6.15-2.9 8.16C63.85 58 61.13 59 57.61 59c-2.35 0-4.39-.4-6.12-1.21-1.73-.81-3.07-1.93-4-3.37-.94-1.44-1.45-3.09-1.54-4.97h7.35c.18.91.6 1.67 1.28 2.27.67.6 1.6.9 2.77.9 1.38 0 2.41-.44 3.08-1.32s1.01-2.05 1.01-3.52-.35-2.54-1.06-3.3-1.73-1.14-3.08-1.14c-1 0-1.82.24-2.46.73-.65.48-1.07 1.12-1.28 1.91H46.3V26.84h20.55v6.6Z" class="cls-3"/></g></g></g></svg>