<svg xmlns="http://www.w3.org/2000/svg" id="_編集モード" viewBox="0 0 86 86"><defs><style>.cls-1{isolation:isolate}.cls-3{stroke-width:0;fill:#fff}</style></defs><g id="_グループ_32"><circle id="_楕円形_1" cx="43" cy="43" r="43" style="stroke-width:0;fill:#ff8100"/><g id="_01" class="cls-1"><g class="cls-1"><path d="M20.56 30.58c1.95-2.9 5.1-4.36 9.44-4.36s7.49 1.45 9.44 4.36c1.95 2.9 2.93 6.88 2.93 11.92s-.98 9.11-2.93 12.01c-1.95 2.9-5.1 4.36-9.44 4.36s-7.49-1.45-9.44-4.36c-1.95-2.9-2.93-6.91-2.93-12.01s.98-9.02 2.93-11.92ZM34 35.66c-.65-1.6-1.98-2.4-4-2.4s-3.36.8-4 2.4c-.65 1.6-.97 3.88-.97 6.84 0 2 .12 3.65.35 4.95.23 1.31.71 2.36 1.43 3.17s1.78 1.21 3.19 1.21 2.47-.4 3.19-1.21c.72-.81 1.19-1.86 1.43-3.17.23-1.3.35-2.96.35-4.95 0-2.96-.32-5.24-.97-6.84ZM47.42 51.87c2.87-2.38 5.14-4.33 6.8-5.85 1.66-1.52 3.06-3.12 4.2-4.8 1.14-1.67 1.72-3.3 1.72-4.88 0-1.2-.28-2.14-.84-2.82-.56-.67-1.39-1.01-2.51-1.01s-1.99.42-2.62 1.25c-.63.84-.95 2.02-.95 3.54h-7.26c.06-2.49.59-4.58 1.61-6.25 1.01-1.67 2.35-2.9 4-3.7s3.5-1.19 5.52-1.19c3.49 0 6.12.9 7.9 2.68 1.77 1.79 2.66 4.12 2.66 7 0 3.14-1.07 6.05-3.21 8.73-2.14 2.68-4.87 5.3-8.18 7.85h11.88v6.12H46.05v-5.59c1-.79 1.45-1.16 1.36-1.1Z" class="cls-3"/></g></g></g></svg>