<svg xmlns="http://www.w3.org/2000/svg" id="_編集モード" viewBox="0 0 86 86"><defs><style>.cls-1{isolation:isolate}.cls-3{stroke-width:0;fill:#fff}</style></defs><g id="_グループ_32"><circle id="_楕円形_1" cx="43" cy="43" r="43" style="stroke-width:0;fill:#ff8100"/><g id="_01" class="cls-1"><g class="cls-1"><path d="M20.38 30.58c1.95-2.9 5.1-4.36 9.44-4.36s7.49 1.45 9.44 4.36c1.95 2.9 2.93 6.88 2.93 11.92s-.98 9.11-2.93 12.01c-1.95 2.9-5.1 4.36-9.44 4.36s-7.49-1.45-9.44-4.36c-1.95-2.9-2.93-6.91-2.93-12.01s.98-9.02 2.93-11.92Zm13.44 5.08c-.65-1.6-1.98-2.4-4-2.4s-3.36.8-4 2.4c-.65 1.6-.97 3.88-.97 6.84 0 2 .12 3.65.35 4.95.23 1.31.71 2.36 1.43 3.17s1.78 1.21 3.19 1.21 2.47-.4 3.19-1.21c.72-.81 1.19-1.86 1.43-3.17.23-1.3.35-2.96.35-4.95 0-2.96-.32-5.24-.97-6.84ZM49.48 28.68c1.94-1.7 4.56-2.55 7.88-2.55 2.2 0 4.08.38 5.65 1.14 1.57.76 2.76 1.8 3.56 3.12.81 1.32 1.21 2.8 1.21 4.44 0 1.94-.48 3.51-1.45 4.73-.97 1.22-2.1 2.05-3.39 2.49v.18c1.67.56 2.99 1.48 3.96 2.77.97 1.29 1.45 2.95 1.45 4.97 0 1.82-.42 3.42-1.25 4.82-.84 1.39-2.05 2.49-3.65 3.28-1.6.79-3.5 1.19-5.7 1.19-3.52 0-6.33-.86-8.43-2.6-2.1-1.73-3.21-4.34-3.32-7.83h7.3c.03 1.29.4 2.31 1.1 3.06.7.75 1.73 1.12 3.08 1.12 1.14 0 2.03-.33 2.66-.99.63-.66.95-1.53.95-2.62 0-1.41-.45-2.43-1.34-3.06-.9-.63-2.33-.95-4.29-.95h-1.41v-6.12h1.41c1.5 0 2.71-.26 3.63-.77.92-.51 1.39-1.43 1.39-2.75 0-1.06-.29-1.88-.88-2.46-.59-.59-1.39-.88-2.42-.88-1.12 0-1.94.34-2.49 1.01-.54.68-.86 1.51-.95 2.51h-7.35c.12-3.14 1.14-5.56 3.08-7.26Z" class="cls-3"/></g></g></g></svg>