<svg xmlns="http://www.w3.org/2000/svg" id="_編集モード" viewBox="0 0 86 86"><defs><style>.cls-1{isolation:isolate}.cls-3{stroke-width:0;fill:#fff}</style></defs><g id="_グループ_32"><circle id="_楕円形_1" cx="43" cy="43" r="43" style="stroke-width:0;fill:#ff8100"/><g id="_01" class="cls-1"><g class="cls-1"><path d="M19.78 30.58c1.95-2.9 5.1-4.36 9.44-4.36s7.49 1.45 9.44 4.36c1.95 2.9 2.93 6.88 2.93 11.92s-.98 9.11-2.93 12.01c-1.95 2.9-5.1 4.36-9.44 4.36s-7.49-1.45-9.44-4.36c-1.95-2.9-2.93-6.91-2.93-12.01s.98-9.02 2.93-11.92Zm13.44 5.08c-.65-1.6-1.98-2.4-4-2.4s-3.36.8-4 2.4c-.65 1.6-.97 3.88-.97 6.84 0 2 .12 3.65.35 4.95.23 1.31.71 2.36 1.43 3.17s1.78 1.21 3.19 1.21 2.47-.4 3.19-1.21c.72-.81 1.19-1.86 1.43-3.17.23-1.3.35-2.96.35-4.95 0-2.96-.32-5.24-.97-6.84ZM60.2 33.11c-.59-.54-1.42-.81-2.51-.81-1.67 0-2.88.73-3.61 2.18s-1.12 3.75-1.14 6.89c.64-1.03 1.58-1.83 2.79-2.42 1.22-.59 2.56-.88 4.03-.88 2.88 0 5.18.91 6.93 2.73 1.74 1.82 2.62 4.36 2.62 7.61 0 2.14-.43 4.02-1.3 5.63s-2.13 2.88-3.78 3.78c-1.66.91-3.62 1.36-5.87 1.36-4.52 0-7.66-1.42-9.42-4.25-1.76-2.83-2.64-6.9-2.64-12.21 0-5.57.93-9.72 2.79-12.43 1.86-2.71 4.85-4.07 8.95-4.07 2.2 0 4.05.43 5.57 1.3 1.51.87 2.65 2 3.43 3.41s1.24 2.95 1.39 4.62h-7c-.23-1.08-.65-1.9-1.23-2.44Zm-5.39 12.01c-.84.75-1.25 1.81-1.25 3.19s.39 2.51 1.17 3.3 1.88 1.19 3.32 1.19c1.29 0 2.31-.39 3.06-1.17.75-.78 1.12-1.84 1.12-3.19s-.37-2.46-1.1-3.26-1.79-1.19-3.17-1.19c-1.26 0-2.31.37-3.15 1.12Z" class="cls-3"/></g></g></g></svg>