<svg xmlns="http://www.w3.org/2000/svg" width="129" height="129"><defs><clipPath id="a"><path fill="#ff8100" d="M0 0h87.679v82.934H0z" data-name="長方形 110"/></clipPath></defs><g data-name="グループ 187" transform="translate(537 -1313)"><circle cx="64.5" cy="64.5" r="64.5" fill="#fff" data-name="楕円形 9" transform="translate(-537 1313)"/><g data-name="グループ 182"><g fill="#ff8100" clip-path="url(#a)" data-name="グループ 181" transform="translate(-516.535 1336.297)"><path d="M33.398 11.421 26.841.444a.913.913 0 0 0-1.567 0l-6.557 10.977a.913.913 0 0 0 .784 1.381h2.312V28a1.309 1.309 0 0 0 1.308 1.309h5.873A1.309 1.309 0 0 0 30.302 28V12.8h2.312a.913.913 0 0 0 .784-1.381" data-name="パス 516"/><path d="M87.548 11.421 80.992.444a.914.914 0 0 0-1.568 0l-6.556 10.977a.913.913 0 0 0 .784 1.381h2.312V28a1.309 1.309 0 0 0 1.308 1.309h5.869A1.309 1.309 0 0 0 84.452 28V12.8h2.313a.913.913 0 0 0 .783-1.381" data-name="パス 517"/><path d="M22.953 66.127a1.61 1.61 0 0 0-1.606-.8c-.469-.067 0 1.138.6 1.606a14.472 14.472 0 0 1 1.94 2.61 4.466 4.466 0 0 0 3.479 1.406c.737-.067-1.605-2.61-1.94-3.078s-2.075-.8-2.476-1.74" data-name="パス 518"/><path d="m32.388 44.714-1.138 1.272.335.6s1.071.4 1.272.268.87-.669.87-.669a7.011 7.011 0 0 0-1.338-1.472" data-name="パス 519"/><path d="M29.376 48.327a19.974 19.974 0 0 1-1.606 1.539c-.8.67-2.075.268-3.011 1.071s.335 1.138.335 1.138l1.07.067 1.2-.668a4.27 4.27 0 0 0 1.275.328c.267-.067 2.342-2.61 2.408-3.413s-.2-1.07-.2-1.07c-.2-.6-1.472 1-1.472 1" data-name="パス 520"/><path d="M34.262 38.424c-.134-.8-.937.2-.937.2a16.551 16.551 0 0 1-.4 2.409c-.268.937.067 1.606-.067 2.409s.87.335.87.335l.535-1.071a3.452 3.452 0 0 0 .335-1.941 22.734 22.734 0 0 1-.335-2.342" data-name="パス 521"/><path d="M46.017 75.58a28.141 28.141 0 0 1-20.545 3.182 3.315 3.315 0 0 0 .425-2.665c-.335-.8-.4-3.413-.736-4.35s-1.138.736-1.807 1.272-1-.937-1.2-2.075-.2-1.138-.6-.8-1.941-.2-3.279.134-3.352 2.341-3.352 2.341.749 1.212 1.526 2.346A28.28 28.28 0 0 1 3.56 53.428a5.526 5.526 0 0 1 .589 1.19c.335 1.272.4 3.279 1.2 3.547S7.7 55.755 8.7 56.29s1.941 6.424 2.141 6.96 5.086 5.22 6.692 5.086-3.546-3.479-4.015-5.353-.268-7.427 2.075-8.164 5.487-3.011 6.089-4.818 4.618-1.54 5.553-2.682 3.68-3.145 4.149-3.948-.2-5.019.469-5.755 4.149-1.673 5.353-1 4.55-.536 4.55-.536a4.768 4.768 0 0 0-1.406 2.744c-.2 1.673-.335 3.212-.134 3.212s-.267 1.4 1.339 0 4.015-3.547 5.152-4.283 1.74-5.22.469-6.09-7.561-4.282-9.234-5.152a24.28 24.28 0 0 1-4.239-3.5 28.121 28.121 0 0 1 15.785 6.23v-4.322a31.733 31.733 0 1 0-1.216 53.356 16.678 16.678 0 0 1-2.255-2.69" data-name="パス 522"/><path d="m52.221 55.692.73-.518V41.312a9.654 9.654 0 0 1-.556-3.089 17.9 17.9 0 0 0-1.472-4.35 1.547 1.547 0 0 1 .87-2.141l1.16.869v-.04a28.476 28.476 0 0 0-3.463-3.32v24.171a16.525 16.525 0 0 0-3.471 22.167 28.292 28.292 0 0 0 2.874-1.934 13.064 13.064 0 0 1 3.328-17.953" data-name="パス 523"/><path d="M70.06 53.413v-34.6a10.286 10.286 0 1 0-20.572 0v6.1a31.914 31.914 0 0 1 3.464 2.717v-8.815a6.822 6.822 0 1 1 13.644 0v36.359l.731.518a13.082 13.082 0 1 1-16.136 20.549 31.753 31.753 0 0 1-2.919 2.029A16.548 16.548 0 1 0 70.06 53.413" data-name="パス 524"/><path d="M50.924 33.873a17.832 17.832 0 0 1 1.472 4.35 9.654 9.654 0 0 0 .556 3.089v-8.711l-1.158-.869a1.547 1.547 0 0 0-.87 2.141" data-name="パス 525"/><path d="M52.951 32.562v-4.93a31.913 31.913 0 0 0-3.463-2.713v4.326a28.539 28.539 0 0 1 3.464 3.321" data-name="パス 526"/><path d="M48.891 73.646a28.368 28.368 0 0 1-2.874 1.934 16.677 16.677 0 0 0 2.255 2.691 31.95 31.95 0 0 0 2.919-2.03 13.172 13.172 0 0 1-2.3-2.6" data-name="パス 527"/><path d="M63.145 60.387V24.651a2.88 2.88 0 0 0-2.873-2.871h-.925a2.881 2.881 0 0 0-2.871 2.871v35.732a6.658 6.658 0 1 0 6.667 0" data-name="パス 528"/></g></g></g></svg>