<svg xmlns="http://www.w3.org/2000/svg" width="129" height="129"><defs><clipPath id="a"><path fill="#ff8100" d="M0 0h91.468v89.061H0z" data-name="長方形 111"/></clipPath></defs><g data-name="グループ 188" transform="translate(537 -1467)"><circle cx="64.5" cy="64.5" r="64.5" fill="#fff" data-name="楕円形 10" transform="translate(-537 1467)"/><g data-name="グループ 184"><g fill="#ff8100" clip-path="url(#a)" data-name="グループ 183" transform="translate(-518.173 1492.116)"><path d="M64.228 89.061a16.549 16.549 0 0 1-10.287-29.52v-34.6a10.287 10.287 0 0 1 20.573 0v34.6a16.549 16.549 0 0 1-10.286 29.52m0-70.941a6.83 6.83 0 0 0-6.822 6.821v36.36l-.73.518a13.095 13.095 0 1 0 15.1 0l-.73-.518v-36.36a6.83 6.83 0 0 0-6.822-6.822" data-name="パス 529"/><path d="M67.606 66.514V30.778a2.879 2.879 0 0 0-2.871-2.871h-.929a2.88 2.88 0 0 0-2.871 2.871V66.51a6.658 6.658 0 1 0 6.666 0" data-name="パス 530"/><path d="M30.631.444a.913.913 0 0 0-1.567 0l-6.557 10.977a.913.913 0 0 0 .784 1.381h2.313V28a1.308 1.308 0 0 0 1.308 1.308h5.872A1.308 1.308 0 0 0 34.091 28V12.8h2.312a.913.913 0 0 0 .784-1.381Z" data-name="パス 531"/><path d="M91.338 11.421 84.781.444a.913.913 0 0 0-1.567 0l-6.556 10.977a.913.913 0 0 0 .784 1.381h2.312V28a1.309 1.309 0 0 0 1.308 1.309h5.873A1.309 1.309 0 0 0 88.242 28V12.8h2.312a.913.913 0 0 0 .784-1.381" data-name="パス 532"/><path d="M41.32 38.555a12.339 12.339 0 0 1-9.752-4.319 12.337 12.337 0 0 1-9.751 4.319 12.34 12.34 0 0 1-9.752-4.319 12.337 12.337 0 0 1-9.751 4.319A14.258 14.258 0 0 1 0 38.367v35.644h44.7a16.534 16.534 0 0 1 6.07-15.541V34.593a12.482 12.482 0 0 1-9.453 3.962" data-name="パス 533"/></g></g></g></svg>