<svg xmlns="http://www.w3.org/2000/svg" width="129" height="129"><defs><clipPath id="a"><path fill="#ff8100" d="M0 0h104.536v57.438H0z" data-name="長方形 112"/></clipPath></defs><g data-name="グループ 189" transform="translate(537 -1609)"><circle cx="64.5" cy="64.5" r="64.5" fill="#fff" data-name="楕円形 11" transform="translate(-537 1609)"/><g data-name="グループ 186"><g fill="#ff8100" clip-path="url(#a)" data-name="グループ 185" transform="translate(-524.768 1644.781)"><path d="M8.954 26.272s8.946-11.233 9.742-14.215S21.183 1.984 29.036.692s20.607 1.488 23.291.395S64.349-.5 66.933.692a28.243 28.243 0 0 0 12.1 2.519c5.169-.1 9.3.826 10.792 2.218s3.82 4.144 4.317 5.436 4.473 5.368 4.175 6.461-2.684 3.081-4.97 2.883-9.741-2.386-12.723-2.088a38.132 38.132 0 0 0-7.157 1.79s-.994 1.292.2 4.174 1.887 7.952 4.078 9.145 4.274 2.286 4.672 3.578.4 1.988-1.392 2.386-8.648.8-9.642 0-4.274-1.988-5.268-3.976-3.877-6.262-4.474-6.063-2.187 2.882-2.187 4.274.5 1.789 2.287 2.386S65.22 37.6 65.319 38.5s-1.392 1.79-3.28 1.889-7.356.795-9.344-.5-5.069-6.461-4.87-7.952.6-6.262 0-6.561-4.274-.994-5.07-.3-2.584 4.97-2.883 5.964-.7 3.181 1.292 3.479 3.181.894 3.281 1.988a2.064 2.064 0 0 1-1.691 2.093c-.795.1-14.115-.3-14.115-.3s-2.085-1.889-1.291-3.181 2.385-4.274 2.485-5.467-.7-2.385-1.69-1.988-7.952 3.976-8.847 4.274-4.771 2.485-1.789 3.578S20.688 38.7 20.39 39.1s-2.088 1.69-3.379 1.491-7.754-.2-8.151-.6a33.947 33.947 0 0 1-2.585-5.368c-.3-.994-2.386-2.386-1.392-3.976a31.678 31.678 0 0 1 4.071-4.375" data-name="パス 534"/><path d="M3.125 44.115h98.282a3.122 3.122 0 1 1-.195 6.238L84.9 49.334a3.115 3.115 0 0 0-2.27.785 19.815 19.815 0 0 1-11.359 4.655c-8.29.79-35.529 1.184-38.687 2.368-3 1.124-18.08-1.307-19.613-1.558a3.234 3.234 0 0 0-.26-.031l-8.13-.627a3.122 3.122 0 0 1-2.689-2.028L.2 48.326a3.122 3.122 0 0 1 2.928-4.206" data-name="パス 535"/></g></g></g></svg>