<svg xmlns="http://www.w3.org/2000/svg" id="_編集モード" viewBox="0 0 86 86"><defs><style>.cls-1{isolation:isolate}.cls-3{stroke-width:0;fill:#fff}</style></defs><g id="_グループ_32"><circle id="_楕円形_1" cx="43" cy="43" r="43" style="stroke-width:0;fill:#ff8100"/><g id="_01" class="cls-1"><g class="cls-1"><path d="M24.51 30.58c1.95-2.9 5.1-4.36 9.44-4.36s7.49 1.45 9.44 4.36c1.95 2.9 2.93 6.88 2.93 11.92s-.98 9.11-2.93 12.01c-1.95 2.9-5.1 4.36-9.44 4.36s-7.49-1.45-9.44-4.36c-1.95-2.9-2.93-6.91-2.93-12.01s.98-9.02 2.93-11.92Zm13.44 5.08c-.65-1.6-1.98-2.4-4-2.4s-3.36.8-4 2.4c-.65 1.6-.97 3.88-.97 6.84 0 2 .12 3.65.35 4.95.23 1.31.71 2.36 1.43 3.17s1.78 1.21 3.19 1.21 2.47-.4 3.19-1.21c.72-.81 1.19-1.86 1.43-3.17.23-1.3.35-2.96.35-4.95 0-2.96-.32-5.24-.97-6.84ZM49.48 33.88v-7h12.19V59h-7.83V33.88h-4.36Z" class="cls-3"/></g></g></g></svg>